<svg width="66" height="66" viewBox="0 0 66 66" fill="none" xmlns="http://www.w3.org/2000/svg">
<mask id="path-1-inside-1_521_4701" fill="white">
<path fill-rule="evenodd" clip-rule="evenodd" d="M33 0.5C44.2183 0.5 53.3125 9.59422 53.3125 20.8125C53.3125 32.0308 44.2183 41.125 33 41.125C21.7817 41.125 12.6875 32.0308 12.6875 20.8125C12.6875 9.59422 21.7817 0.5 33 0.5ZM33 8.625C26.269 8.625 20.8125 14.0815 20.8125 20.8125C20.8125 27.5435 26.269 33 33 33C39.731 33 45.1875 27.5435 45.1875 20.8125C45.1875 14.0815 39.731 8.625 33 8.625Z"/>
</mask>
<g filter="url(#filter0_i_521_4701)">
<path fill-rule="evenodd" clip-rule="evenodd" d="M33 0.5C44.2183 0.5 53.3125 9.59422 53.3125 20.8125C53.3125 32.0308 44.2183 41.125 33 41.125C21.7817 41.125 12.6875 32.0308 12.6875 20.8125C12.6875 9.59422 21.7817 0.5 33 0.5ZM33 8.625C26.269 8.625 20.8125 14.0815 20.8125 20.8125C20.8125 27.5435 26.269 33 33 33C39.731 33 45.1875 27.5435 45.1875 20.8125C45.1875 14.0815 39.731 8.625 33 8.625Z" fill="url(#paint0_linear_521_4701)"/>
</g>
<path d="M33 0.5V0V0.5ZM33 1C43.9421 1 52.8125 9.87036 52.8125 20.8125H53.8125C53.8125 9.31807 44.4944 0 33 0V1ZM52.8125 20.8125C52.8125 31.7546 43.9421 40.625 33 40.625V41.625C44.4944 41.625 53.8125 32.3069 53.8125 20.8125H52.8125ZM33 40.625C22.0579 40.625 13.1875 31.7546 13.1875 20.8125H12.1875C12.1875 32.3069 21.5056 41.625 33 41.625V40.625ZM13.1875 20.8125C13.1875 9.87036 22.0579 1 33 1V0C21.5056 0 12.1875 9.31807 12.1875 20.8125H13.1875ZM33 8.125C25.9929 8.125 20.3125 13.8054 20.3125 20.8125H21.3125C21.3125 14.3577 26.5452 9.125 33 9.125V8.125ZM20.3125 20.8125C20.3125 27.8196 25.9929 33.5 33 33.5V32.5C26.5452 32.5 21.3125 27.2673 21.3125 20.8125H20.3125ZM33 33.5C40.0071 33.5 45.6875 27.8196 45.6875 20.8125H44.6875C44.6875 27.2673 39.4548 32.5 33 32.5V33.5ZM45.6875 20.8125C45.6875 13.8054 40.0071 8.125 33 8.125V9.125C39.4548 9.125 44.6875 14.3577 44.6875 20.8125H45.6875Z" fill="url(#paint1_linear_521_4701)" mask="url(#path-1-inside-1_521_4701)"/>
<g filter="url(#filter1_bi_521_4701)">
<path fill-rule="evenodd" clip-rule="evenodd" d="M4.14911 25.3598C4.38323 22.7844 6.54256 20.8125 9.12857 20.8125H56.8714C59.4574 20.8125 61.6168 22.7844 61.8509 25.3598L65.0043 60.0473C65.2705 62.9754 62.965 65.5 60.0248 65.5H5.97516C3.03501 65.5 0.729509 62.9754 0.995698 60.0473L4.14911 25.3598Z" fill="#47F49A" fill-opacity="0.3"/>
<path d="M4.39808 25.3825C4.6205 22.9358 6.67186 21.0625 9.12857 21.0625H56.8714C59.3281 21.0625 61.3795 22.9358 61.6019 25.3825L64.7553 60.07C65.0082 62.8516 62.818 65.25 60.0248 65.25H5.97516C3.18201 65.25 0.991792 62.8516 1.24467 60.07L4.39808 25.3825Z" stroke="url(#paint2_linear_521_4701)" stroke-width="0.5"/>
</g>
<path fill-rule="evenodd" clip-rule="evenodd" d="M15.6875 30.9688C14.0306 30.9688 12.6875 32.3119 12.6875 33.9688V38.125C12.6875 39.7819 14.0306 41.125 15.6875 41.125H19.8438C21.5006 41.125 22.8438 39.7819 22.8438 38.125V33.9688C22.8438 32.3119 21.5006 30.9688 19.8437 30.9688H15.6875ZM46.1562 30.9688C44.4994 30.9688 43.1562 32.3119 43.1562 33.9688V38.125C43.1562 39.7819 44.4994 41.125 46.1562 41.125H50.3125C51.9694 41.125 53.3125 39.7819 53.3125 38.125V33.9688C53.3125 32.3119 51.9694 30.9688 50.3125 30.9688H46.1562Z" fill="white"/>
<defs>
<filter id="filter0_i_521_4701" x="12.6875" y="0.5" width="40.625" height="40.625" filterUnits="userSpaceOnUse" color-interpolation-filters="sRGB">
<feFlood flood-opacity="0" result="BackgroundImageFix"/>
<feBlend mode="normal" in="SourceGraphic" in2="BackgroundImageFix" result="shape"/>
<feColorMatrix in="SourceAlpha" type="matrix" values="0 0 0 0 0 0 0 0 0 0 0 0 0 0 0 0 0 0 127 0" result="hardAlpha"/>
<feOffset/>
<feGaussianBlur stdDeviation="5"/>
<feComposite in2="hardAlpha" operator="arithmetic" k2="-1" k3="1"/>
<feColorMatrix type="matrix" values="0 0 0 0 1 0 0 0 0 1 0 0 0 0 1 0 0 0 0.4 0"/>
<feBlend mode="normal" in2="shape" result="effect1_innerShadow_521_4701"/>
</filter>
<filter id="filter1_bi_521_4701" x="-4.46195" y="15.3759" width="74.9239" height="55.5606" filterUnits="userSpaceOnUse" color-interpolation-filters="sRGB">
<feFlood flood-opacity="0" result="BackgroundImageFix"/>
<feGaussianBlur in="BackgroundImage" stdDeviation="2.71828"/>
<feComposite in2="SourceAlpha" operator="in" result="effect1_backgroundBlur_521_4701"/>
<feBlend mode="normal" in="SourceGraphic" in2="effect1_backgroundBlur_521_4701" result="shape"/>
<feColorMatrix in="SourceAlpha" type="matrix" values="0 0 0 0 0 0 0 0 0 0 0 0 0 0 0 0 0 0 127 0" result="hardAlpha"/>
<feOffset/>
<feGaussianBlur stdDeviation="2"/>
<feComposite in2="hardAlpha" operator="arithmetic" k2="-1" k3="1"/>
<feColorMatrix type="matrix" values="0 0 0 0 1 0 0 0 0 1 0 0 0 0 1 0 0 0 0.3 0"/>
<feBlend mode="normal" in2="shape" result="effect2_innerShadow_521_4701"/>
</filter>
<linearGradient id="paint0_linear_521_4701" x1="12.8656" y1="0.5" x2="12.8656" y2="40.7688" gradientUnits="userSpaceOnUse">
<stop stop-color="#00FFD0"/>
<stop offset="1" stop-color="#0B9D71"/>
</linearGradient>
<linearGradient id="paint1_linear_521_4701" x1="12.6875" y1="0.5" x2="12.6875" y2="41.125" gradientUnits="userSpaceOnUse">
<stop stop-color="white" stop-opacity="0.4"/>
<stop offset="1" stop-color="white" stop-opacity="0.01"/>
</linearGradient>
<linearGradient id="paint2_linear_521_4701" x1="0.5" y1="20.8125" x2="0.5" y2="65.5" gradientUnits="userSpaceOnUse">
<stop stop-color="white" stop-opacity="0.3"/>
<stop offset="1" stop-color="white" stop-opacity="0.13"/>
</linearGradient>
</defs>
</svg>
