<svg width="112" height="107" viewBox="0 0 112 107" fill="none" xmlns="http://www.w3.org/2000/svg">
<mask id="path-1-inside-1_665_1967" fill="white">
<path fill-rule="evenodd" clip-rule="evenodd" d="M65.5 70.9192C57.4919 70.9192 51 66.006 51 59.9453C51 53.8846 57.4919 48.9714 65.5 48.9714C73.5081 48.9714 80 53.8846 80 59.9453C80 64.3031 76.6437 68.0676 71.7808 69.8391C72.9449 71.8893 75 72.9144 75 72.9144C75 72.9144 70.7513 72.4906 67.5157 70.814C66.857 70.8833 66.184 70.9192 65.5 70.9192Z"/>
</mask>
<g filter="url(#filter0_i_665_1967)">
<path fill-rule="evenodd" clip-rule="evenodd" d="M65.5 70.9192C57.4919 70.9192 51 66.006 51 59.9453C51 53.8846 57.4919 48.9714 65.5 48.9714C73.5081 48.9714 80 53.8846 80 59.9453C80 64.3031 76.6437 68.0676 71.7808 69.8391C72.9449 71.8893 75 72.9144 75 72.9144C75 72.9144 70.7513 72.4906 67.5157 70.814C66.857 70.8833 66.184 70.9192 65.5 70.9192Z" fill="url(#paint0_linear_665_1967)"/>
</g>
<path d="M71.7808 69.8391L71.346 70.0859L71.054 69.5717L71.6097 69.3693L71.7808 69.8391ZM75 72.9144L75.2232 72.467L74.9504 73.412L75 72.9144ZM67.5157 70.814L67.4634 70.3168L67.6126 70.3011L67.7458 70.3701L67.5157 70.814ZM51.5 59.9453C51.5 62.7849 53.0196 65.3923 55.5487 67.3063C58.0781 69.2206 61.5947 70.4192 65.5 70.4192V71.4192C61.3971 71.4192 57.6638 70.1612 54.9452 68.1037C52.2263 66.046 50.5 63.1664 50.5 59.9453H51.5ZM65.5 49.4714C61.5947 49.4714 58.0781 50.67 55.5487 52.5843C53.0196 54.4983 51.5 57.1057 51.5 59.9453H50.5C50.5 56.7242 52.2263 53.8446 54.9452 51.7869C57.6638 49.7294 61.3971 48.4714 65.5 48.4714V49.4714ZM79.5 59.9453C79.5 57.1057 77.9804 54.4983 75.4513 52.5843C72.9219 50.67 69.4053 49.4714 65.5 49.4714V48.4714C69.6029 48.4714 73.3362 49.7294 76.0548 51.7869C78.7737 53.8446 80.5 56.7242 80.5 59.9453H79.5ZM71.6097 69.3693C76.3503 67.6424 79.5 64.0229 79.5 59.9453H80.5C80.5 64.5833 76.9372 68.4929 71.9519 70.3089L71.6097 69.3693ZM72.2156 69.5922C72.7546 70.5415 73.5064 71.2631 74.1338 71.7509C74.4459 71.9935 74.723 72.175 74.9204 72.2949C75.0189 72.3548 75.0972 72.3992 75.1497 72.4279C75.1759 72.4423 75.1956 72.4527 75.2081 72.4592C75.2143 72.4625 75.2188 72.4648 75.2213 72.4661C75.2226 72.4667 75.2234 72.4671 75.2237 72.4673C75.2239 72.4674 75.2239 72.4674 75.2238 72.4673C75.2238 72.4673 75.2237 72.4673 75.2236 72.4672C75.2235 72.4672 75.2234 72.4671 75.2234 72.4671C75.2233 72.4671 75.2232 72.467 75 72.9144C74.7768 73.3619 74.7767 73.3618 74.7765 73.3617C74.7765 73.3617 74.7763 73.3616 74.7762 73.3616C74.776 73.3615 74.7757 73.3613 74.7754 73.3612C74.7749 73.3609 74.7741 73.3605 74.7733 73.3601C74.7716 73.3593 74.7695 73.3582 74.7668 73.3568C74.7615 73.3541 74.7543 73.3504 74.7452 73.3456C74.727 73.3361 74.7014 73.3226 74.6692 73.3049C74.6047 73.2695 74.5133 73.2178 74.401 73.1495C74.1767 73.0132 73.8672 72.8102 73.52 72.5403C72.8288 72.003 71.9711 71.1869 71.346 70.0859L72.2156 69.5922ZM75 72.9144C74.9504 73.412 74.9503 73.412 74.9502 73.412C74.9501 73.4119 74.95 73.4119 74.9499 73.4119C74.9496 73.4119 74.9493 73.4119 74.949 73.4118C74.9483 73.4118 74.9473 73.4117 74.946 73.4115C74.9436 73.4113 74.9401 73.4109 74.9356 73.4104C74.9266 73.4095 74.9136 73.4081 74.8968 73.4063C74.8631 73.4026 74.814 73.397 74.7509 73.3893C74.6246 73.374 74.4418 73.3503 74.2129 73.3167C73.7553 73.2495 73.1121 73.1423 72.366 72.9818C70.8801 72.6621 68.9601 72.1256 67.2857 71.2579L67.7458 70.3701C69.307 71.179 71.1291 71.6927 72.5764 72.0041C73.297 72.1592 73.9181 72.2627 74.3582 72.3273C74.5782 72.3596 74.7526 72.3822 74.8714 72.3966C74.9307 72.4038 74.9761 72.409 75.0062 72.4123C75.0213 72.4139 75.0326 72.4151 75.0398 72.4159C75.0435 72.4163 75.0461 72.4166 75.0478 72.4167C75.0486 72.4168 75.0492 72.4169 75.0495 72.4169C75.0496 72.4169 75.0497 72.4169 75.0497 72.4169C75.0498 72.4169 75.0497 72.4169 75.0497 72.4169C75.0497 72.4169 75.0496 72.4169 75 72.9144ZM65.5 70.4192C66.1665 70.4192 66.822 70.3843 67.4634 70.3168L67.5681 71.3113C66.8919 71.3824 66.2015 71.4192 65.5 71.4192V70.4192Z" fill="url(#paint1_linear_665_1967)" mask="url(#path-1-inside-1_665_1967)"/>
<g filter="url(#filter1_bdi_665_1967)">
<mask id="path-3-inside-2_665_1967" fill="white">
<path fill-rule="evenodd" clip-rule="evenodd" d="M56 64.9335C64.8366 64.9335 72 59.5737 72 52.962C72 46.3503 64.8366 40.9905 56 40.9905C47.1634 40.9905 40 46.3503 40 52.962C40 57.5171 43.4001 61.4779 48.4049 63.5013C47.2904 65.7863 45 66.9287 45 66.9287C45 66.9287 49.4868 66.4811 52.7502 64.6864C53.7995 64.8484 54.8865 64.9335 56 64.9335Z"/>
</mask>
<path fill-rule="evenodd" clip-rule="evenodd" d="M56 64.9335C64.8366 64.9335 72 59.5737 72 52.962C72 46.3503 64.8366 40.9905 56 40.9905C47.1634 40.9905 40 46.3503 40 52.962C40 57.5171 43.4001 61.4779 48.4049 63.5013C47.2904 65.7863 45 66.9287 45 66.9287C45 66.9287 49.4868 66.4811 52.7502 64.6864C53.7995 64.8484 54.8865 64.9335 56 64.9335Z" fill="#FF7D94" fill-opacity="0.6" shape-rendering="crispEdges"/>
<path d="M48.4049 63.5013L48.8543 63.7205L49.0893 63.2387L48.5923 63.0378L48.4049 63.5013ZM45 66.9287L44.7768 66.4813L45.0496 67.4263L45 66.9287ZM52.7502 64.6864L52.8264 64.1922L52.6583 64.1663L52.5092 64.2483L52.7502 64.6864ZM71.5 52.962C71.5 56.0746 69.8149 58.9312 67.0142 61.0268C64.2133 63.1224 60.3208 64.4335 56 64.4335V65.4335C60.5157 65.4335 64.6233 64.0646 67.6133 61.8275C70.6033 59.5902 72.5 56.461 72.5 52.962H71.5ZM56 41.4905C60.3208 41.4905 64.2133 42.8015 67.0142 44.8972C69.8149 46.9928 71.5 49.8493 71.5 52.962H72.5C72.5 49.463 70.6033 46.3337 67.6133 44.0965C64.6233 41.8594 60.5157 40.4905 56 40.4905V41.4905ZM40.5 52.962C40.5 49.8493 42.1851 46.9928 44.9858 44.8972C47.7867 42.8015 51.6792 41.4905 56 41.4905V40.4905C51.4843 40.4905 47.3767 41.8594 44.3867 44.0965C41.3967 46.3337 39.5 49.463 39.5 52.962H40.5ZM48.5923 63.0378C43.7049 61.0619 40.5 57.2458 40.5 52.962H39.5C39.5 57.7883 43.0952 61.894 48.2175 63.9649L48.5923 63.0378ZM47.9555 63.2821C47.4415 64.3359 46.6492 65.1382 45.9716 65.6819C45.6346 65.9523 45.331 66.1547 45.1133 66.2887C45.0046 66.3555 44.9177 66.4051 44.8593 66.4372C44.8301 66.4533 44.8081 66.465 44.7941 66.4724C44.7871 66.4761 44.782 66.4786 44.7791 66.4801C44.7777 66.4809 44.7767 66.4813 44.7764 66.4815C44.7762 66.4816 44.7761 66.4817 44.7762 66.4816C44.7762 66.4816 44.7763 66.4816 44.7764 66.4815C44.7764 66.4815 44.7766 66.4814 44.7766 66.4814C44.7767 66.4814 44.7768 66.4813 45 66.9287C45.2232 67.3762 45.2233 67.3761 45.2235 67.376C45.2235 67.376 45.2237 67.3759 45.2238 67.3758C45.2241 67.3757 45.2243 67.3756 45.2247 67.3754C45.2253 67.3751 45.2261 67.3747 45.227 67.3743C45.2288 67.3733 45.2312 67.3721 45.2341 67.3706C45.2399 67.3677 45.2479 67.3636 45.2579 67.3583C45.278 67.3478 45.3062 67.3327 45.3419 67.3131C45.4131 67.2739 45.5138 67.2163 45.6373 67.1404C45.8838 66.9887 46.2225 66.7627 46.5974 66.4619C47.3436 65.8631 48.2538 64.9517 48.8543 63.7205L47.9555 63.2821ZM45 66.9287C45.0496 67.4263 45.0497 67.4263 45.0498 67.4262C45.0499 67.4262 45.05 67.4262 45.0502 67.4262C45.0504 67.4262 45.0507 67.4262 45.0511 67.4261C45.0518 67.426 45.0529 67.4259 45.0542 67.4258C45.0568 67.4255 45.0604 67.4252 45.0652 67.4247C45.0746 67.4237 45.0883 67.4222 45.1061 67.4202C45.1415 67.4163 45.1932 67.4104 45.2597 67.4023C45.3927 67.3861 45.585 67.361 45.8255 67.3253C46.3061 67.254 46.9805 67.14 47.7587 66.9689C49.3078 66.6284 51.2987 66.0553 52.9911 65.1245L52.5092 64.2483C50.9383 65.1122 49.0541 65.6603 47.544 65.9922C46.7925 66.1574 46.1412 66.2675 45.6786 66.3362C45.4475 66.3705 45.2638 66.3944 45.1386 66.4097C45.0761 66.4173 45.0282 66.4228 44.9963 66.4263C44.9804 66.428 44.9685 66.4293 44.9608 66.4301C44.9569 66.4305 44.9541 66.4308 44.9524 66.431C44.9515 66.4311 44.9509 66.4312 44.9506 66.4312C44.9504 66.4312 44.9503 66.4312 44.9503 66.4312C44.9502 66.4312 44.9503 66.4312 44.9503 66.4312C44.9503 66.4312 44.9504 66.4312 45 66.9287ZM56 64.4335C54.9119 64.4335 53.8505 64.3503 52.8264 64.1922L52.6739 65.1805C53.7486 65.3464 54.861 65.4335 56 65.4335V64.4335Z" fill="url(#paint2_linear_665_1967)" mask="url(#path-3-inside-2_665_1967)"/>
</g>
<path fill-rule="evenodd" clip-rule="evenodd" d="M50.5 49.9691C49.1226 49.9691 48 51.0857 48 52.4632C48 53.8406 49.1226 54.9572 50.5 54.9572C51.8774 54.9572 53 53.8406 53 52.4632C53 51.0857 51.8774 49.9691 50.5 49.9691ZM61.5 49.9691C60.1226 49.9691 59 51.0857 59 52.4632C59 53.8406 60.1226 54.9572 61.5 54.9572C62.8774 54.9572 64 53.8406 64 52.4632C64 51.0857 62.8774 49.9691 61.5 49.9691Z" fill="white"/>
<defs>
<filter id="filter0_i_665_1967" x="51" y="48.9714" width="29" height="23.943" filterUnits="userSpaceOnUse" color-interpolation-filters="sRGB">
<feFlood flood-opacity="0" result="BackgroundImageFix"/>
<feBlend mode="normal" in="SourceGraphic" in2="BackgroundImageFix" result="shape"/>
<feColorMatrix in="SourceAlpha" type="matrix" values="0 0 0 0 0 0 0 0 0 0 0 0 0 0 0 0 0 0 127 0" result="hardAlpha"/>
<feOffset/>
<feGaussianBlur stdDeviation="5"/>
<feComposite in2="hardAlpha" operator="arithmetic" k2="-1" k3="1"/>
<feColorMatrix type="matrix" values="0 0 0 0 1 0 0 0 0 1 0 0 0 0 1 0 0 0 0.4 0"/>
<feBlend mode="normal" in2="shape" result="effect1_innerShadow_665_1967"/>
</filter>
<filter id="filter1_bdi_665_1967" x="0" y="0.990479" width="112" height="105.938" filterUnits="userSpaceOnUse" color-interpolation-filters="sRGB">
<feFlood flood-opacity="0" result="BackgroundImageFix"/>
<feGaussianBlur in="BackgroundImage" stdDeviation="2.71828"/>
<feComposite in2="SourceAlpha" operator="in" result="effect1_backgroundBlur_665_1967"/>
<feColorMatrix in="SourceAlpha" type="matrix" values="0 0 0 0 0 0 0 0 0 0 0 0 0 0 0 0 0 0 127 0" result="hardAlpha"/>
<feOffset/>
<feGaussianBlur stdDeviation="20"/>
<feComposite in2="hardAlpha" operator="out"/>
<feColorMatrix type="matrix" values="0 0 0 0 1 0 0 0 0 0.490196 0 0 0 0 0.580392 0 0 0 0.5 0"/>
<feBlend mode="normal" in2="effect1_backgroundBlur_665_1967" result="effect2_dropShadow_665_1967"/>
<feBlend mode="normal" in="SourceGraphic" in2="effect2_dropShadow_665_1967" result="shape"/>
<feColorMatrix in="SourceAlpha" type="matrix" values="0 0 0 0 0 0 0 0 0 0 0 0 0 0 0 0 0 0 127 0" result="hardAlpha"/>
<feOffset/>
<feGaussianBlur stdDeviation="2"/>
<feComposite in2="hardAlpha" operator="arithmetic" k2="-1" k3="1"/>
<feColorMatrix type="matrix" values="0 0 0 0 1 0 0 0 0 1 0 0 0 0 1 0 0 0 0.3 0"/>
<feBlend mode="normal" in2="shape" result="effect3_innerShadow_665_1967"/>
</filter>
<linearGradient id="paint0_linear_665_1967" x1="80" y1="48.9714" x2="80" y2="72.9144" gradientUnits="userSpaceOnUse">
<stop stop-color="#FF0069"/>
<stop offset="1" stop-color="#B3002B"/>
</linearGradient>
<linearGradient id="paint1_linear_665_1967" x1="80" y1="48.9714" x2="80" y2="72.9144" gradientUnits="userSpaceOnUse">
<stop stop-color="white" stop-opacity="0.4"/>
<stop offset="1" stop-color="white" stop-opacity="0.01"/>
</linearGradient>
<linearGradient id="paint2_linear_665_1967" x1="40" y1="40.9905" x2="40" y2="66.9287" gradientUnits="userSpaceOnUse">
<stop stop-color="white" stop-opacity="0.3"/>
<stop offset="1" stop-color="white" stop-opacity="0.13"/>
</linearGradient>
</defs>
</svg>
