<svg width="34" height="30" viewBox="0 0 34 30" fill="none" xmlns="http://www.w3.org/2000/svg">
<g clip-path="url(#clip0_477_3885)">
<path d="M33.7294 14.1445C30.5345 7.94473 24.2095 3.75 16.9672 3.75C9.72489 3.75 3.39812 7.94766 0.204988 14.1451C0.0702179 14.4103 0 14.7032 0 15.0003C0 15.2974 0.0702179 15.5903 0.204988 15.8555C3.39989 22.0553 9.72489 26.25 16.9672 26.25C24.2095 26.25 30.5362 22.0523 33.7294 15.8549C33.8641 15.5897 33.9344 15.2968 33.9344 14.9997C33.9344 14.7026 33.8641 14.4097 33.7294 14.1445ZM16.9672 23.4375C15.2893 23.4375 13.6491 22.9426 12.2539 22.0155C10.8588 21.0884 9.77145 19.7706 9.12935 18.2289C8.48724 16.6871 8.31924 14.9906 8.64658 13.3539C8.97392 11.7172 9.78191 10.2138 10.9684 9.03379C12.1548 7.85378 13.6664 7.05019 15.3121 6.72462C16.9578 6.39906 18.6635 6.56615 20.2137 7.20477C21.7639 7.84338 23.0888 8.92484 24.021 10.3124C24.9532 11.6999 25.4508 13.3312 25.4508 15C25.4513 16.1082 25.2323 17.2056 24.8061 18.2295C24.38 19.2535 23.7551 20.1838 22.9672 20.9674C22.1793 21.751 21.2439 22.3725 20.2144 22.7963C19.1848 23.2202 18.0814 23.438 16.9672 23.4375ZM16.9672 9.375C16.4624 9.38202 15.9608 9.45671 15.4761 9.59707C15.8756 10.1371 16.0674 10.8017 16.0165 11.4703C15.9657 12.1389 15.6756 12.7672 15.1989 13.2413C14.7222 13.7154 14.0904 14.0039 13.4182 14.0545C12.7459 14.1051 12.0777 13.9144 11.5347 13.517C11.2255 14.65 11.2813 15.8508 11.6943 16.9506C12.1073 18.0503 12.8566 18.9936 13.8369 19.6476C14.8171 20.3016 15.9788 20.6335 17.1586 20.5964C18.3384 20.5593 19.4768 20.1552 20.4136 19.441C21.3503 18.7268 22.0383 17.7383 22.3807 16.6148C22.723 15.4913 22.7025 14.2894 22.322 13.1781C21.9416 12.0668 21.2203 11.1021 20.2597 10.4199C19.2991 9.73769 18.1475 9.37224 16.9672 9.375Z" fill="white"/>
</g>
<defs>
<clipPath id="clip0_477_3885">
<rect width="33.9344" height="30" fill="white"/>
</clipPath>
</defs>
</svg>
