<svg width="200" height="200" viewBox="0 0 200 200" fill="none" xmlns="http://www.w3.org/2000/svg">
<g filter="url(#filter0_bdi_369_2327)">
<rect x="50" y="50" width="100" height="99.7625" rx="49.8813" fill="#00ACEE" fill-opacity="0.2" shape-rendering="crispEdges"/>
<rect x="50.25" y="50.25" width="99.5" height="99.2625" rx="49.6313" stroke="url(#paint0_linear_369_2327)" stroke-width="0.5" shape-rendering="crispEdges"/>
</g>
<g filter="url(#filter1_i_369_2327)">
<path d="M127.404 82.7862C126.606 83.3852 125.807 83.8844 124.908 84.3835C125.008 85.1822 125.008 86.0807 125.008 86.9792C125.008 98.5599 120.017 109.042 112.13 116.33C105.94 120.923 98.2529 123.618 89.8669 123.618C82.579 123.618 75.7903 121.522 70 117.928C71.198 118.127 72.396 118.227 73.6938 118.227C79.4842 118.227 84.7754 116.23 88.9684 112.936C83.5774 112.836 78.985 109.242 77.3877 104.25C78.0865 104.35 78.8852 104.45 79.6839 104.45C80.782 104.45 81.7804 104.35 82.7787 104.051C80.4825 103.552 78.4859 102.354 76.8885 100.756C74.5923 98.5599 73.1947 95.3652 73.1947 91.9709C73.1947 91.871 73.1947 91.871 73.1947 91.7712C74.6922 92.5699 76.2895 93.0691 78.0865 93.2687C76.2895 91.871 74.792 89.9742 73.9933 87.7779C73.4942 86.3802 73.1947 84.8827 73.1947 83.3852C73.1947 82.7862 73.1947 82.0874 73.2945 81.4884C73.594 79.7912 74.193 78.1938 74.9917 76.896C75.8902 77.8943 76.8885 78.8927 77.9867 79.891C78.4859 80.3902 79.0849 80.7895 79.584 81.2887C82.6789 83.7845 86.173 85.7812 89.8669 87.2787C90.3661 87.4784 90.7654 87.678 91.2646 87.7779C92.9617 88.3769 94.6589 88.876 96.4559 89.1755C96.8552 89.2754 97.2546 89.3752 97.6539 89.3752C97.8536 89.3752 97.9534 89.475 98.1531 89.475C98.9517 89.5749 99.6506 89.6747 100.449 89.7745C100.25 88.876 100.05 87.8777 100.05 86.7795C100.05 82.5865 102.146 78.8927 105.341 76.6963C105.541 76.4967 105.74 76.3968 106.04 76.297C106.04 76.297 106.14 76.297 106.14 76.3968V76.297C108.037 75.1988 110.133 74.5 112.529 74.5C116.123 74.5 119.318 75.9975 121.614 78.4933C122.413 78.2937 123.311 78.094 124.11 77.8943C125.008 77.5948 125.807 77.3952 126.606 76.9958C127.604 76.5965 128.502 76.0973 129.401 75.5982C128.902 77.0957 128.103 78.4933 127.105 79.6913C126.406 80.49 125.607 81.1889 124.809 81.8877C124.609 81.9875 124.409 82.1872 124.21 82.287C124.11 82.287 124.11 82.287 124.01 82.287C124.01 82.287 124.01 82.287 124.01 82.3869L124.11 82.287C124.309 82.287 124.509 82.1872 124.809 82.1872C125.707 82.0874 126.506 81.8877 127.404 81.688C128.303 81.4884 129.201 81.1889 130 80.8894C129.101 81.4884 128.203 82.0874 127.404 82.7862Z" fill="url(#paint1_linear_369_2327)"/>
</g>
<path d="M127.459 81.9321C127.769 81.8631 128.078 81.7826 128.384 81.6946C127.992 81.9786 127.61 82.2749 127.247 82.5918C126.462 83.1799 125.675 83.6714 124.787 84.165L124.639 84.247L124.66 84.4145C124.758 85.1948 124.758 86.0768 124.758 86.9792C124.758 98.482 119.802 108.895 111.97 116.138C105.825 120.694 98.1935 123.368 89.8669 123.368C83.0632 123.368 76.6975 121.529 71.1804 118.343C71.9938 118.432 72.8218 118.477 73.6938 118.477C79.5429 118.477 84.8879 116.46 89.1228 113.133L89.6746 112.699L88.973 112.686C83.8302 112.591 79.4264 109.249 77.7539 104.553C78.3554 104.632 79.0183 104.7 79.6839 104.7C80.7975 104.7 81.8217 104.599 82.8505 104.29L83.7777 104.012L82.8318 103.806C80.5884 103.319 78.6333 102.147 77.0653 100.579L77.0653 100.579L77.0613 100.576C74.8625 98.4724 73.5031 95.4297 73.4465 92.1819C74.8657 92.8853 76.3777 93.3304 78.0589 93.5172L78.9389 93.615L78.24 93.0714C76.4751 91.6987 75.009 89.8391 74.2285 87.6931C73.7376 86.3184 73.4447 84.8496 73.4447 83.3852C73.4447 82.7817 73.4453 82.1051 73.5409 81.5306C73.8136 79.9861 74.3382 78.5287 75.034 77.3144C75.8773 78.2343 76.8041 79.1536 77.8142 80.072C78.0714 80.3288 78.3525 80.5587 78.6225 80.7796L78.627 80.7833C78.9032 81.0093 79.168 81.2262 79.4073 81.4655L79.4167 81.4749L79.4271 81.4833C82.5427 83.9959 86.0585 86.0045 89.773 87.5104L89.774 87.5108C89.8792 87.5529 89.9824 87.5962 90.085 87.6392C90.4423 87.7891 90.793 87.9363 91.1978 88.0194C92.8945 88.6176 94.5982 89.1186 96.4049 89.4205L96.4095 89.4216C96.7991 89.519 97.2237 89.6252 97.6539 89.6252C97.7091 89.6252 97.7497 89.6374 97.8244 89.6623L97.8304 89.6643C97.9021 89.6882 98.0038 89.7222 98.1361 89.7249C98.529 89.7741 98.898 89.8233 99.2681 89.8726L99.2682 89.8726C99.6425 89.9225 100.018 89.9726 100.418 90.0226L100.77 90.0666L100.693 89.7203C100.494 88.8243 100.3 87.8486 100.3 86.7795C100.3 82.6718 102.353 79.0538 105.483 76.9023L105.502 76.8893L105.518 76.8731C105.68 76.711 105.84 76.6273 106.119 76.5342L106.073 76.3968H106.14H106.198L106.265 76.5134C108.131 75.433 110.185 74.75 112.529 74.75C116.051 74.75 119.179 76.2163 121.43 78.6626L121.531 78.7719L121.675 78.7359C122.072 78.6365 122.495 78.5371 122.919 78.4372L122.92 78.437C123.344 78.3373 123.769 78.2371 124.17 78.1369L124.18 78.1345L124.189 78.1315C124.409 78.0582 124.626 77.9901 124.841 77.9227C125.479 77.7225 126.097 77.5285 126.708 77.2241C127.5 76.9067 128.229 76.5281 128.937 76.1404C128.448 77.3714 127.754 78.5218 126.915 79.529C126.236 80.3047 125.459 80.9866 124.667 81.6798C124.557 81.7387 124.453 81.8166 124.368 81.881L124.359 81.8874C124.278 81.9484 124.211 81.9982 124.149 82.0352C124.136 82.0364 124.123 82.037 124.11 82.037H124.11H124.109H124.109H124.109H124.108H124.108H124.108H124.107H124.107H124.107H124.107H124.106H124.106H124.106H124.105H124.105H124.105H124.105H124.104H124.104H124.104H124.103H124.103H124.103H124.102H124.102H124.102H124.102H124.101H124.101H124.101H124.1H124.1H124.1H124.1H124.099H124.099H124.099H124.098H124.098H124.098H124.097H124.097H124.097H124.097H124.096H124.096H124.096H124.095H124.095H124.095H124.094H124.094H124.094H124.093H124.093H124.093H124.093H124.092H124.092H124.092H124.091H124.091H124.091H124.09H124.09H124.09H124.089H124.089H124.089H124.089H124.088H124.088H124.088H124.087H124.087H124.087H124.086H124.086H124.086H124.085H124.085H124.085H124.084H124.084H124.084H124.083H124.083H124.083H124.082H124.082H124.082H124.081H124.081H124.081H124.08H124.08H124.08H124.079H124.079H124.079H124.078H124.078H124.078H124.077H124.077H124.077H124.076H124.076H124.076H124.075H124.075H124.075H124.074H124.074H124.074H124.073H124.073H124.073H124.072H124.072H124.071H124.071H124.071H124.07H124.07H124.07H124.069H124.069H124.069H124.068H124.068H124.067H124.067H124.067H124.066H124.066H124.066H124.065H124.065H124.064H124.064H124.064H124.063H124.063H124.062H124.062H124.062H124.061H124.061H124.061H124.06H124.06H124.059H124.059H124.059H124.058H124.058H124.057H124.057H124.057H124.056H124.056H124.055H124.055H124.054H124.054H124.054H124.053H124.053H124.052H124.052H124.052H124.051H124.051H124.05H124.05H124.049H124.049H124.048H124.048H124.048H124.047H124.047H124.046H124.046H124.045H124.045H124.044H124.044H124.044H124.043H124.043H124.042H124.042H124.041H124.041H124.04H124.04H124.039H124.039H124.038H124.038H124.038H124.037H124.037H124.036H124.036H124.035H124.035H124.034H124.034H124.033H124.033H124.032H124.032H124.031H124.031H124.03H124.03H124.029H124.029H124.028H124.028H124.027H124.027H124.026H124.025H124.025H124.024H124.024H124.023H124.023H124.022H124.022H124.021H124.021H124.02H124.02H124.019H124.019H124.018H124.017H124.017H124.016H124.016H124.015H124.015H124.014H124.013H124.013H124.012H124.012H124.011H124.011H124.01H124.006L123.933 82.1102L123.833 82.2101L123.91 82.287L123.906 82.287L123.76 82.287V82.2871V82.2871V82.2871V82.2871V82.2872V82.2872V82.2872V82.2873V82.2873V82.2873V82.2874V82.2874V82.2875V82.2875V82.2875V82.2876V82.2876V82.2876V82.2877V82.2877V82.2878V82.2878V82.2879V82.2879V82.288V82.288V82.2881V82.2881V82.2882V82.2882V82.2882V82.2882V82.2883V82.2883V82.2883V82.2884V82.2884V82.2884V82.2885V82.2885V82.2885V82.2886V82.2886V82.2887V82.2887V82.2887V82.2888V82.2888V82.2889V82.2889V82.2889V82.289V82.289V82.2891V82.2891V82.2892V82.2892V82.2892V82.2893V82.2893V82.2894V82.2894V82.2895V82.2895V82.2896V82.2896V82.2897V82.2897V82.2898V82.2898V82.2899V82.29V82.29V82.2901V82.2901V82.2902V82.2902V82.2903V82.2904V82.2904V82.2905V82.2905V82.2906V82.2907V82.2907V82.2908V82.2909V82.2909V82.291V82.2911V82.2911V82.2912V82.2913V82.2914V82.2914V82.2915V82.2916V82.2917V82.2917V82.2918V82.2919V82.292V82.292V82.2921V82.2922V82.2923V82.2924V82.2925V82.2925V82.2926V82.2927V82.2928V82.2929V82.293V82.2931V82.2932V82.2932V82.2933V82.2934V82.2935V82.2936V82.2937V82.2938V82.2939V82.294V82.2941V82.2942V82.2943V82.2944V82.2945V82.2946V82.2947V82.2948V82.2949V82.2951V82.2952V82.2953V82.2954V82.2955V82.2956V82.2957V82.2958V82.296V82.2961V82.2962V82.2963V82.2964V82.2966V82.2967V82.2968V82.2969V82.297V82.2972V82.2973V82.2974V82.2976V82.2977V82.2978V82.298V82.2981V82.2982V82.2984V82.2985V82.2986V82.2988V82.2989V82.2991V82.2992V82.2994V82.2995V82.2996V82.2998V82.2999V82.3001V82.3002V82.3004V82.3006V82.3007V82.3009V82.301V82.3012V82.3013V82.3015V82.3017V82.3018V82.302V82.3022V82.3023V82.3025V82.3027V82.3028V82.303V82.3032V82.3033V82.3035V82.3037V82.3039V82.3041V82.3042V82.3044V82.3046V82.3048V82.305V82.3052V82.3054V82.3055V82.3057V82.3059V82.3061V82.3063V82.3065V82.3067V82.3069V82.3071V82.3073V82.3075V82.3077V82.3079V82.3081V82.3083V82.3085V82.3088V82.309V82.3092V82.3094V82.3096V82.3098V82.31V82.3103V82.3105V82.3107V82.3109V82.3112V82.3114V82.3116V82.3119V82.3121V82.3123V82.3126V82.3128V82.313V82.3133V82.3135V82.3138V82.314V82.3142V82.3145V82.3147V82.315V82.3152V82.3155V82.3157V82.316V82.3163V82.3165V82.3168V82.317V82.3173V82.3176V82.3178V82.3181V82.3184V82.3186V82.3189V82.3192V82.3195V82.3197V82.32V82.3203V82.3206V82.3209V82.3212V82.3214V82.3217V82.322V82.3223V82.3226V82.3229V82.3232V82.3235V82.3238V82.3241V82.3244V82.3247V82.325V82.3253V82.3256V82.3259V82.3262V82.3266V82.3269V82.3272V82.3275V82.3278V82.3282V82.3285V82.3288V82.3291V82.3295V82.3298V82.3301V82.3305V82.3308V82.3311V82.3315V82.3318V82.3322V82.3325V82.3329V82.3332V82.3336V82.3339V82.3343V82.3346V82.335V82.3353V82.3357V82.3361V82.3364V82.3368V82.3372V82.3375V82.3379V82.3383V82.3387V82.339V82.3394V82.3398V82.3402V82.3406V82.341V82.3413V82.3417V82.3421V82.3425V82.3429V82.3433V82.3437V82.3441V82.3445V82.3449V82.3453V82.3457V82.3462V82.3466V82.347V82.3474V82.3478V82.3482V82.3487V82.3491V82.3495V82.35V82.3504V82.3508V82.3513V82.3517V82.3521V82.3526V82.353V82.3535V82.3539V82.3544V82.3548V82.3553V82.3557V82.3562V82.3566V82.3571V82.3575V82.358V82.3585V82.359V82.3594V82.3599V82.3604V82.3608V82.3613V82.3618V82.3623V82.3628V82.3633V82.3638V82.3642V82.3647V82.3652V82.3657V82.3662V82.3667V82.3672V82.3677V82.3683V82.3688V82.3693V82.3698V82.3703V82.3708V82.3714V82.3719V82.3724V82.3729V82.3735V82.374V82.3745V82.3751V82.3756V82.3761V82.3767V82.3772V82.3778V82.3783V82.3789V82.3794V82.38V82.3806V82.3811V82.3817V82.3822V82.3828V82.3834V82.384V82.3845V82.3851V82.3857V82.3863V82.3869V82.537V82.9904L124.187 82.5636L124.213 82.537H124.269L124.309 82.5168C124.357 82.5082 124.402 82.4979 124.443 82.4887C124.454 82.4861 124.465 82.4836 124.476 82.4812C124.584 82.4571 124.687 82.4372 124.809 82.4372H124.823L124.836 82.4357C125.61 82.3497 126.313 82.1907 127.049 82.0242C127.184 81.9936 127.32 81.9628 127.459 81.9321ZM105.916 76.4778C105.895 76.4463 105.89 76.4156 105.89 76.3968H106.04C106.04 76.547 106.04 76.547 106.04 76.547L106.039 76.547L106.039 76.547L106.038 76.547L106.036 76.547L106.033 76.5469L106.026 76.5466C106.022 76.5463 106.019 76.5458 106.014 76.5452C106.007 76.544 105.994 76.5412 105.978 76.5331C105.961 76.5245 105.936 76.5077 105.916 76.4778Z" stroke="url(#paint2_linear_369_2327)" stroke-width="0.5"/>
<defs>
<filter id="filter0_bdi_369_2327" x="0" y="0" width="200" height="199.763" filterUnits="userSpaceOnUse" color-interpolation-filters="sRGB">
<feFlood flood-opacity="0" result="BackgroundImageFix"/>
<feGaussianBlur in="BackgroundImage" stdDeviation="0.5"/>
<feComposite in2="SourceAlpha" operator="in" result="effect1_backgroundBlur_369_2327"/>
<feColorMatrix in="SourceAlpha" type="matrix" values="0 0 0 0 0 0 0 0 0 0 0 0 0 0 0 0 0 0 127 0" result="hardAlpha"/>
<feOffset/>
<feGaussianBlur stdDeviation="25"/>
<feComposite in2="hardAlpha" operator="out"/>
<feColorMatrix type="matrix" values="0 0 0 0 0 0 0 0 0 0.67451 0 0 0 0 0.933333 0 0 0 0.15 0"/>
<feBlend mode="normal" in2="effect1_backgroundBlur_369_2327" result="effect2_dropShadow_369_2327"/>
<feBlend mode="normal" in="SourceGraphic" in2="effect2_dropShadow_369_2327" result="shape"/>
<feColorMatrix in="SourceAlpha" type="matrix" values="0 0 0 0 0 0 0 0 0 0 0 0 0 0 0 0 0 0 127 0" result="hardAlpha"/>
<feOffset/>
<feGaussianBlur stdDeviation="2"/>
<feComposite in2="hardAlpha" operator="arithmetic" k2="-1" k3="1"/>
<feColorMatrix type="matrix" values="0 0 0 0 1 0 0 0 0 1 0 0 0 0 1 0 0 0 0.3 0"/>
<feBlend mode="normal" in2="shape" result="effect3_innerShadow_369_2327"/>
</filter>
<filter id="filter1_i_369_2327" x="70" y="74.5" width="60" height="49.1182" filterUnits="userSpaceOnUse" color-interpolation-filters="sRGB">
<feFlood flood-opacity="0" result="BackgroundImageFix"/>
<feBlend mode="normal" in="SourceGraphic" in2="BackgroundImageFix" result="shape"/>
<feColorMatrix in="SourceAlpha" type="matrix" values="0 0 0 0 0 0 0 0 0 0 0 0 0 0 0 0 0 0 127 0" result="hardAlpha"/>
<feOffset/>
<feGaussianBlur stdDeviation="5"/>
<feComposite in2="hardAlpha" operator="arithmetic" k2="-1" k3="1"/>
<feColorMatrix type="matrix" values="0 0 0 0 1 0 0 0 0 1 0 0 0 0 1 0 0 0 0.4 0"/>
<feBlend mode="normal" in2="shape" result="effect1_innerShadow_369_2327"/>
</filter>
<linearGradient id="paint0_linear_369_2327" x1="50" y1="50" x2="50" y2="149.763" gradientUnits="userSpaceOnUse">
<stop stop-color="white" stop-opacity="0.3"/>
<stop offset="1" stop-color="white" stop-opacity="0.13"/>
</linearGradient>
<linearGradient id="paint1_linear_369_2327" x1="100" y1="74.5" x2="100" y2="123.618" gradientUnits="userSpaceOnUse">
<stop stop-color="#1DA1F3"/>
<stop offset="1" stop-color="#007DAD"/>
</linearGradient>
<linearGradient id="paint2_linear_369_2327" x1="100" y1="74.5" x2="100" y2="123.618" gradientUnits="userSpaceOnUse">
<stop stop-color="white"/>
<stop offset="1" stop-color="white" stop-opacity="0"/>
</linearGradient>
</defs>
</svg>
