<svg width="80" height="80" viewBox="0 0 80 80" fill="none" xmlns="http://www.w3.org/2000/svg">
<g filter="url(#filter0_bdi_491_4746)">
<path d="M20 26C20 22.6863 22.6863 20 26 20H54C57.3137 20 60 22.6863 60 26V54C60 57.3137 57.3137 60 54 60H26C22.6863 60 20 57.3137 20 54V26Z" fill="#47F49A" fill-opacity="0.15" shape-rendering="crispEdges"/>
<path d="M26 20.25H54C57.1756 20.25 59.75 22.8244 59.75 26V54C59.75 57.1756 57.1756 59.75 54 59.75H26C22.8244 59.75 20.25 57.1756 20.25 54V26C20.25 22.8244 22.8244 20.25 26 20.25Z" stroke="url(#paint0_linear_491_4746)" stroke-width="0.5" shape-rendering="crispEdges"/>
</g>
<g filter="url(#filter1_i_491_4746)">
<path d="M45.2284 40.806C45.5071 41.4807 45.6464 42.192 45.6464 42.94C45.6464 43.732 45.4998 44.458 45.2064 45.118C44.8104 46.0273 44.1504 46.7607 43.2264 47.318C42.3024 47.8607 41.2464 48.132 40.0584 48.132C38.8704 48.132 37.8218 47.868 36.9124 47.34C36.0031 46.7973 35.3358 46.0567 34.9104 45.118C34.7344 44.722 34.6098 44.2673 34.5364 43.754V43.666C34.5364 43.49 34.6391 43.402 34.8444 43.402H38.4524C38.6284 43.402 38.7458 43.4973 38.8044 43.688C38.8924 43.8493 38.9438 43.9447 38.9584 43.974C39.2078 44.3847 39.5598 44.59 40.0144 44.59C40.4984 44.59 40.8724 44.392 41.1364 43.996C41.3271 43.7027 41.4224 43.3507 41.4224 42.94C41.4224 42.5733 41.3418 42.258 41.1804 41.994C41.0631 41.818 40.9091 41.6787 40.7184 41.576C40.5424 41.4587 40.3444 41.4 40.1244 41.4C39.8898 41.4 39.6478 41.466 39.3984 41.598C39.1638 41.7153 38.9951 41.862 38.8924 42.038C38.8044 42.214 38.6871 42.302 38.5404 42.302H34.8664C34.7638 42.302 34.6831 42.2727 34.6244 42.214C34.5658 42.1553 34.5364 42.0747 34.5364 41.972V32.93C34.5364 32.8273 34.5658 32.7467 34.6244 32.688C34.6831 32.6293 34.7638 32.6 34.8664 32.6H44.8324C44.9351 32.6 45.0158 32.6293 45.0744 32.688C45.1331 32.7467 45.1624 32.8273 45.1624 32.93V35.812C45.1624 35.9147 45.1331 35.9953 45.0744 36.054C45.0158 36.1127 44.9351 36.142 44.8324 36.142H38.7824C38.7091 36.142 38.6724 36.1787 38.6724 36.252V38.21C38.6724 38.298 38.7164 38.32 38.8044 38.276C39.3324 37.9827 39.9558 37.836 40.6744 37.836C41.7011 37.836 42.6178 38.1073 43.4244 38.65C44.2311 39.178 44.8324 39.8967 45.2284 40.806Z" fill="url(#paint1_linear_491_4746)"/>
</g>
<path d="M45.2284 40.806L45.6907 40.6151L45.6869 40.6064L45.2284 40.806ZM45.2064 45.118L44.7495 44.9149L44.748 44.9184L45.2064 45.118ZM43.2264 47.318L43.4797 47.7492L43.4847 47.7461L43.2264 47.318ZM36.9124 47.34L36.6562 47.7694L36.6614 47.7724L36.9124 47.34ZM34.9104 45.118L34.4535 45.3211L34.455 45.3244L34.9104 45.118ZM34.5364 43.754H34.0364V43.7895L34.0415 43.8247L34.5364 43.754ZM38.8044 43.688L38.3265 43.835L38.3414 43.8832L38.3655 43.9274L38.8044 43.688ZM38.9584 43.974L38.5112 44.1976L38.5204 44.216L38.531 44.2335L38.9584 43.974ZM41.1364 43.996L41.5525 44.2734L41.5557 44.2685L41.1364 43.996ZM41.1804 41.994L41.6071 41.7333L41.6019 41.7249L41.5965 41.7167L41.1804 41.994ZM40.7184 41.576L40.4411 41.992L40.4607 42.0051L40.4814 42.0162L40.7184 41.576ZM39.3984 41.598L39.6221 42.0453L39.6324 42.0399L39.3984 41.598ZM38.8924 42.038L38.4605 41.7861L38.4524 41.8L38.4452 41.8144L38.8924 42.038ZM34.6244 42.214L34.2709 42.5676L34.6244 42.214ZM34.6244 32.688L34.2709 32.3344L34.6244 32.688ZM38.8044 38.276L39.028 38.7232L39.0378 38.7184L39.0473 38.7131L38.8044 38.276ZM43.4244 38.65L43.1453 39.0649L43.1506 39.0684L43.4244 38.65ZM44.7663 40.9969C45.0193 41.6095 45.1464 42.2558 45.1464 42.94H46.1464C46.1464 42.1282 45.9949 41.3518 45.6906 40.6151L44.7663 40.9969ZM45.1464 42.94C45.1464 43.6689 45.0118 44.3248 44.7495 44.9149L45.6633 45.3211C45.9877 44.5912 46.1464 43.7951 46.1464 42.94H45.1464ZM44.748 44.9184C44.3971 45.7242 43.8116 46.3811 42.9682 46.8899L43.4847 47.7461C44.4893 47.1402 45.2238 46.3305 45.6649 45.3176L44.748 44.9184ZM42.9732 46.8869C42.1341 47.3797 41.1673 47.632 40.0584 47.632V48.632C41.3255 48.632 42.4707 48.3417 43.4796 47.7491L42.9732 46.8869ZM40.0584 47.632C38.9469 47.632 37.9871 47.3858 37.1635 46.9076L36.6614 47.7724C37.6565 48.3502 38.7939 48.632 40.0584 48.632V47.632ZM37.1687 46.9106C36.3443 46.4187 35.7479 45.7547 35.3659 44.9116L34.455 45.3244C34.9237 46.3586 35.6619 47.176 36.6562 47.7694L37.1687 46.9106ZM35.3673 44.9149C35.2133 44.5684 35.0995 44.1596 35.0314 43.6833L34.0415 43.8247C34.1201 44.375 34.2555 44.8756 34.4535 45.3211L35.3673 44.9149ZM35.0364 43.754V43.666H34.0364V43.754H35.0364ZM35.0364 43.666C35.0364 43.6695 35.036 43.6948 35.0217 43.7317C35.0062 43.7717 34.9786 43.8135 34.9388 43.8476C34.8628 43.9128 34.8016 43.902 34.8444 43.902V42.902C34.6819 42.902 34.4668 42.9352 34.288 43.0884C34.0946 43.2542 34.0364 43.4791 34.0364 43.666H35.0364ZM34.8444 43.902H38.4524V42.902H34.8444V43.902ZM38.4524 43.902C38.4512 43.902 38.4386 43.9018 38.4189 43.8954C38.3983 43.8887 38.3765 43.8773 38.3571 43.8616C38.3179 43.8297 38.3172 43.8046 38.3265 43.835L39.2823 43.541C39.233 43.3807 39.1443 43.2127 38.9877 43.0854C38.8257 42.9538 38.6355 42.902 38.4524 42.902V43.902ZM38.3655 43.9274C38.4093 44.0078 38.4437 44.071 38.4687 44.1175C38.4812 44.1408 38.4912 44.1594 38.4987 44.1736C38.5024 44.1806 38.5054 44.1863 38.5076 44.1906C38.5087 44.1927 38.5096 44.1944 38.5102 44.1957C38.5106 44.1963 38.5108 44.1968 38.511 44.1971C38.5111 44.1974 38.5112 44.1976 38.5112 44.1976L39.4057 43.7504C39.3859 43.7109 39.3289 43.6053 39.2434 43.4486L38.3655 43.9274ZM38.531 44.2335C38.8648 44.7832 39.3734 45.09 40.0144 45.09V44.09C39.7462 44.09 39.5507 43.9861 39.3858 43.7145L38.531 44.2335ZM40.0144 45.09C40.6622 45.09 41.1939 44.8113 41.5525 44.2733L40.7204 43.7186C40.551 43.9727 40.3347 44.09 40.0144 44.09V45.09ZM41.5557 44.2685C41.8077 43.8808 41.9224 43.4303 41.9224 42.94H40.9224C40.9224 43.2711 40.8465 43.5245 40.7172 43.7235L41.5557 44.2685ZM41.9224 42.94C41.9224 42.4985 41.8246 42.0893 41.6071 41.7333L40.7538 42.2547C40.8589 42.4267 40.9224 42.6481 40.9224 42.94H41.9224ZM41.5965 41.7167C41.4326 41.4709 41.2165 41.2763 40.9555 41.1358L40.4814 42.0162C40.6017 42.081 40.6936 42.1651 40.7644 42.2714L41.5965 41.7167ZM40.9958 41.16C40.7342 40.9856 40.439 40.9 40.1244 40.9V41.9C40.2499 41.9 40.3506 41.9317 40.4411 41.992L40.9958 41.16ZM40.1244 40.9C39.7933 40.9 39.4714 40.9936 39.1645 41.1561L39.6324 42.0399C39.8241 41.9384 39.9863 41.9 40.1244 41.9V40.9ZM39.1748 41.1508C38.878 41.2992 38.6245 41.505 38.4605 41.7861L39.3243 42.2899C39.3657 42.219 39.4496 42.1315 39.622 42.0452L39.1748 41.1508ZM38.4452 41.8144C38.4246 41.8556 38.4175 41.8517 38.4384 41.836C38.4498 41.8275 38.4661 41.8181 38.4868 41.8112C38.5075 41.8043 38.5263 41.802 38.5404 41.802V42.802C38.9417 42.802 39.2007 42.5395 39.3397 42.2616L38.4452 41.8144ZM38.5404 41.802H34.8664V42.802H38.5404V41.802ZM34.8664 41.802C34.8623 41.802 34.8758 41.8014 34.8998 41.8101C34.9257 41.8195 34.9539 41.8363 34.978 41.8604L34.2709 42.5676C34.4445 42.7412 34.6645 42.802 34.8664 42.802V41.802ZM34.978 41.8604C35.0021 41.8846 35.0189 41.9127 35.0283 41.9386C35.0371 41.9626 35.0364 41.9762 35.0364 41.972H34.0364C34.0364 42.1739 34.0972 42.3939 34.2709 42.5676L34.978 41.8604ZM35.0364 41.972V32.93H34.0364V41.972H35.0364ZM35.0364 32.93C35.0364 32.9258 35.0371 32.9394 35.0283 32.9634C35.0189 32.9893 35.0021 33.0174 34.978 33.0416L34.2709 32.3344C34.0972 32.5081 34.0364 32.7281 34.0364 32.93H35.0364ZM34.978 33.0416C34.9539 33.0657 34.9257 33.0825 34.8998 33.0919C34.8758 33.1006 34.8623 33.1 34.8664 33.1V32.1C34.6645 32.1 34.4445 32.1608 34.2709 32.3344L34.978 33.0416ZM34.8664 33.1H44.8324V32.1H34.8664V33.1ZM44.8324 33.1C44.8366 33.1 44.8231 33.1006 44.7991 33.0919C44.7732 33.0825 44.745 33.0657 44.7209 33.0416L45.428 32.3344C45.2543 32.1608 45.0343 32.1 44.8324 32.1V33.1ZM44.7209 33.0416C44.6968 33.0174 44.68 32.9893 44.6705 32.9634C44.6618 32.9394 44.6624 32.9258 44.6624 32.93H45.6624C45.6624 32.7281 45.6016 32.5081 45.428 32.3344L44.7209 33.0416ZM44.6624 32.93V35.812H45.6624V32.93H44.6624ZM44.6624 35.812C44.6624 35.8162 44.6618 35.8026 44.6705 35.7786C44.68 35.7527 44.6968 35.7246 44.7209 35.7004L45.428 36.4076C45.6016 36.2339 45.6624 36.0139 45.6624 35.812H44.6624ZM44.7209 35.7004C44.745 35.6763 44.7732 35.6595 44.7991 35.6501C44.8231 35.6414 44.8366 35.642 44.8324 35.642V36.642C45.0343 36.642 45.2543 36.5812 45.428 36.4076L44.7209 35.7004ZM44.8324 35.642H38.7824V36.642H44.8324V35.642ZM38.7824 35.642C38.6687 35.642 38.4916 35.6708 38.3464 35.8159C38.2012 35.9611 38.1724 36.1383 38.1724 36.252H39.1724C39.1724 36.2924 39.162 36.4145 39.0535 36.5231C38.945 36.6316 38.8228 36.642 38.7824 36.642V35.642ZM38.1724 36.252V38.21H39.1724V36.252H38.1724ZM38.1724 38.21C38.1724 38.2895 38.1867 38.5921 38.4818 38.7397C38.6161 38.8068 38.745 38.8038 38.8289 38.7898C38.9118 38.776 38.9804 38.7471 39.028 38.7232L38.5808 37.8288C38.5845 37.8269 38.6146 37.8117 38.6645 37.8034C38.7153 37.795 38.8168 37.7892 38.929 37.8453C39.049 37.9053 39.1147 38.0024 39.1449 38.0779C39.1716 38.1446 39.1724 38.1964 39.1724 38.21H38.1724ZM39.0473 38.7131C39.488 38.4682 40.0246 38.336 40.6744 38.336V37.336C39.8869 37.336 39.1768 37.4971 38.5616 37.8389L39.0473 38.7131ZM40.6744 38.336C41.6076 38.336 42.4259 38.5809 43.1453 39.0649L43.7035 38.2351C42.8096 37.6338 41.7947 37.336 40.6744 37.336V38.336ZM43.1506 39.0684C43.8733 39.5414 44.4117 40.1829 44.77 41.0056L45.6869 40.6064C45.2531 39.6104 44.5889 38.8146 43.6983 38.2316L43.1506 39.0684Z" fill="url(#paint2_linear_491_4746)"/>
<defs>
<filter id="filter0_bdi_491_4746" x="0" y="0" width="80" height="80" filterUnits="userSpaceOnUse" color-interpolation-filters="sRGB">
<feFlood flood-opacity="0" result="BackgroundImageFix"/>
<feGaussianBlur in="BackgroundImage" stdDeviation="2.71828"/>
<feComposite in2="SourceAlpha" operator="in" result="effect1_backgroundBlur_491_4746"/>
<feColorMatrix in="SourceAlpha" type="matrix" values="0 0 0 0 0 0 0 0 0 0 0 0 0 0 0 0 0 0 127 0" result="hardAlpha"/>
<feOffset/>
<feGaussianBlur stdDeviation="10"/>
<feComposite in2="hardAlpha" operator="out"/>
<feColorMatrix type="matrix" values="0 0 0 0 0 0 0 0 0 1 0 0 0 0 0.815686 0 0 0 0.15 0"/>
<feBlend mode="normal" in2="effect1_backgroundBlur_491_4746" result="effect2_dropShadow_491_4746"/>
<feBlend mode="normal" in="SourceGraphic" in2="effect2_dropShadow_491_4746" result="shape"/>
<feColorMatrix in="SourceAlpha" type="matrix" values="0 0 0 0 0 0 0 0 0 0 0 0 0 0 0 0 0 0 127 0" result="hardAlpha"/>
<feOffset/>
<feGaussianBlur stdDeviation="2"/>
<feComposite in2="hardAlpha" operator="arithmetic" k2="-1" k3="1"/>
<feColorMatrix type="matrix" values="0 0 0 0 1 0 0 0 0 1 0 0 0 0 1 0 0 0 0.3 0"/>
<feBlend mode="normal" in2="shape" result="effect3_innerShadow_491_4746"/>
</filter>
<filter id="filter1_i_491_4746" x="34.5371" y="32.6001" width="11.1094" height="15.5317" filterUnits="userSpaceOnUse" color-interpolation-filters="sRGB">
<feFlood flood-opacity="0" result="BackgroundImageFix"/>
<feBlend mode="normal" in="SourceGraphic" in2="BackgroundImageFix" result="shape"/>
<feColorMatrix in="SourceAlpha" type="matrix" values="0 0 0 0 0 0 0 0 0 0 0 0 0 0 0 0 0 0 127 0" result="hardAlpha"/>
<feOffset/>
<feGaussianBlur stdDeviation="5"/>
<feComposite in2="hardAlpha" operator="arithmetic" k2="-1" k3="1"/>
<feColorMatrix type="matrix" values="0 0 0 0 1 0 0 0 0 1 0 0 0 0 1 0 0 0 0.4 0"/>
<feBlend mode="normal" in2="shape" result="effect1_innerShadow_491_4746"/>
</filter>
<linearGradient id="paint0_linear_491_4746" x1="20" y1="18.5714" x2="20" y2="58.5714" gradientUnits="userSpaceOnUse">
<stop stop-color="white" stop-opacity="0.3"/>
<stop offset="1" stop-color="white" stop-opacity="0.13"/>
</linearGradient>
<linearGradient id="paint1_linear_491_4746" x1="29.0965" y1="26" x2="29.0965" y2="53.7545" gradientUnits="userSpaceOnUse">
<stop stop-color="#00FFD0"/>
<stop offset="1" stop-color="#0B9D71"/>
</linearGradient>
<linearGradient id="paint2_linear_491_4746" x1="29" y1="26" x2="29" y2="54" gradientUnits="userSpaceOnUse">
<stop stop-color="white" stop-opacity="0.4"/>
<stop offset="1" stop-color="white" stop-opacity="0.01"/>
</linearGradient>
</defs>
</svg>
