<svg width="80" height="80" viewBox="0 0 80 80" fill="none" xmlns="http://www.w3.org/2000/svg">
<g filter="url(#filter0_bdi_491_4719)">
<rect x="20" y="20" width="40" height="40" rx="6" fill="#47F49A" fill-opacity="0.15" shape-rendering="crispEdges"/>
<rect x="20.25" y="20.25" width="39.5" height="39.5" rx="5.75" stroke="url(#paint0_linear_491_4719)" stroke-width="0.5" shape-rendering="crispEdges"/>
</g>
<g filter="url(#filter1_i_491_4719)">
<path d="M38.9171 32.688C39.0344 32.6293 39.1738 32.6 39.3351 32.6H42.9211C43.0238 32.6 43.1044 32.6293 43.1631 32.688C43.2218 32.7467 43.2511 32.8273 43.2511 32.93V47.67C43.2511 47.7727 43.2218 47.8533 43.1631 47.912C43.1044 47.9707 43.0238 48 42.9211 48H39.4451C39.3424 48 39.2618 47.9707 39.2031 47.912C39.1444 47.8533 39.1151 47.7727 39.1151 47.67V36.472C39.1151 36.4427 39.1004 36.4133 39.0711 36.384C39.0564 36.3547 39.0344 36.3473 39.0051 36.362L36.9151 36.78H36.8271C36.6511 36.78 36.5631 36.6773 36.5631 36.472V33.942C36.5631 33.7367 36.6511 33.6047 36.8271 33.546L38.9171 32.688Z" fill="url(#paint1_linear_491_4719)"/>
</g>
<path d="M38.9171 32.688L39.107 33.1505L39.1241 33.1435L39.1407 33.1352L38.9171 32.688ZM43.1631 32.688L43.5167 32.3344L43.5167 32.3344L43.1631 32.688ZM43.1631 47.912L43.5167 48.2656L43.5167 48.2656L43.1631 47.912ZM39.2031 47.912L38.8495 48.2656L38.8495 48.2656L39.2031 47.912ZM39.0711 36.384L38.6239 36.6076L38.6602 36.6802L38.7176 36.7376L39.0711 36.384ZM39.0051 36.362L39.1032 36.8523L39.1688 36.8392L39.2287 36.8092L39.0051 36.362ZM36.9151 36.78V37.28H36.9646L37.0132 37.2703L36.9151 36.78ZM36.8271 33.546L36.9852 34.0203L37.0013 34.015L37.017 34.0085L36.8271 33.546ZM39.1407 33.1352C39.1745 33.1183 39.2339 33.1 39.3351 33.1V32.1C39.1137 32.1 38.8944 32.1403 38.6935 32.2408L39.1407 33.1352ZM39.3351 33.1H42.9211V32.1H39.3351V33.1ZM42.9211 33.1C42.9253 33.1 42.9117 33.1006 42.8877 33.0919C42.8618 33.0825 42.8337 33.0657 42.8095 33.0416L43.5167 32.3344C43.343 32.1608 43.123 32.1 42.9211 32.1V33.1ZM42.8095 33.0416C42.7854 33.0174 42.7686 32.9893 42.7592 32.9634C42.7505 32.9394 42.7511 32.9258 42.7511 32.93H43.7511C43.7511 32.7281 43.6903 32.5081 43.5167 32.3344L42.8095 33.0416ZM42.7511 32.93V47.67H43.7511V32.93H42.7511ZM42.7511 47.67C42.7511 47.6742 42.7505 47.6606 42.7592 47.6366C42.7686 47.6107 42.7854 47.5826 42.8095 47.5584L43.5167 48.2656C43.6903 48.0919 43.7511 47.8719 43.7511 47.67H42.7511ZM42.8095 47.5584C42.8337 47.5343 42.8618 47.5175 42.8877 47.5081C42.9117 47.4994 42.9253 47.5 42.9211 47.5V48.5C43.123 48.5 43.343 48.4392 43.5167 48.2656L42.8095 47.5584ZM42.9211 47.5H39.4451V48.5H42.9211V47.5ZM39.4451 47.5C39.4409 47.5 39.4545 47.4994 39.4785 47.5081C39.5044 47.5175 39.5325 47.5343 39.5567 47.5584L38.8495 48.2656C39.0232 48.4392 39.2432 48.5 39.4451 48.5V47.5ZM39.5567 47.5584C39.5808 47.5826 39.5976 47.6107 39.607 47.6366C39.6157 47.6606 39.6151 47.6742 39.6151 47.67H38.6151C38.6151 47.8719 38.6759 48.0919 38.8495 48.2656L39.5567 47.5584ZM39.6151 47.67V36.472H38.6151V47.67H39.6151ZM39.6151 36.472C39.6151 36.2633 39.5085 36.1143 39.4247 36.0304L38.7176 36.7376C38.6924 36.7124 38.6151 36.622 38.6151 36.472H39.6151ZM39.5183 36.1604C39.4765 36.0768 39.3829 35.9426 39.2017 35.8822C39.0205 35.8218 38.8651 35.873 38.7815 35.9148L39.2287 36.8092C39.1744 36.8363 39.0447 36.8839 38.8855 36.8308C38.7263 36.7778 38.651 36.6619 38.6239 36.6076L39.5183 36.1604ZM38.907 35.8717L36.817 36.2897L37.0132 37.2703L39.1032 36.8523L38.907 35.8717ZM36.9151 36.28H36.8271V37.28H36.9151V36.28ZM36.8271 36.28C36.8306 36.28 36.8559 36.2804 36.8928 36.2947C36.9328 36.3103 36.9746 36.3378 37.0087 36.3776C37.0739 36.4537 37.0631 36.5148 37.0631 36.472H36.0631C36.0631 36.6345 36.0963 36.8497 36.2495 37.0284C36.4153 37.2219 36.6402 37.28 36.8271 37.28V36.28ZM37.0631 36.472V33.942H36.0631V36.472H37.0631ZM37.0631 33.942C37.0631 33.9093 37.0699 33.9292 37.0451 33.9663C37.0331 33.9843 37.0185 33.9989 37.0043 34.0091C36.991 34.0188 36.9827 34.0212 36.9852 34.0203L36.669 33.0717C36.4941 33.1299 36.3288 33.238 36.2131 33.4116C36.1003 33.5808 36.0631 33.7694 36.0631 33.942H37.0631ZM37.017 34.0085L39.107 33.1505L38.7272 32.2255L36.6372 33.0835L37.017 34.0085Z" fill="url(#paint2_linear_491_4719)"/>
<defs>
<filter id="filter0_bdi_491_4719" x="0" y="0" width="80" height="80" filterUnits="userSpaceOnUse" color-interpolation-filters="sRGB">
<feFlood flood-opacity="0" result="BackgroundImageFix"/>
<feGaussianBlur in="BackgroundImage" stdDeviation="2.71828"/>
<feComposite in2="SourceAlpha" operator="in" result="effect1_backgroundBlur_491_4719"/>
<feColorMatrix in="SourceAlpha" type="matrix" values="0 0 0 0 0 0 0 0 0 0 0 0 0 0 0 0 0 0 127 0" result="hardAlpha"/>
<feOffset/>
<feGaussianBlur stdDeviation="10"/>
<feComposite in2="hardAlpha" operator="out"/>
<feColorMatrix type="matrix" values="0 0 0 0 0 0 0 0 0 1 0 0 0 0 0.815686 0 0 0 0.15 0"/>
<feBlend mode="normal" in2="effect1_backgroundBlur_491_4719" result="effect2_dropShadow_491_4719"/>
<feBlend mode="normal" in="SourceGraphic" in2="effect2_dropShadow_491_4719" result="shape"/>
<feColorMatrix in="SourceAlpha" type="matrix" values="0 0 0 0 0 0 0 0 0 0 0 0 0 0 0 0 0 0 127 0" result="hardAlpha"/>
<feOffset/>
<feGaussianBlur stdDeviation="2"/>
<feComposite in2="hardAlpha" operator="arithmetic" k2="-1" k3="1"/>
<feColorMatrix type="matrix" values="0 0 0 0 1 0 0 0 0 1 0 0 0 0 1 0 0 0 0.3 0"/>
<feBlend mode="normal" in2="shape" result="effect3_innerShadow_491_4719"/>
</filter>
<filter id="filter1_i_491_4719" x="36.5625" y="32.6001" width="6.68945" height="15.3999" filterUnits="userSpaceOnUse" color-interpolation-filters="sRGB">
<feFlood flood-opacity="0" result="BackgroundImageFix"/>
<feBlend mode="normal" in="SourceGraphic" in2="BackgroundImageFix" result="shape"/>
<feColorMatrix in="SourceAlpha" type="matrix" values="0 0 0 0 0 0 0 0 0 0 0 0 0 0 0 0 0 0 127 0" result="hardAlpha"/>
<feOffset/>
<feGaussianBlur stdDeviation="5"/>
<feComposite in2="hardAlpha" operator="arithmetic" k2="-1" k3="1"/>
<feColorMatrix type="matrix" values="0 0 0 0 1 0 0 0 0 1 0 0 0 0 1 0 0 0 0.4 0"/>
<feBlend mode="normal" in2="shape" result="effect1_innerShadow_491_4719"/>
</filter>
<linearGradient id="paint0_linear_491_4719" x1="20" y1="18.5714" x2="20" y2="58.5714" gradientUnits="userSpaceOnUse">
<stop stop-color="white" stop-opacity="0.3"/>
<stop offset="1" stop-color="white" stop-opacity="0.13"/>
</linearGradient>
<linearGradient id="paint1_linear_491_4719" x1="29.0965" y1="26" x2="29.0965" y2="53.7545" gradientUnits="userSpaceOnUse">
<stop stop-color="#00FFD0"/>
<stop offset="1" stop-color="#0B9D71"/>
</linearGradient>
<linearGradient id="paint2_linear_491_4719" x1="29" y1="26" x2="29" y2="54" gradientUnits="userSpaceOnUse">
<stop stop-color="white" stop-opacity="0.4"/>
<stop offset="1" stop-color="white" stop-opacity="0.01"/>
</linearGradient>
</defs>
</svg>
