<svg width="80" height="80" viewBox="0 0 80 80" fill="none" xmlns="http://www.w3.org/2000/svg">
<g filter="url(#filter0_bdi_491_4739)">
<rect x="20" y="20" width="40" height="40" rx="6" fill="#47F49A" fill-opacity="0.15" shape-rendering="crispEdges"/>
<rect x="20.25" y="20.25" width="39.5" height="39.5" rx="5.75" stroke="url(#paint0_linear_491_4739)" stroke-width="0.5" shape-rendering="crispEdges"/>
</g>
<g filter="url(#filter1_i_491_4739)">
<path d="M45.8891 40.586C45.9918 40.586 46.0725 40.6153 46.1311 40.674C46.1898 40.7327 46.2191 40.8133 46.2191 40.916V43.908C46.2191 44.0107 46.1898 44.0913 46.1311 44.15C46.0725 44.2087 45.9918 44.238 45.8891 44.238H44.9871C44.9138 44.238 44.8771 44.2747 44.8771 44.348V47.67C44.8771 47.7727 44.8478 47.8533 44.7891 47.912C44.7305 47.9707 44.6498 48 44.5471 48H41.0711C40.9685 48 40.8878 47.9707 40.8291 47.912C40.7705 47.8533 40.7411 47.7727 40.7411 47.67V44.348C40.7411 44.2747 40.7045 44.238 40.6311 44.238H33.7671C33.6645 44.238 33.5838 44.2087 33.5251 44.15C33.4665 44.0913 33.4371 44.0107 33.4371 43.908V41.576C33.4371 41.4293 33.4665 41.29 33.5251 41.158L37.1111 32.842C37.1698 32.6807 37.2945 32.6 37.4851 32.6H41.2031C41.3205 32.6 41.4011 32.6367 41.4451 32.71C41.4891 32.7833 41.4891 32.8787 41.4451 32.996L38.2551 40.454C38.2405 40.4833 38.2405 40.5127 38.2551 40.542C38.2698 40.5713 38.2918 40.586 38.3211 40.586H40.6311C40.7045 40.586 40.7411 40.5493 40.7411 40.476V38.298C40.7411 38.1953 40.7705 38.1147 40.8291 38.056C40.8878 37.9973 40.9685 37.968 41.0711 37.968H44.5471C44.6498 37.968 44.7305 37.9973 44.7891 38.056C44.8478 38.1147 44.8771 38.1953 44.8771 38.298V40.476C44.8771 40.5493 44.9138 40.586 44.9871 40.586H45.8891Z" fill="url(#paint1_linear_491_4739)"/>
</g>
<path d="M46.1311 40.674L45.7776 41.0276L45.7776 41.0276L46.1311 40.674ZM46.1311 44.15L45.7776 43.7964L46.1311 44.15ZM40.8291 47.912L40.4756 48.2656L40.8291 47.912ZM33.5251 44.15L33.8787 43.7964H33.8787L33.5251 44.15ZM33.5251 41.158L33.9821 41.3611L33.9843 41.356L33.5251 41.158ZM37.1111 32.842L37.5703 33.04L37.576 33.0266L37.581 33.0129L37.1111 32.842ZM41.4451 32.71L41.0164 32.9672L41.0164 32.9672L41.4451 32.71ZM41.4451 32.996L41.9048 33.1926L41.9093 33.1822L41.9133 33.1716L41.4451 32.996ZM38.2551 40.454L38.7023 40.6776L38.709 40.6643L38.7148 40.6506L38.2551 40.454ZM45.8891 41.086C45.8933 41.086 45.8797 41.0866 45.8558 41.0779C45.8299 41.0685 45.8017 41.0517 45.7776 41.0276L46.4847 40.3204C46.311 40.1468 46.091 40.086 45.8891 40.086V41.086ZM45.7776 41.0276C45.7534 41.0034 45.7366 40.9753 45.7272 40.9494C45.7185 40.9254 45.7191 40.9118 45.7191 40.916H46.7191C46.7191 40.7141 46.6583 40.4941 46.4847 40.3204L45.7776 41.0276ZM45.7191 40.916V43.908H46.7191V40.916H45.7191ZM45.7191 43.908C45.7191 43.9122 45.7185 43.8986 45.7272 43.8746C45.7366 43.8487 45.7534 43.8206 45.7776 43.7964L46.4847 44.5036C46.6583 44.3299 46.7191 44.1099 46.7191 43.908H45.7191ZM45.7776 43.7964C45.8017 43.7723 45.8299 43.7555 45.8558 43.7461C45.8797 43.7374 45.8933 43.738 45.8891 43.738V44.738C46.091 44.738 46.311 44.6772 46.4847 44.5036L45.7776 43.7964ZM45.8891 43.738H44.9871V44.738H45.8891V43.738ZM44.9871 43.738C44.8734 43.738 44.6962 43.7668 44.5511 43.9119C44.4059 44.0571 44.3771 44.2343 44.3771 44.348H45.3771C45.3771 44.3884 45.3667 44.5105 45.2582 44.6191C45.1497 44.7276 45.0275 44.738 44.9871 44.738V43.738ZM44.3771 44.348V47.67H45.3771V44.348H44.3771ZM44.3771 47.67C44.3771 47.6742 44.3765 47.6606 44.3852 47.6366C44.3946 47.6107 44.4114 47.5826 44.4356 47.5584L45.1427 48.2656C45.3163 48.0919 45.3771 47.8719 45.3771 47.67H44.3771ZM44.4356 47.5584C44.4597 47.5343 44.4879 47.5175 44.5138 47.5081C44.5377 47.4994 44.5513 47.5 44.5471 47.5V48.5C44.749 48.5 44.969 48.4392 45.1427 48.2656L44.4356 47.5584ZM44.5471 47.5H41.0711V48.5H44.5471V47.5ZM41.0711 47.5C41.0669 47.5 41.0805 47.4994 41.1045 47.5081C41.1304 47.5175 41.1585 47.5343 41.1827 47.5584L40.4756 48.2656C40.6492 48.4392 40.8692 48.5 41.0711 48.5V47.5ZM41.1827 47.5584C41.2068 47.5826 41.2236 47.6107 41.233 47.6366C41.2417 47.6606 41.2411 47.6742 41.2411 47.67H40.2411C40.2411 47.8719 40.3019 48.0919 40.4756 48.2656L41.1827 47.5584ZM41.2411 47.67V44.348H40.2411V47.67H41.2411ZM41.2411 44.348C41.2411 44.2343 41.2124 44.0571 41.0672 43.9119C40.922 43.7668 40.7449 43.738 40.6311 43.738V44.738C40.5907 44.738 40.4686 44.7276 40.3601 44.6191C40.2516 44.5105 40.2411 44.3884 40.2411 44.348H41.2411ZM40.6311 43.738H33.7671V44.738H40.6311V43.738ZM33.7671 43.738C33.7629 43.738 33.7765 43.7374 33.8005 43.7461C33.8264 43.7555 33.8545 43.7723 33.8787 43.7964L33.1716 44.5036C33.3452 44.6772 33.5652 44.738 33.7671 44.738V43.738ZM33.8787 43.7964C33.9028 43.8206 33.9196 43.8487 33.929 43.8746C33.9377 43.8986 33.9371 43.9122 33.9371 43.908H32.9371C32.9371 44.1099 32.9979 44.3299 33.1716 44.5036L33.8787 43.7964ZM33.9371 43.908V41.576H32.9371V43.908H33.9371ZM33.9371 41.576C33.9371 41.4982 33.9522 41.4281 33.982 41.3611L33.0682 40.9549C32.9807 41.1519 32.9371 41.3605 32.9371 41.576H33.9371ZM33.9843 41.356L37.5703 33.04L36.652 32.644L33.066 40.96L33.9843 41.356ZM37.581 33.0129C37.5808 33.0135 37.577 33.0236 37.566 33.0381C37.5546 33.0531 37.539 33.0681 37.5203 33.0803C37.4816 33.1053 37.4591 33.1 37.4851 33.1V32.1C37.3205 32.1 37.1403 32.135 36.977 32.2407C36.8094 32.3492 36.7017 32.5048 36.6412 32.6711L37.581 33.0129ZM37.4851 33.1H41.2031V32.1H37.4851V33.1ZM41.2031 33.1C41.2125 33.1 41.1868 33.1018 41.1447 33.0827C41.0963 33.0607 41.0485 33.0208 41.0164 32.9672L41.8739 32.4528C41.7074 32.1753 41.423 32.1 41.2031 32.1V33.1ZM41.0164 32.9672C40.9866 32.9175 40.9781 32.8688 40.9781 32.8365C40.9781 32.8087 40.9842 32.8012 40.977 32.8204L41.9133 33.1716C41.985 32.9803 42.0276 32.709 41.8739 32.4527L41.0164 32.9672ZM40.9854 32.7994L37.7954 40.2574L38.7148 40.6506L41.9048 33.1926L40.9854 32.7994ZM37.8079 40.2304C37.7229 40.4005 37.7229 40.5955 37.8079 40.7656L38.7023 40.3184C38.7256 40.3649 38.7441 40.4263 38.7441 40.498C38.7441 40.5697 38.7256 40.6311 38.7023 40.6776L37.8079 40.2304ZM37.8079 40.7656C37.8449 40.8396 37.9064 40.9251 38.0053 40.991C38.1073 41.059 38.219 41.086 38.3211 41.086V40.086C38.394 40.086 38.48 40.1056 38.56 40.159C38.6368 40.2102 38.68 40.2737 38.7023 40.3184L37.8079 40.7656ZM38.3211 41.086H40.6311V40.086H38.3211V41.086ZM40.6311 41.086C40.7449 41.086 40.922 41.0572 41.0672 40.9121C41.2124 40.7669 41.2411 40.5897 41.2411 40.476H40.2411C40.2411 40.4356 40.2516 40.3135 40.3601 40.2049C40.4686 40.0964 40.5907 40.086 40.6311 40.086V41.086ZM41.2411 40.476V38.298H40.2411V40.476H41.2411ZM41.2411 38.298C41.2411 38.2938 41.2417 38.3074 41.233 38.3314C41.2236 38.3573 41.2068 38.3854 41.1827 38.4096L40.4756 37.7024C40.3019 37.8761 40.2411 38.0961 40.2411 38.298H41.2411ZM41.1827 38.4096C41.1585 38.4337 41.1304 38.4505 41.1045 38.4599C41.0805 38.4686 41.0669 38.468 41.0711 38.468V37.468C40.8692 37.468 40.6492 37.5288 40.4756 37.7024L41.1827 38.4096ZM41.0711 38.468H44.5471V37.468H41.0711V38.468ZM44.5471 38.468C44.5513 38.468 44.5377 38.4686 44.5138 38.4599C44.4879 38.4505 44.4597 38.4337 44.4356 38.4096L45.1427 37.7024C44.969 37.5288 44.749 37.468 44.5471 37.468V38.468ZM44.4356 38.4096C44.4114 38.3854 44.3946 38.3573 44.3852 38.3314C44.3765 38.3074 44.3771 38.2938 44.3771 38.298H45.3771C45.3771 38.0961 45.3163 37.8761 45.1427 37.7024L44.4356 38.4096ZM44.3771 38.298V40.476H45.3771V38.298H44.3771ZM44.3771 40.476C44.3771 40.5897 44.4059 40.7669 44.5511 40.9121C44.6962 41.0572 44.8734 41.086 44.9871 41.086V40.086C45.0275 40.086 45.1497 40.0964 45.2582 40.2049C45.3667 40.3135 45.3771 40.4356 45.3771 40.476H44.3771ZM44.9871 41.086H45.8891V40.086H44.9871V41.086Z" fill="url(#paint2_linear_491_4739)"/>
<defs>
<filter id="filter0_bdi_491_4739" x="0" y="0" width="80" height="80" filterUnits="userSpaceOnUse" color-interpolation-filters="sRGB">
<feFlood flood-opacity="0" result="BackgroundImageFix"/>
<feGaussianBlur in="BackgroundImage" stdDeviation="2.71828"/>
<feComposite in2="SourceAlpha" operator="in" result="effect1_backgroundBlur_491_4739"/>
<feColorMatrix in="SourceAlpha" type="matrix" values="0 0 0 0 0 0 0 0 0 0 0 0 0 0 0 0 0 0 127 0" result="hardAlpha"/>
<feOffset/>
<feGaussianBlur stdDeviation="10"/>
<feComposite in2="hardAlpha" operator="out"/>
<feColorMatrix type="matrix" values="0 0 0 0 0 0 0 0 0 1 0 0 0 0 0.815686 0 0 0 0.15 0"/>
<feBlend mode="normal" in2="effect1_backgroundBlur_491_4739" result="effect2_dropShadow_491_4739"/>
<feBlend mode="normal" in="SourceGraphic" in2="effect2_dropShadow_491_4739" result="shape"/>
<feColorMatrix in="SourceAlpha" type="matrix" values="0 0 0 0 0 0 0 0 0 0 0 0 0 0 0 0 0 0 127 0" result="hardAlpha"/>
<feOffset/>
<feGaussianBlur stdDeviation="2"/>
<feComposite in2="hardAlpha" operator="arithmetic" k2="-1" k3="1"/>
<feColorMatrix type="matrix" values="0 0 0 0 1 0 0 0 0 1 0 0 0 0 1 0 0 0 0.3 0"/>
<feBlend mode="normal" in2="shape" result="effect3_innerShadow_491_4739"/>
</filter>
<filter id="filter1_i_491_4739" x="33.4375" y="32.6001" width="12.7812" height="15.3999" filterUnits="userSpaceOnUse" color-interpolation-filters="sRGB">
<feFlood flood-opacity="0" result="BackgroundImageFix"/>
<feBlend mode="normal" in="SourceGraphic" in2="BackgroundImageFix" result="shape"/>
<feColorMatrix in="SourceAlpha" type="matrix" values="0 0 0 0 0 0 0 0 0 0 0 0 0 0 0 0 0 0 127 0" result="hardAlpha"/>
<feOffset/>
<feGaussianBlur stdDeviation="5"/>
<feComposite in2="hardAlpha" operator="arithmetic" k2="-1" k3="1"/>
<feColorMatrix type="matrix" values="0 0 0 0 1 0 0 0 0 1 0 0 0 0 1 0 0 0 0.4 0"/>
<feBlend mode="normal" in2="shape" result="effect1_innerShadow_491_4739"/>
</filter>
<linearGradient id="paint0_linear_491_4739" x1="20" y1="18.5714" x2="20" y2="58.5714" gradientUnits="userSpaceOnUse">
<stop stop-color="white" stop-opacity="0.3"/>
<stop offset="1" stop-color="white" stop-opacity="0.13"/>
</linearGradient>
<linearGradient id="paint1_linear_491_4739" x1="29.0965" y1="26" x2="29.0965" y2="53.7545" gradientUnits="userSpaceOnUse">
<stop stop-color="#00FFD0"/>
<stop offset="1" stop-color="#0B9D71"/>
</linearGradient>
<linearGradient id="paint2_linear_491_4739" x1="29" y1="26" x2="29" y2="54" gradientUnits="userSpaceOnUse">
<stop stop-color="white" stop-opacity="0.4"/>
<stop offset="1" stop-color="white" stop-opacity="0.01"/>
</linearGradient>
</defs>
</svg>
