<svg width="1605" height="134" viewBox="0 0 1605 134" fill="none" xmlns="http://www.w3.org/2000/svg">
<path d="M14 94.0783H54.9355C60.4585 94.0783 102.436 94.0783 111 94.0783V34.025C111 19.2581 126.454 9.58333 139.737 16.0344L279.75 84.0316C293.364 90.6433 308.301 94.0786 323.435 94.0786L633.935 94.0788V34.699C633.935 20.5283 648.265 10.8523 661.409 16.1482L854.826 94.0788H1157.44V34.6388C1157.44 19.7231 1173.17 10.0559 1186.48 16.7997L1317.62 83.2743C1331.64 90.3773 1347.13 94.0788 1362.84 94.0788H1568.44" stroke="url(#paint0_linear_711_1589)" stroke-width="27" stroke-linecap="round"/>
<path d="M1575.7 59.2002C1571.9 55.1908 1565.57 55.0198 1561.56 58.8181C1557.55 62.6164 1557.38 68.9457 1561.18 72.9551L1575.7 59.2002ZM1561.18 116.2C1557.38 120.209 1557.55 126.539 1561.56 130.337C1565.57 134.135 1571.9 133.964 1575.7 129.955L1561.18 116.2ZM1561.18 72.9551L1586.88 100.079L1601.4 86.3247L1575.7 59.2002L1561.18 72.9551ZM1586.88 89.0757L1561.18 116.2L1575.7 129.955L1601.4 102.83L1586.88 89.0757ZM1586.88 100.079C1583.95 96.994 1583.95 92.1612 1586.88 89.0757L1601.4 102.83C1605.78 98.2022 1605.78 90.953 1601.4 86.3247L1586.88 100.079Z" fill="#F14CCA"/>
<defs>
<linearGradient id="paint0_linear_711_1589" x1="17.4355" y1="9.80186" x2="1280.96" y2="9.79775" gradientUnits="userSpaceOnUse">
<stop stop-color="#15152E"/>
<stop offset="0.0711337" stop-color="#8D4FFA"/>
<stop offset="0.895833" stop-color="#9100FF"/>
<stop offset="1" stop-color="#F14CCA"/>
</linearGradient>
</defs>
</svg>
