<svg width="47" height="1022" viewBox="0 0 47 1022" fill="none" xmlns="http://www.w3.org/2000/svg">
<path d="M23.8027 14L23.8028 998" stroke="url(#paint0_linear_665_2607)" stroke-width="27" stroke-linecap="round"/>
<path d="M45.094 992.262C47.5413 988.462 47.6457 982.132 45.3272 978.122C43.0088 974.112 39.1454 973.942 36.6981 977.742L45.094 992.262ZM10.3016 977.742C7.85454 973.942 3.99074 974.112 1.67247 978.122C-0.645806 982.132 -0.541426 988.462 1.90564 992.262L10.3016 977.742ZM36.6981 977.742L20.1418 1003.44L28.5374 1017.96L45.094 992.262L36.6981 977.742ZM26.8582 1003.44L10.3016 977.742L1.90564 992.262L18.4626 1017.96L26.8582 1003.44ZM20.1418 1003.44C22.0249 1000.51 24.9748 1000.51 26.8582 1003.44L18.4626 1017.96C21.2874 1022.34 25.7123 1022.34 28.5374 1017.96L20.1418 1003.44Z" fill="#F14CCA"/>
<defs>
<linearGradient id="paint0_linear_665_2607" x1="1.26938" y1="14.3405" x2="-50.6292" y2="994.399" gradientUnits="userSpaceOnUse">
<stop stop-color="#15152E"/>
<stop offset="0.0711337" stop-color="#8D4FFA"/>
<stop offset="0.895833" stop-color="#9100FF"/>
<stop offset="1" stop-color="#F14CCA"/>
</linearGradient>
</defs>
</svg>
