<svg width="113" height="118" viewBox="0 0 113 118" fill="none" xmlns="http://www.w3.org/2000/svg">
<mask id="path-1-inside-1_690_1574" fill="white">
<path d="M79.3638 49.8638L77.1596 49.4516C76.9532 49.4145 76.7601 49.324 76.5997 49.1891C76.4393 49.0543 76.3172 48.8798 76.2456 48.683C76.1451 48.3985 76.0296 48.1194 75.8995 47.847C75.8111 47.6575 75.774 47.4482 75.7919 47.24C75.8098 47.0318 75.8821 46.8318 76.0016 46.6602L77.2673 44.8143C77.3699 44.6646 77.4169 44.4838 77.4001 44.3031C77.3832 44.1225 77.3037 43.9534 77.1751 43.8251L75.8301 42.4833C75.7015 42.355 75.532 42.2756 75.351 42.2588C75.1699 42.242 74.9887 42.2889 74.8386 42.3913L72.9884 43.6539C72.8163 43.7732 72.616 43.8454 72.4072 43.8632C72.1985 43.8811 71.9887 43.844 71.7988 43.7558C71.5257 43.6262 71.246 43.511 70.9609 43.4106C70.7637 43.3392 70.5887 43.2173 70.4535 43.0573C70.3183 42.8972 70.2276 42.7046 70.1905 42.4986L69.7769 40.2995C69.7433 40.1212 69.6484 39.9602 69.5085 39.8444C69.3686 39.7285 69.1925 39.6651 69.0106 39.665H67.1085C66.9266 39.6651 66.7505 39.7285 66.6106 39.8444C66.4707 39.9602 66.3758 40.1212 66.3422 40.2995L65.9286 42.4986C65.8915 42.7046 65.8008 42.8972 65.6656 43.0572C65.5305 43.2173 65.3555 43.3391 65.1584 43.4105C64.8732 43.511 64.5934 43.6262 64.3203 43.7558C64.1304 43.844 63.9206 43.8811 63.7119 43.8632C63.5031 43.8453 63.3027 43.7732 63.1307 43.6539L61.2806 42.3913C61.1305 42.2889 60.9493 42.242 60.7682 42.2588C60.5871 42.2756 60.4176 42.355 60.289 42.4833L58.9441 43.8249C58.8155 43.9532 58.7359 44.1223 58.7191 44.3029C58.7023 44.4836 58.7492 44.6644 58.8519 44.8141L60.1176 46.6599C60.2371 46.8315 60.3094 47.0315 60.3273 47.2397C60.3452 47.448 60.3081 47.6572 60.2196 47.8467C60.0896 48.1191 59.9741 48.3982 59.8736 48.6828C59.802 48.8795 59.6798 49.054 59.5194 49.1889C59.3589 49.3238 59.1658 49.4143 58.9593 49.4513L56.7552 49.8635C56.5764 49.897 56.415 49.9918 56.2989 50.1314C56.1828 50.271 56.1192 50.4467 56.1191 50.6282V52.5257C56.1191 52.7071 56.1827 52.8828 56.2989 53.0224C56.415 53.1621 56.5764 53.2568 56.7552 53.2902L58.9593 53.7024C59.1658 53.7395 59.3589 53.83 59.5193 53.9649C59.6797 54.0998 59.8018 54.2743 59.8734 54.4711C59.9739 54.7556 60.0894 55.0347 60.2194 55.307C60.3079 55.4965 60.345 55.7058 60.3271 55.914C60.3092 56.1223 60.2369 56.3222 60.1174 56.4939L58.8517 58.3397C58.749 58.4895 58.702 58.6703 58.7189 58.8509C58.7357 59.0315 58.8153 59.2006 58.9439 59.3289L60.2889 60.6708C60.4175 60.7991 60.587 60.8785 60.768 60.8953C60.9491 60.9121 61.1304 60.8652 61.2805 60.7628L63.1306 59.5002C63.3026 59.3809 63.503 59.3087 63.7117 59.2909C63.9205 59.273 64.1302 59.31 64.3202 59.3983C64.5933 59.5279 64.873 59.6431 65.1582 59.7435C65.3554 59.815 65.5303 59.9368 65.6655 60.0969C65.8007 60.2569 65.8913 60.4496 65.9285 60.6555L66.3421 62.8545C66.3756 63.0328 66.4705 63.1938 66.6104 63.3097C66.7504 63.4255 66.9265 63.4889 67.1083 63.4889H69.0103C69.1921 63.4889 69.3682 63.4255 69.5081 63.3097C69.648 63.1938 69.743 63.0329 69.7765 62.8546L70.1901 60.6555C70.2273 60.4495 70.318 60.2569 70.4531 60.0968C70.5883 59.9368 70.7632 59.815 70.9604 59.7435C71.2456 59.6432 71.5253 59.5279 71.7984 59.3983C71.9883 59.31 72.1981 59.273 72.4069 59.2909C72.6156 59.3087 72.816 59.3809 72.988 59.5002L74.8385 60.7632C74.9886 60.8656 75.1698 60.9125 75.3509 60.8957C75.532 60.8789 75.7015 60.7995 75.8301 60.6712L77.1751 59.3293C77.3037 59.2011 77.3833 59.032 77.4001 58.8514C77.4169 58.6707 77.3699 58.4899 77.2673 58.3402L76.0016 56.4943C75.8821 56.3226 75.8098 56.1227 75.7919 55.9145C75.774 55.7062 75.8112 55.4969 75.8997 55.3075C76.0296 55.0351 76.145 54.756 76.2456 54.4715C76.3172 54.2748 76.4393 54.1004 76.5997 53.9655C76.7601 53.8307 76.9531 53.7402 77.1596 53.7031L79.3637 53.2909C79.5425 53.2575 79.7039 53.1628 79.82 53.0232C79.9362 52.8836 79.9998 52.7078 79.9997 52.5264V50.6289C79.9998 50.4474 79.9363 50.2715 79.8202 50.1318C79.704 49.9921 79.5426 49.8973 79.3638 49.8638ZM68.0596 55.9924C67.1843 55.9923 66.3287 55.7334 65.601 55.2482C64.8732 54.7631 64.306 54.0736 63.9711 53.2668C63.6362 52.4601 63.5485 51.5723 63.7193 50.7159C63.89 49.8595 64.3115 49.0728 64.9304 48.4553C65.5493 47.8379 66.3378 47.4174 67.1963 47.247C68.0547 47.0767 68.9445 47.1641 69.7532 47.4983C70.5618 47.8324 71.2529 48.3983 71.7392 49.1243C72.2255 49.8504 72.485 50.704 72.4851 51.5772C72.4851 52.157 72.3706 52.7311 72.1482 53.2668C71.9258 53.8025 71.5998 54.2892 71.1889 54.6992C70.7779 55.1092 70.2901 55.4344 69.7531 55.6563C69.2162 55.8781 68.6407 55.9924 68.0596 55.9924Z"/>
</mask>
<g filter="url(#filter0_i_690_1574)">
<path d="M79.3638 49.8638L77.1596 49.4516C76.9532 49.4145 76.7601 49.324 76.5997 49.1891C76.4393 49.0543 76.3172 48.8798 76.2456 48.683C76.1451 48.3985 76.0296 48.1194 75.8995 47.847C75.8111 47.6575 75.774 47.4482 75.7919 47.24C75.8098 47.0318 75.8821 46.8318 76.0016 46.6602L77.2673 44.8143C77.3699 44.6646 77.4169 44.4838 77.4001 44.3031C77.3832 44.1225 77.3037 43.9534 77.1751 43.8251L75.8301 42.4833C75.7015 42.355 75.532 42.2756 75.351 42.2588C75.1699 42.242 74.9887 42.2889 74.8386 42.3913L72.9884 43.6539C72.8163 43.7732 72.616 43.8454 72.4072 43.8632C72.1985 43.8811 71.9887 43.844 71.7988 43.7558C71.5257 43.6262 71.246 43.511 70.9609 43.4106C70.7637 43.3392 70.5887 43.2173 70.4535 43.0573C70.3183 42.8972 70.2276 42.7046 70.1905 42.4986L69.7769 40.2995C69.7433 40.1212 69.6484 39.9602 69.5085 39.8444C69.3686 39.7285 69.1925 39.6651 69.0106 39.665H67.1085C66.9266 39.6651 66.7505 39.7285 66.6106 39.8444C66.4707 39.9602 66.3758 40.1212 66.3422 40.2995L65.9286 42.4986C65.8915 42.7046 65.8008 42.8972 65.6656 43.0572C65.5305 43.2173 65.3555 43.3391 65.1584 43.4105C64.8732 43.511 64.5934 43.6262 64.3203 43.7558C64.1304 43.844 63.9206 43.8811 63.7119 43.8632C63.5031 43.8453 63.3027 43.7732 63.1307 43.6539L61.2806 42.3913C61.1305 42.2889 60.9493 42.242 60.7682 42.2588C60.5871 42.2756 60.4176 42.355 60.289 42.4833L58.9441 43.8249C58.8155 43.9532 58.7359 44.1223 58.7191 44.3029C58.7023 44.4836 58.7492 44.6644 58.8519 44.8141L60.1176 46.6599C60.2371 46.8315 60.3094 47.0315 60.3273 47.2397C60.3452 47.448 60.3081 47.6572 60.2196 47.8467C60.0896 48.1191 59.9741 48.3982 59.8736 48.6828C59.802 48.8795 59.6798 49.054 59.5194 49.1889C59.3589 49.3238 59.1658 49.4143 58.9593 49.4513L56.7552 49.8635C56.5764 49.897 56.415 49.9918 56.2989 50.1314C56.1828 50.271 56.1192 50.4467 56.1191 50.6282V52.5257C56.1191 52.7071 56.1827 52.8828 56.2989 53.0224C56.415 53.1621 56.5764 53.2568 56.7552 53.2902L58.9593 53.7024C59.1658 53.7395 59.3589 53.83 59.5193 53.9649C59.6797 54.0998 59.8018 54.2743 59.8734 54.4711C59.9739 54.7556 60.0894 55.0347 60.2194 55.307C60.3079 55.4965 60.345 55.7058 60.3271 55.914C60.3092 56.1223 60.2369 56.3222 60.1174 56.4939L58.8517 58.3397C58.749 58.4895 58.702 58.6703 58.7189 58.8509C58.7357 59.0315 58.8153 59.2006 58.9439 59.3289L60.2889 60.6708C60.4175 60.7991 60.587 60.8785 60.768 60.8953C60.9491 60.9121 61.1304 60.8652 61.2805 60.7628L63.1306 59.5002C63.3026 59.3809 63.503 59.3087 63.7117 59.2909C63.9205 59.273 64.1302 59.31 64.3202 59.3983C64.5933 59.5279 64.873 59.6431 65.1582 59.7435C65.3554 59.815 65.5303 59.9368 65.6655 60.0969C65.8007 60.2569 65.8913 60.4496 65.9285 60.6555L66.3421 62.8545C66.3756 63.0328 66.4705 63.1938 66.6104 63.3097C66.7504 63.4255 66.9265 63.4889 67.1083 63.4889H69.0103C69.1921 63.4889 69.3682 63.4255 69.5081 63.3097C69.648 63.1938 69.743 63.0329 69.7765 62.8546L70.1901 60.6555C70.2273 60.4495 70.318 60.2569 70.4531 60.0968C70.5883 59.9368 70.7632 59.815 70.9604 59.7435C71.2456 59.6432 71.5253 59.5279 71.7984 59.3983C71.9883 59.31 72.1981 59.273 72.4069 59.2909C72.6156 59.3087 72.816 59.3809 72.988 59.5002L74.8385 60.7632C74.9886 60.8656 75.1698 60.9125 75.3509 60.8957C75.532 60.8789 75.7015 60.7995 75.8301 60.6712L77.1751 59.3293C77.3037 59.2011 77.3833 59.032 77.4001 58.8514C77.4169 58.6707 77.3699 58.4899 77.2673 58.3402L76.0016 56.4943C75.8821 56.3226 75.8098 56.1227 75.7919 55.9145C75.774 55.7062 75.8112 55.4969 75.8997 55.3075C76.0296 55.0351 76.145 54.756 76.2456 54.4715C76.3172 54.2748 76.4393 54.1004 76.5997 53.9655C76.7601 53.8307 76.9531 53.7402 77.1596 53.7031L79.3637 53.2909C79.5425 53.2575 79.7039 53.1628 79.82 53.0232C79.9362 52.8836 79.9998 52.7078 79.9997 52.5264V50.6289C79.9998 50.4474 79.9363 50.2715 79.8202 50.1318C79.704 49.9921 79.5426 49.8973 79.3638 49.8638ZM68.0596 55.9924C67.1843 55.9923 66.3287 55.7334 65.601 55.2482C64.8732 54.7631 64.306 54.0736 63.9711 53.2668C63.6362 52.4601 63.5485 51.5723 63.7193 50.7159C63.89 49.8595 64.3115 49.0728 64.9304 48.4553C65.5493 47.8379 66.3378 47.4174 67.1963 47.247C68.0547 47.0767 68.9445 47.1641 69.7532 47.4983C70.5618 47.8324 71.2529 48.3983 71.7392 49.1243C72.2255 49.8504 72.485 50.704 72.4851 51.5772C72.4851 52.157 72.3706 52.7311 72.1482 53.2668C71.9258 53.8025 71.5998 54.2892 71.1889 54.6992C70.7779 55.1092 70.2901 55.4344 69.7531 55.6563C69.2162 55.8781 68.6407 55.9924 68.0596 55.9924Z" fill="url(#paint0_linear_690_1574)"/>
</g>
<path d="M79.3638 49.8638L77.1596 49.4516C76.9532 49.4145 76.7601 49.324 76.5997 49.1891C76.4393 49.0543 76.3172 48.8798 76.2456 48.683C76.1451 48.3985 76.0296 48.1194 75.8995 47.847C75.8111 47.6575 75.774 47.4482 75.7919 47.24C75.8098 47.0318 75.8821 46.8318 76.0016 46.6602L77.2673 44.8143C77.3699 44.6646 77.4169 44.4838 77.4001 44.3031C77.3832 44.1225 77.3037 43.9534 77.1751 43.8251L75.8301 42.4833C75.7015 42.355 75.532 42.2756 75.351 42.2588C75.1699 42.242 74.9887 42.2889 74.8386 42.3913L72.9884 43.6539C72.8163 43.7732 72.616 43.8454 72.4072 43.8632C72.1985 43.8811 71.9887 43.844 71.7988 43.7558C71.5257 43.6262 71.246 43.511 70.9609 43.4106C70.7637 43.3392 70.5887 43.2173 70.4535 43.0573C70.3183 42.8972 70.2276 42.7046 70.1905 42.4986L69.7769 40.2995C69.7433 40.1212 69.6484 39.9602 69.5085 39.8444C69.3686 39.7285 69.1925 39.6651 69.0106 39.665H67.1085C66.9266 39.6651 66.7505 39.7285 66.6106 39.8444C66.4707 39.9602 66.3758 40.1212 66.3422 40.2995L65.9286 42.4986C65.8915 42.7046 65.8008 42.8972 65.6656 43.0572C65.5305 43.2173 65.3555 43.3391 65.1584 43.4105C64.8732 43.511 64.5934 43.6262 64.3203 43.7558C64.1304 43.844 63.9206 43.8811 63.7119 43.8632C63.5031 43.8453 63.3027 43.7732 63.1307 43.6539L61.2806 42.3913C61.1305 42.2889 60.9493 42.242 60.7682 42.2588C60.5871 42.2756 60.4176 42.355 60.289 42.4833L58.9441 43.8249C58.8155 43.9532 58.7359 44.1223 58.7191 44.3029C58.7023 44.4836 58.7492 44.6644 58.8519 44.8141L60.1176 46.6599C60.2371 46.8315 60.3094 47.0315 60.3273 47.2397C60.3452 47.448 60.3081 47.6572 60.2196 47.8467C60.0896 48.1191 59.9741 48.3982 59.8736 48.6828C59.802 48.8795 59.6798 49.054 59.5194 49.1889C59.3589 49.3238 59.1658 49.4143 58.9593 49.4513L56.7552 49.8635C56.5764 49.897 56.415 49.9918 56.2989 50.1314C56.1828 50.271 56.1192 50.4467 56.1191 50.6282V52.5257C56.1191 52.7071 56.1827 52.8828 56.2989 53.0224C56.415 53.1621 56.5764 53.2568 56.7552 53.2902L58.9593 53.7024C59.1658 53.7395 59.3589 53.83 59.5193 53.9649C59.6797 54.0998 59.8018 54.2743 59.8734 54.4711C59.9739 54.7556 60.0894 55.0347 60.2194 55.307C60.3079 55.4965 60.345 55.7058 60.3271 55.914C60.3092 56.1223 60.2369 56.3222 60.1174 56.4939L58.8517 58.3397C58.749 58.4895 58.702 58.6703 58.7189 58.8509C58.7357 59.0315 58.8153 59.2006 58.9439 59.3289L60.2889 60.6708C60.4175 60.7991 60.587 60.8785 60.768 60.8953C60.9491 60.9121 61.1304 60.8652 61.2805 60.7628L63.1306 59.5002C63.3026 59.3809 63.503 59.3087 63.7117 59.2909C63.9205 59.273 64.1302 59.31 64.3202 59.3983C64.5933 59.5279 64.873 59.6431 65.1582 59.7435C65.3554 59.815 65.5303 59.9368 65.6655 60.0969C65.8007 60.2569 65.8913 60.4496 65.9285 60.6555L66.3421 62.8545C66.3756 63.0328 66.4705 63.1938 66.6104 63.3097C66.7504 63.4255 66.9265 63.4889 67.1083 63.4889H69.0103C69.1921 63.4889 69.3682 63.4255 69.5081 63.3097C69.648 63.1938 69.743 63.0329 69.7765 62.8546L70.1901 60.6555C70.2273 60.4495 70.318 60.2569 70.4531 60.0968C70.5883 59.9368 70.7632 59.815 70.9604 59.7435C71.2456 59.6432 71.5253 59.5279 71.7984 59.3983C71.9883 59.31 72.1981 59.273 72.4069 59.2909C72.6156 59.3087 72.816 59.3809 72.988 59.5002L74.8385 60.7632C74.9886 60.8656 75.1698 60.9125 75.3509 60.8957C75.532 60.8789 75.7015 60.7995 75.8301 60.6712L77.1751 59.3293C77.3037 59.2011 77.3833 59.032 77.4001 58.8514C77.4169 58.6707 77.3699 58.4899 77.2673 58.3402L76.0016 56.4943C75.8821 56.3226 75.8098 56.1227 75.7919 55.9145C75.774 55.7062 75.8112 55.4969 75.8997 55.3075C76.0296 55.0351 76.145 54.756 76.2456 54.4715C76.3172 54.2748 76.4393 54.1004 76.5997 53.9655C76.7601 53.8307 76.9531 53.7402 77.1596 53.7031L79.3637 53.2909C79.5425 53.2575 79.7039 53.1628 79.82 53.0232C79.9362 52.8836 79.9998 52.7078 79.9997 52.5264V50.6289C79.9998 50.4474 79.9363 50.2715 79.8202 50.1318C79.704 49.9921 79.5426 49.8973 79.3638 49.8638ZM68.0596 55.9924C67.1843 55.9923 66.3287 55.7334 65.601 55.2482C64.8732 54.7631 64.306 54.0736 63.9711 53.2668C63.6362 52.4601 63.5485 51.5723 63.7193 50.7159C63.89 49.8595 64.3115 49.0728 64.9304 48.4553C65.5493 47.8379 66.3378 47.4174 67.1963 47.247C68.0547 47.0767 68.9445 47.1641 69.7532 47.4983C70.5618 47.8324 71.2529 48.3983 71.7392 49.1243C72.2255 49.8504 72.485 50.704 72.4851 51.5772C72.4851 52.157 72.3706 52.7311 72.1482 53.2668C71.9258 53.8025 71.5998 54.2892 71.1889 54.6992C70.7779 55.1092 70.2901 55.4344 69.7531 55.6563C69.2162 55.8781 68.6407 55.9924 68.0596 55.9924Z" stroke="url(#paint1_linear_690_1574)" mask="url(#path-1-inside-1_690_1574)"/>
<g filter="url(#filter1_bdi_690_1574)">
<mask id="path-2-inside-2_690_1574" fill="white">
<path fill-rule="evenodd" clip-rule="evenodd" d="M56.252 40.7239C51.1352 40.7239 46.9651 44.8719 46.9651 49.9887C46.9651 52.6154 48.064 54.9868 49.8258 56.6728C44.0461 58.3589 40 62.2502 40 66.7812C40 72.8575 47.2763 77.7833 56.2521 77.7833C65.2278 77.7833 72.5041 72.8575 72.5041 66.7812C72.5041 62.2502 68.458 58.3589 62.6783 56.6728C64.4401 54.9868 65.5389 52.6154 65.5389 49.9887C65.5389 44.8719 61.3689 40.7239 56.252 40.7239Z"/>
</mask>
<path fill-rule="evenodd" clip-rule="evenodd" d="M56.252 40.7239C51.1352 40.7239 46.9651 44.8719 46.9651 49.9887C46.9651 52.6154 48.064 54.9868 49.8258 56.6728C44.0461 58.3589 40 62.2502 40 66.7812C40 72.8575 47.2763 77.7833 56.2521 77.7833C65.2278 77.7833 72.5041 72.8575 72.5041 66.7812C72.5041 62.2502 68.458 58.3589 62.6783 56.6728C64.4401 54.9868 65.5389 52.6154 65.5389 49.9887C65.5389 44.8719 61.3689 40.7239 56.252 40.7239Z" fill="#47F49A" fill-opacity="0.3" shape-rendering="crispEdges"/>
<path d="M49.8258 56.6728L49.9658 57.1528L50.7971 56.9103L50.1715 56.3116L49.8258 56.6728ZM62.6783 56.6728L62.3326 56.3116L61.707 56.9103L62.5383 57.1528L62.6783 56.6728ZM47.4651 49.9887C47.4651 45.1496 51.4098 41.2239 56.252 41.2239V40.2239C50.8606 40.2239 46.4651 44.5942 46.4651 49.9887H47.4651ZM50.1715 56.3116C48.5038 54.7156 47.4651 52.4729 47.4651 49.9887H46.4651C46.4651 52.7579 47.6243 55.258 49.4801 57.034L50.1715 56.3116ZM40.5 66.7812C40.5 62.5761 44.2799 58.8116 49.9658 57.1528L49.6858 56.1928C43.8123 57.9063 39.5 61.9244 39.5 66.7812H40.5ZM56.2521 77.2833C51.8507 77.2833 47.8883 76.0747 45.0404 74.1468C42.1897 72.217 40.5 69.6038 40.5 66.7812H39.5C39.5 70.035 41.4484 72.9227 44.4798 74.9749C47.5141 77.029 51.6777 78.2833 56.2521 78.2833V77.2833ZM72.0041 66.7812C72.0041 69.6038 70.3144 72.217 67.4637 74.1468C64.6159 76.0747 60.6535 77.2833 56.2521 77.2833V78.2833C60.8265 78.2833 64.9901 77.029 68.0243 74.9749C71.0557 72.9227 73.0041 70.035 73.0041 66.7812H72.0041ZM62.5383 57.1528C68.2243 58.8115 72.0041 62.576 72.0041 66.7812H73.0041C73.0041 61.9244 68.6918 57.9063 62.8183 56.1928L62.5383 57.1528ZM65.0389 49.9887C65.0389 52.4729 64.0003 54.7156 62.3326 56.3116L63.024 57.034C64.8798 55.258 66.0389 52.7579 66.0389 49.9887H65.0389ZM56.252 41.2239C61.0943 41.2239 65.0389 45.1496 65.0389 49.9887H66.0389C66.0389 44.5942 61.6435 40.2239 56.252 40.2239V41.2239Z" fill="url(#paint2_linear_690_1574)" mask="url(#path-2-inside-2_690_1574)"/>
</g>
<defs>
<filter id="filter0_i_690_1574" x="56.1191" y="39.665" width="23.8809" height="23.8239" filterUnits="userSpaceOnUse" color-interpolation-filters="sRGB">
<feFlood flood-opacity="0" result="BackgroundImageFix"/>
<feBlend mode="normal" in="SourceGraphic" in2="BackgroundImageFix" result="shape"/>
<feColorMatrix in="SourceAlpha" type="matrix" values="0 0 0 0 0 0 0 0 0 0 0 0 0 0 0 0 0 0 127 0" result="hardAlpha"/>
<feOffset/>
<feGaussianBlur stdDeviation="5"/>
<feComposite in2="hardAlpha" operator="arithmetic" k2="-1" k3="1"/>
<feColorMatrix type="matrix" values="0 0 0 0 1 0 0 0 0 1 0 0 0 0 1 0 0 0 0.4 0"/>
<feBlend mode="normal" in2="shape" result="effect1_innerShadow_690_1574"/>
</filter>
<filter id="filter1_bdi_690_1574" x="0" y="0.723877" width="112.504" height="117.059" filterUnits="userSpaceOnUse" color-interpolation-filters="sRGB">
<feFlood flood-opacity="0" result="BackgroundImageFix"/>
<feGaussianBlur in="BackgroundImage" stdDeviation="2.71828"/>
<feComposite in2="SourceAlpha" operator="in" result="effect1_backgroundBlur_690_1574"/>
<feColorMatrix in="SourceAlpha" type="matrix" values="0 0 0 0 0 0 0 0 0 0 0 0 0 0 0 0 0 0 127 0" result="hardAlpha"/>
<feOffset/>
<feGaussianBlur stdDeviation="20"/>
<feComposite in2="hardAlpha" operator="out"/>
<feColorMatrix type="matrix" values="0 0 0 0 0 0 0 0 0 1 0 0 0 0 0.815686 0 0 0 0.3 0"/>
<feBlend mode="normal" in2="effect1_backgroundBlur_690_1574" result="effect2_dropShadow_690_1574"/>
<feBlend mode="normal" in="SourceGraphic" in2="effect2_dropShadow_690_1574" result="shape"/>
<feColorMatrix in="SourceAlpha" type="matrix" values="0 0 0 0 0 0 0 0 0 0 0 0 0 0 0 0 0 0 127 0" result="hardAlpha"/>
<feOffset/>
<feGaussianBlur stdDeviation="2"/>
<feComposite in2="hardAlpha" operator="arithmetic" k2="-1" k3="1"/>
<feColorMatrix type="matrix" values="0 0 0 0 1 0 0 0 0 1 0 0 0 0 1 0 0 0 0.3 0"/>
<feBlend mode="normal" in2="shape" result="effect3_innerShadow_690_1574"/>
</filter>
<linearGradient id="paint0_linear_690_1574" x1="56.2238" y1="39.665" x2="56.2238" y2="63.28" gradientUnits="userSpaceOnUse">
<stop stop-color="#00FFD0"/>
<stop offset="1" stop-color="#0B9D71"/>
</linearGradient>
<linearGradient id="paint1_linear_690_1574" x1="56.1191" y1="39.665" x2="56.1191" y2="63.4889" gradientUnits="userSpaceOnUse">
<stop stop-color="white" stop-opacity="0.4"/>
<stop offset="1" stop-color="white" stop-opacity="0.01"/>
</linearGradient>
<linearGradient id="paint2_linear_690_1574" x1="40" y1="39.4003" x2="40" y2="76.4597" gradientUnits="userSpaceOnUse">
<stop stop-color="white" stop-opacity="0.3"/>
<stop offset="1" stop-color="white" stop-opacity="0.13"/>
</linearGradient>
</defs>
</svg>
