<svg width="102" height="102" viewBox="0 0 102 102" fill="none" xmlns="http://www.w3.org/2000/svg">
<g filter="url(#filter0_bdi_665_2324)">
<path fill-rule="evenodd" clip-rule="evenodd" d="M40.5977 50.984C40.5977 45.2472 45.2482 40.5967 50.985 40.5967V40.5967C56.7217 40.5967 61.3723 45.2472 61.3723 50.984V50.984C61.3723 56.7208 56.7217 61.3713 50.985 61.3713V61.3713C45.2482 61.3713 40.5977 56.7208 40.5977 50.984V50.984Z" fill="#F14CCA" fill-opacity="0.3" shape-rendering="crispEdges"/>
<path d="M50.985 61.1213C45.3863 61.1213 40.8477 56.5827 40.8477 50.984C40.8477 45.3853 45.3863 40.8467 50.985 40.8467C56.5837 40.8467 61.1223 45.3853 61.1223 50.984C61.1223 56.5827 56.5837 61.1213 50.985 61.1213Z" stroke="url(#paint0_linear_665_2324)" stroke-width="0.5" shape-rendering="crispEdges"/>
</g>
<path d="M49.0371 46.4395L53.5816 50.9839L49.0371 55.5284" stroke="white" stroke-width="3" stroke-linecap="round" stroke-linejoin="round"/>
<defs>
<filter id="filter0_bdi_665_2324" x="0.597656" y="0.59668" width="100.775" height="100.774" filterUnits="userSpaceOnUse" color-interpolation-filters="sRGB">
<feFlood flood-opacity="0" result="BackgroundImageFix"/>
<feGaussianBlur in="BackgroundImage" stdDeviation="1.5"/>
<feComposite in2="SourceAlpha" operator="in" result="effect1_backgroundBlur_665_2324"/>
<feColorMatrix in="SourceAlpha" type="matrix" values="0 0 0 0 0 0 0 0 0 0 0 0 0 0 0 0 0 0 127 0" result="hardAlpha"/>
<feOffset/>
<feGaussianBlur stdDeviation="20"/>
<feComposite in2="hardAlpha" operator="out"/>
<feColorMatrix type="matrix" values="0 0 0 0 0.552941 0 0 0 0 0.309804 0 0 0 0 0.980392 0 0 0 0.25 0"/>
<feBlend mode="normal" in2="effect1_backgroundBlur_665_2324" result="effect2_dropShadow_665_2324"/>
<feBlend mode="normal" in="SourceGraphic" in2="effect2_dropShadow_665_2324" result="shape"/>
<feColorMatrix in="SourceAlpha" type="matrix" values="0 0 0 0 0 0 0 0 0 0 0 0 0 0 0 0 0 0 127 0" result="hardAlpha"/>
<feOffset/>
<feGaussianBlur stdDeviation="2"/>
<feComposite in2="hardAlpha" operator="arithmetic" k2="-1" k3="1"/>
<feColorMatrix type="matrix" values="0 0 0 0 1 0 0 0 0 1 0 0 0 0 1 0 0 0 0.3 0"/>
<feBlend mode="normal" in2="shape" result="effect3_innerShadow_665_2324"/>
</filter>
<linearGradient id="paint0_linear_665_2324" x1="40.5977" y1="40.5967" x2="40.5977" y2="61.3713" gradientUnits="userSpaceOnUse">
<stop stop-color="white" stop-opacity="0.3"/>
<stop offset="1" stop-color="white" stop-opacity="0.13"/>
</linearGradient>
</defs>
</svg>
