<svg width="200" height="200" viewBox="0 0 200 200" fill="none" xmlns="http://www.w3.org/2000/svg">
<g filter="url(#filter0_bdi_439_9121)">
<rect x="50" y="50" width="100" height="99.7625" rx="49.8813" fill="#FF0000" fill-opacity="0.2" shape-rendering="crispEdges"/>
<rect x="50.25" y="50.25" width="99.5" height="99.2625" rx="49.6313" stroke="url(#paint0_linear_439_9121)" stroke-width="0.5" shape-rendering="crispEdges"/>
</g>
<g filter="url(#filter1_i_439_9121)">
<path d="M128.747 85.5584C128.057 82.9768 126.024 80.9439 123.442 80.2539C118.763 79 100 79 100 79C100 79 81.2375 79 76.5579 80.2539C73.9768 80.9439 71.9434 82.9768 71.2536 85.5584C70 90.2375 70 100 70 100C70 100 70 109.763 71.2536 114.442C71.9434 117.023 73.9768 119.057 76.5579 119.747C81.2375 121 100 121 100 121C100 121 118.763 121 123.442 119.747C126.024 119.057 128.057 117.023 128.747 114.442C130 109.763 130 100 130 100C130 100 130 90.2375 128.747 85.5584ZM93.9997 109.001V91.0001L109.588 100L93.9997 109.001Z" fill="#FF0000"/>
</g>
<path d="M128.505 85.623L128.505 85.6231C129.124 87.9342 129.437 91.5205 129.594 94.547C129.672 96.0565 129.711 97.4203 129.73 98.4068C129.74 98.9 129.745 99.2987 129.748 99.574C129.749 99.7116 129.749 99.8184 129.75 99.8907L129.75 99.9728L129.75 99.9936L129.75 99.9987V100V100L130 100L129.75 100V100.001V100.002L129.75 100.007L129.75 100.028L129.75 100.11C129.749 100.182 129.749 100.289 129.748 100.427C129.745 100.702 129.74 101.101 129.73 101.594C129.711 102.58 129.672 103.944 129.594 105.454C129.437 108.48 129.124 112.066 128.505 114.377L128.505 114.377C127.838 116.872 125.873 118.838 123.378 119.505L123.377 119.505C122.233 119.812 120.206 120.046 117.787 120.222C115.375 120.398 112.595 120.515 109.959 120.594C107.323 120.672 104.833 120.711 103.002 120.731C102.087 120.74 101.336 120.745 100.814 120.748C100.553 120.749 100.35 120.749 100.211 120.75L100.054 120.75L100.014 120.75L100.003 120.75H100.001H100C100 120.75 100 120.75 100 121C100 120.75 100 120.75 99.9999 120.75H99.9992H99.9967L99.9866 120.75L99.9464 120.75L99.7888 120.75C99.6504 120.749 99.4468 120.749 99.1859 120.748C98.6641 120.745 97.9135 120.74 96.998 120.731C95.1669 120.711 92.677 120.672 90.0413 120.594C87.4051 120.515 84.6251 120.398 82.2131 120.222C79.7942 120.046 77.7665 119.812 76.6226 119.505L76.6225 119.505C74.1277 118.838 72.1619 116.872 71.4951 114.377L71.495 114.377C70.8759 112.066 70.5631 108.48 70.4064 105.454C70.3282 103.944 70.2891 102.58 70.2695 101.594C70.2598 101.101 70.2549 100.702 70.2524 100.427C70.2512 100.289 70.2506 100.182 70.2503 100.11L70.25 100.028L70.25 100.007L70.25 100.002L70.25 100.001L70.25 100L70 100L70.25 100L70.25 100L70.25 99.9987L70.25 99.9936L70.25 99.9728L70.2503 99.8907C70.2506 99.8184 70.2512 99.7116 70.2524 99.574C70.2549 99.2987 70.2598 98.9 70.2695 98.4068C70.2891 97.4203 70.3282 96.0565 70.4064 94.547C70.5631 91.5205 70.8759 87.9342 71.495 85.6231L71.4951 85.623C72.1619 83.1277 74.1277 81.1623 76.6225 80.4954L76.6226 80.4954C77.7666 80.1889 79.7942 79.9548 82.2131 79.7783C84.6251 79.6024 87.4051 79.4849 90.0413 79.4066C92.677 79.3283 95.1669 79.2892 96.998 79.2696C97.9135 79.2598 98.6641 79.2549 99.1859 79.2524C99.4468 79.2512 99.6504 79.2506 99.7888 79.2503L99.9464 79.25L99.9866 79.25L99.9967 79.25L99.9992 79.25L99.9999 79.25C100 79.25 100 79.25 100 79C100 79.25 100 79.25 100 79.25L100.001 79.25L100.003 79.25L100.014 79.25L100.054 79.25L100.211 79.2503C100.35 79.2506 100.553 79.2512 100.814 79.2524C101.336 79.2549 102.087 79.2598 103.002 79.2696C104.833 79.2892 107.323 79.3283 109.959 79.4066C112.595 79.4849 115.375 79.6024 117.787 79.7783C120.206 79.9548 122.233 80.1889 123.377 80.4954L123.378 80.4954C125.873 81.1623 127.838 83.1277 128.505 85.623ZM123.442 119.747C126.024 119.057 128.057 117.023 128.747 114.442L123.442 119.747ZM93.7497 109.001V109.434L94.1247 109.217L109.713 100.217L110.088 100L109.713 99.7839L94.1247 90.7836L93.7497 90.5671V91.0001V109.001Z" stroke="url(#paint1_linear_439_9121)" stroke-width="0.5"/>
<defs>
<filter id="filter0_bdi_439_9121" x="0" y="0" width="200" height="199.763" filterUnits="userSpaceOnUse" color-interpolation-filters="sRGB">
<feFlood flood-opacity="0" result="BackgroundImageFix"/>
<feGaussianBlur in="BackgroundImage" stdDeviation="2.71828"/>
<feComposite in2="SourceAlpha" operator="in" result="effect1_backgroundBlur_439_9121"/>
<feColorMatrix in="SourceAlpha" type="matrix" values="0 0 0 0 0 0 0 0 0 0 0 0 0 0 0 0 0 0 127 0" result="hardAlpha"/>
<feOffset/>
<feGaussianBlur stdDeviation="25"/>
<feComposite in2="hardAlpha" operator="out"/>
<feColorMatrix type="matrix" values="0 0 0 0 1 0 0 0 0 0 0 0 0 0 0 0 0 0 0.15 0"/>
<feBlend mode="normal" in2="effect1_backgroundBlur_439_9121" result="effect2_dropShadow_439_9121"/>
<feBlend mode="normal" in="SourceGraphic" in2="effect2_dropShadow_439_9121" result="shape"/>
<feColorMatrix in="SourceAlpha" type="matrix" values="0 0 0 0 0 0 0 0 0 0 0 0 0 0 0 0 0 0 127 0" result="hardAlpha"/>
<feOffset/>
<feGaussianBlur stdDeviation="2"/>
<feComposite in2="hardAlpha" operator="arithmetic" k2="-1" k3="1"/>
<feColorMatrix type="matrix" values="0 0 0 0 1 0 0 0 0 1 0 0 0 0 1 0 0 0 0.3 0"/>
<feBlend mode="normal" in2="shape" result="effect3_innerShadow_439_9121"/>
</filter>
<filter id="filter1_i_439_9121" x="70" y="79" width="60" height="42" filterUnits="userSpaceOnUse" color-interpolation-filters="sRGB">
<feFlood flood-opacity="0" result="BackgroundImageFix"/>
<feBlend mode="normal" in="SourceGraphic" in2="BackgroundImageFix" result="shape"/>
<feColorMatrix in="SourceAlpha" type="matrix" values="0 0 0 0 0 0 0 0 0 0 0 0 0 0 0 0 0 0 127 0" result="hardAlpha"/>
<feOffset/>
<feGaussianBlur stdDeviation="5"/>
<feComposite in2="hardAlpha" operator="arithmetic" k2="-1" k3="1"/>
<feColorMatrix type="matrix" values="0 0 0 0 1 0 0 0 0 1 0 0 0 0 1 0 0 0 0.4 0"/>
<feBlend mode="normal" in2="shape" result="effect1_innerShadow_439_9121"/>
</filter>
<linearGradient id="paint0_linear_439_9121" x1="50" y1="50" x2="50" y2="149.763" gradientUnits="userSpaceOnUse">
<stop stop-color="white" stop-opacity="0.3"/>
<stop offset="1" stop-color="white" stop-opacity="0.13"/>
</linearGradient>
<linearGradient id="paint1_linear_439_9121" x1="100" y1="79" x2="100" y2="121" gradientUnits="userSpaceOnUse">
<stop stop-color="white" stop-opacity="0.51"/>
<stop offset="1" stop-color="white" stop-opacity="0"/>
</linearGradient>
</defs>
</svg>
