<svg width="200" height="200" viewBox="0 0 200 200" fill="none" xmlns="http://www.w3.org/2000/svg">
<g filter="url(#filter0_bdi_439_9092)">
<rect x="50" y="50" width="100" height="99.7625" rx="49.8813" fill="#0E76A8" fill-opacity="0.2" shape-rendering="crispEdges"/>
<rect x="50.25" y="50.25" width="99.5" height="99.2625" rx="49.6313" stroke="url(#paint0_linear_439_9092)" stroke-width="0.5" shape-rendering="crispEdges"/>
</g>
<g filter="url(#filter1_i_439_9092)">
<path d="M76.6193 82.8115C80.275 82.8115 83.2385 79.9435 83.2385 76.4057C83.2385 72.8679 80.275 70 76.6193 70C72.9635 70 70 72.8679 70 76.4057C70 79.9435 72.9635 82.8115 76.6193 82.8115Z" fill="#0E76A8"/>
</g>
<path d="M82.9885 76.4057C82.9885 79.7978 80.1447 82.5615 76.6193 82.5615C73.0938 82.5615 70.25 79.7978 70.25 76.4057C70.25 73.0137 73.0938 70.25 76.6193 70.25C80.1447 70.25 82.9885 73.0137 82.9885 76.4057Z" stroke="url(#paint1_linear_439_9092)" stroke-width="0.5"/>
<g filter="url(#filter2_i_439_9092)">
<path d="M83.0244 129.787H70.2129V87.082H83.0244V129.787ZM130 129.787H117.188V106.974C117.188 101.029 115.07 98.07 110.872 98.07C107.546 98.07 105.436 99.727 104.377 103.045C104.377 108.434 104.377 129.787 104.377 129.787H91.5654C91.5654 129.787 91.7362 91.3525 91.5654 87.082H101.678L102.459 95.623H102.724C105.35 91.3525 109.548 88.4571 115.305 88.4571C119.682 88.4571 123.223 89.6742 125.926 92.7319C128.646 95.7938 130 99.902 130 105.671V129.787Z" fill="#0E76A8"/>
</g>
<path d="M129.75 105.671V129.537H117.438V106.974C117.438 103.98 116.906 101.692 115.808 100.148C114.699 98.588 113.038 97.82 110.872 97.82C109.166 97.82 107.75 98.2457 106.622 99.1152C105.495 99.9835 104.679 101.276 104.139 102.969L104.127 103.006V103.045V103.077V103.109V103.142V103.174V103.208V103.241V103.275V103.309V103.344V103.379V103.414V103.45V103.486V103.522V103.559V103.596V103.633V103.671V103.709V103.748V103.786V103.825V103.865V103.904V103.944V103.985V104.025V104.066V104.108V104.149V104.191V104.234V104.276V104.319V104.362V104.406V104.45V104.494V104.538V104.583V104.628V104.673V104.719V104.765V104.811V104.857V104.904V104.951V104.998V105.046V105.094V105.142V105.191V105.239V105.288V105.338V105.387V105.437V105.487V105.537V105.588V105.639V105.69V105.742V105.793V105.845V105.897V105.95V106.002V106.055V106.109V106.162V106.216V106.27V106.324V106.378V106.433V106.488V106.543V106.598V106.654V106.71V106.766V106.822V106.878V106.935V106.992V107.049V107.107V107.164V107.222V107.28V107.338V107.397V107.455V107.514V107.573V107.633V107.692V107.752V107.812V107.872V107.932V107.992V108.053V108.114V108.175V108.236V108.298V108.359V108.421V108.483V108.545V108.607V108.67V108.732V108.795V108.858V108.921V108.985V109.048V109.112V109.176V109.24V109.304V109.368V109.433V109.497V109.562V109.627V109.692V109.757V109.822V109.888V109.954V110.019V110.085V110.151V110.217V110.284V110.35V110.417V110.484V110.55V110.617V110.684V110.752V110.819V110.886V110.954V111.022V111.089V111.157V111.225V111.293V111.362V111.43V111.498V111.567V111.636V111.704V111.773V111.842V111.911V111.98V112.049V112.119V112.188V112.258V112.327V112.397V112.466V112.536V112.606V112.676V112.746V112.816V112.886V112.956V113.027V113.097V113.167V113.238V113.309V113.379V113.45V113.52V113.591V113.662V113.733V113.804V113.875V113.946V114.017V114.088V114.159V114.23V114.301V114.373V114.444V114.515V114.587V114.658V114.729V114.801V114.872V114.944V115.015V115.087V115.158V115.23V115.301V115.373V115.444V115.516V115.587V115.659V115.731V115.802V115.874V115.945V116.017V116.089V116.16V116.232V116.303V116.375V116.446V116.518V116.589V116.661V116.732V116.804V116.875V116.947V117.018V117.089V117.161V117.232V117.303V117.374V117.445V117.517V117.588V117.659V117.73V117.801V117.872V117.942V118.013V118.084V118.155V118.225V118.296V118.367V118.437V118.507V118.578V118.648V118.718V118.788V118.859V118.929V118.999V119.068V119.138V119.208V119.278V119.347V119.417V119.486V119.555V119.624V119.694V119.763V119.832V119.9V119.969V120.038V120.106V120.175V120.243V120.311V120.379V120.447V120.515V120.583V120.651V120.718V120.786V120.853V120.92V120.987V121.054V121.121V121.188V121.255V121.321V121.387V121.453V121.52V121.585V121.651V121.717V121.782V121.848V121.913V121.978V122.043V122.108V122.172V122.237V122.301V122.365V122.429V122.493V122.557V122.62V122.684V122.747V122.81V122.873V122.935V122.998V123.06V123.122V123.184V123.246V123.307V123.369V123.43V123.491V123.552V123.613V123.673V123.733V123.793V123.853V123.913V123.973V124.032V124.091V124.15V124.208V124.267V124.325V124.383V124.441V124.499V124.556V124.613V124.67V124.727V124.783V124.84V124.896V124.952V125.007V125.062V125.118V125.173V125.227V125.282V125.336V125.39V125.443V125.497V125.55V125.603V125.656V125.708V125.76V125.812V125.864V125.915V125.967V126.018V126.068V126.119V126.169V126.219V126.268V126.317V126.366V126.415V126.464V126.512V126.56V126.607V126.655V126.702V126.749V126.795V126.841V126.887V126.933V126.978V127.023V127.068V127.112V127.156V127.2V127.244V127.287V127.33V127.372V127.415V127.457V127.498V127.54V127.581V127.621V127.662V127.702V127.742V127.781V127.82V127.859V127.897V127.935V127.973V128.01V128.047V128.084V128.12V128.157V128.192V128.228V128.263V128.297V128.331V128.365V128.399V128.432V128.465V128.498V128.53V128.561V128.593V128.624V128.655V128.685V128.715V128.744V128.774V128.802V128.831V128.859V128.887V128.914V128.941V128.967V128.993V129.019V129.045V129.069V129.094V129.118V129.142V129.165V129.188V129.211V129.233V129.255V129.276V129.297V129.317V129.338V129.357V129.376V129.395V129.414V129.432V129.449V129.467V129.483V129.5V129.515V129.531V129.537H91.8164L91.8172 129.355L91.8224 128.128C91.8267 127.069 91.8327 125.551 91.8394 123.716C91.8527 120.046 91.8687 115.108 91.8794 110.036C91.9 100.258 91.9008 89.972 91.824 87.332H101.45L102.21 95.6458L102.231 95.873H102.459H102.724H102.864L102.937 95.754C105.524 91.5473 109.647 88.7071 115.305 88.7071C119.631 88.7071 123.095 89.9073 125.738 92.8975L125.739 92.8979C128.406 95.9005 129.75 99.9423 129.75 105.671ZM82.7744 129.537H70.4629V87.332H82.7744V129.537Z" stroke="url(#paint2_linear_439_9092)" stroke-width="0.5"/>
<defs>
<filter id="filter0_bdi_439_9092" x="0" y="0" width="200" height="199.763" filterUnits="userSpaceOnUse" color-interpolation-filters="sRGB">
<feFlood flood-opacity="0" result="BackgroundImageFix"/>
<feGaussianBlur in="BackgroundImage" stdDeviation="2.71828"/>
<feComposite in2="SourceAlpha" operator="in" result="effect1_backgroundBlur_439_9092"/>
<feColorMatrix in="SourceAlpha" type="matrix" values="0 0 0 0 0 0 0 0 0 0 0 0 0 0 0 0 0 0 127 0" result="hardAlpha"/>
<feOffset/>
<feGaussianBlur stdDeviation="25"/>
<feComposite in2="hardAlpha" operator="out"/>
<feColorMatrix type="matrix" values="0 0 0 0 0.054902 0 0 0 0 0.462745 0 0 0 0 0.658824 0 0 0 0.15 0"/>
<feBlend mode="normal" in2="effect1_backgroundBlur_439_9092" result="effect2_dropShadow_439_9092"/>
<feBlend mode="normal" in="SourceGraphic" in2="effect2_dropShadow_439_9092" result="shape"/>
<feColorMatrix in="SourceAlpha" type="matrix" values="0 0 0 0 0 0 0 0 0 0 0 0 0 0 0 0 0 0 127 0" result="hardAlpha"/>
<feOffset/>
<feGaussianBlur stdDeviation="2"/>
<feComposite in2="hardAlpha" operator="arithmetic" k2="-1" k3="1"/>
<feColorMatrix type="matrix" values="0 0 0 0 1 0 0 0 0 1 0 0 0 0 1 0 0 0 0.3 0"/>
<feBlend mode="normal" in2="shape" result="effect3_innerShadow_439_9092"/>
</filter>
<filter id="filter1_i_439_9092" x="70" y="70" width="13.2383" height="12.8115" filterUnits="userSpaceOnUse" color-interpolation-filters="sRGB">
<feFlood flood-opacity="0" result="BackgroundImageFix"/>
<feBlend mode="normal" in="SourceGraphic" in2="BackgroundImageFix" result="shape"/>
<feColorMatrix in="SourceAlpha" type="matrix" values="0 0 0 0 0 0 0 0 0 0 0 0 0 0 0 0 0 0 127 0" result="hardAlpha"/>
<feOffset/>
<feGaussianBlur stdDeviation="5"/>
<feComposite in2="hardAlpha" operator="arithmetic" k2="-1" k3="1"/>
<feColorMatrix type="matrix" values="0 0 0 0 1 0 0 0 0 1 0 0 0 0 1 0 0 0 0.4 0"/>
<feBlend mode="normal" in2="shape" result="effect1_innerShadow_439_9092"/>
</filter>
<filter id="filter2_i_439_9092" x="70.2129" y="87.082" width="59.7871" height="42.7051" filterUnits="userSpaceOnUse" color-interpolation-filters="sRGB">
<feFlood flood-opacity="0" result="BackgroundImageFix"/>
<feBlend mode="normal" in="SourceGraphic" in2="BackgroundImageFix" result="shape"/>
<feColorMatrix in="SourceAlpha" type="matrix" values="0 0 0 0 0 0 0 0 0 0 0 0 0 0 0 0 0 0 127 0" result="hardAlpha"/>
<feOffset/>
<feGaussianBlur stdDeviation="5"/>
<feComposite in2="hardAlpha" operator="arithmetic" k2="-1" k3="1"/>
<feColorMatrix type="matrix" values="0 0 0 0 1 0 0 0 0 1 0 0 0 0 1 0 0 0 0.4 0"/>
<feBlend mode="normal" in2="shape" result="effect1_innerShadow_439_9092"/>
</filter>
<linearGradient id="paint0_linear_439_9092" x1="50" y1="50" x2="50" y2="149.763" gradientUnits="userSpaceOnUse">
<stop stop-color="white" stop-opacity="0.3"/>
<stop offset="1" stop-color="white" stop-opacity="0.13"/>
</linearGradient>
<linearGradient id="paint1_linear_439_9092" x1="76.6193" y1="70" x2="76.6193" y2="82.8115" gradientUnits="userSpaceOnUse">
<stop stop-color="white" stop-opacity="0.4"/>
<stop offset="1" stop-color="white" stop-opacity="0"/>
</linearGradient>
<linearGradient id="paint2_linear_439_9092" x1="100.106" y1="87.082" x2="100.106" y2="129.787" gradientUnits="userSpaceOnUse">
<stop stop-color="white" stop-opacity="0.4"/>
<stop offset="1" stop-color="white" stop-opacity="0"/>
</linearGradient>
</defs>
</svg>
