<svg width="200" height="200" viewBox="0 0 200 200" fill="none" xmlns="http://www.w3.org/2000/svg">
<g filter="url(#filter0_bdi_439_9129)">
<rect x="50" y="50" width="100" height="99.7625" rx="49.8813" fill="#FF4301" fill-opacity="0.2" shape-rendering="crispEdges"/>
<rect x="50.25" y="50.25" width="99.5" height="99.2625" rx="49.6313" stroke="url(#paint0_linear_439_9129)" stroke-width="0.5" shape-rendering="crispEdges"/>
</g>
<g filter="url(#filter1_i_439_9129)">
<path d="M130 100.724C130 96.9136 126.9 93.813 123.089 93.813C121.393 93.813 119.795 94.4263 118.533 95.5366C113.962 92.6118 107.864 90.769 101.137 90.5706L105.253 76.4921L115.359 78.3698C115.359 78.4519 115.343 78.5302 115.347 78.6132C115.47 81.0184 117.526 82.875 119.931 82.7523C122.336 82.6296 124.193 80.5733 124.07 78.1683C123.948 75.7631 121.891 73.9065 119.486 74.0292C117.933 74.1083 116.619 74.9991 115.908 76.2639C115.907 76.2635 115.906 76.2627 115.905 76.2625L103.726 74L98.8758 90.5667C92.1326 90.7465 86.0147 92.5786 81.4246 95.498C80.1692 94.4116 78.5874 93.813 76.9114 93.813C73.1007 93.813 70 96.9135 70 100.724C70 103.081 71.2135 105.255 73.1784 106.523C73.059 107.213 72.9909 107.913 72.9909 108.624C72.9909 118.6 85.0834 126.716 99.9486 126.716C114.814 126.716 126.906 118.6 126.906 108.624C126.906 107.934 126.843 107.254 126.73 106.583C128.749 105.325 130 103.119 130 100.724ZM87.1369 105.428C87.1369 103.084 89.0378 101.182 91.3852 101.182C93.7303 101.182 95.6313 103.084 95.6313 105.428C95.6313 107.775 93.7303 109.676 91.3852 109.676C89.0378 109.676 87.1369 107.775 87.1369 105.428ZM109.96 116.916C109.834 117.048 106.786 120.149 99.8989 120.149C92.9763 120.149 90.2069 117.005 90.0929 116.872C89.7026 116.416 89.7558 115.73 90.2116 115.341C90.665 114.954 91.3446 115.004 91.736 115.453C91.798 115.52 94.1094 117.978 99.8991 117.978C105.789 117.978 108.372 115.433 108.398 115.409C108.815 114.983 109.502 114.973 109.93 115.39C110.356 115.806 110.372 116.485 109.96 116.916ZM109.116 109.676C106.768 109.676 104.867 107.775 104.867 105.428C104.867 103.084 106.768 101.182 109.116 101.182C111.461 101.182 113.362 103.084 113.362 105.428C113.362 107.775 111.461 109.676 109.116 109.676Z" fill="#FF4301"/>
</g>
<path d="M110.322 117.261L110.322 117.261C110.125 117.467 106.954 120.649 99.8989 120.649C92.8045 120.649 89.9041 117.42 89.7131 117.197C89.713 117.197 89.713 117.197 89.7129 117.197L90.0929 116.872C89.7026 116.416 89.7558 115.73 90.2116 115.341L110.322 117.261ZM110.322 117.261C110.925 116.63 110.899 115.638 110.279 115.033L110.279 115.032C109.654 114.424 108.656 114.438 108.046 115.053C108.033 115.066 107.999 115.097 107.943 115.145C107.868 115.209 107.753 115.301 107.596 115.414C107.282 115.639 106.8 115.943 106.138 116.248C104.816 116.858 102.77 117.478 99.8991 117.478C94.3897 117.478 92.1813 115.196 92.1069 115.117L110.322 117.261ZM118.263 95.9578L118.58 96.1607L118.863 95.912C120.035 94.881 121.517 94.313 123.089 94.313C126.623 94.313 129.5 97.1897 129.5 100.724C129.5 102.943 128.341 104.99 126.466 106.159L126.181 106.336L126.237 106.666C126.346 107.312 126.406 107.964 126.406 108.624C126.406 113.394 123.515 117.78 118.723 120.996C113.935 124.21 107.295 126.216 99.9486 126.216C92.602 126.216 85.9625 124.21 81.174 120.996C76.382 117.78 73.4909 113.394 73.4909 108.624C73.4909 107.945 73.556 107.274 73.6711 106.608L73.7275 106.282L73.4496 106.103C71.6243 104.925 70.5 102.908 70.5 100.724C70.5 97.1896 73.3768 94.313 76.9114 94.313C78.4659 94.313 79.932 94.8675 81.0974 95.8761L81.3789 96.1197L81.6929 95.9199C86.197 93.0552 92.2242 91.2442 98.8891 91.0665L99.2533 91.0568L99.3557 90.7072L104.079 74.5741L115.784 76.7485L116.148 76.8577L116.344 76.5088C116.976 75.3845 118.14 74.5984 119.512 74.5285C121.641 74.4199 123.462 76.0644 123.571 78.1937C123.68 80.323 122.035 82.1444 119.906 82.253C117.776 82.3616 115.955 80.7171 115.846 78.5877L115.846 78.5876C115.846 78.5835 115.846 78.5729 115.849 78.5346C115.85 78.5311 115.85 78.5269 115.851 78.5224C115.854 78.4893 115.859 78.4313 115.859 78.3727L115.862 77.9546L115.451 77.8782L105.344 76.0006L104.9 75.918L104.773 76.3518L100.657 90.4303L100.475 91.0513L101.122 91.0704C107.771 91.2665 113.779 93.088 118.263 95.9578ZM91.3852 100.682C88.7618 100.682 86.6369 102.808 86.6369 105.428C86.6369 108.051 88.7618 110.176 91.3852 110.176C94.0066 110.176 96.1313 108.051 96.1313 105.428C96.1313 102.808 94.0065 100.682 91.3852 100.682ZM104.367 105.428C104.367 108.051 106.492 110.176 109.116 110.176C111.737 110.176 113.862 108.051 113.862 105.428C113.862 102.808 111.737 100.682 109.116 100.682C106.492 100.682 104.367 102.808 104.367 105.428Z" stroke="url(#paint1_linear_439_9129)"/>
<defs>
<filter id="filter0_bdi_439_9129" x="0" y="0" width="200" height="199.763" filterUnits="userSpaceOnUse" color-interpolation-filters="sRGB">
<feFlood flood-opacity="0" result="BackgroundImageFix"/>
<feGaussianBlur in="BackgroundImage" stdDeviation="2.71828"/>
<feComposite in2="SourceAlpha" operator="in" result="effect1_backgroundBlur_439_9129"/>
<feColorMatrix in="SourceAlpha" type="matrix" values="0 0 0 0 0 0 0 0 0 0 0 0 0 0 0 0 0 0 127 0" result="hardAlpha"/>
<feOffset/>
<feGaussianBlur stdDeviation="25"/>
<feComposite in2="hardAlpha" operator="out"/>
<feColorMatrix type="matrix" values="0 0 0 0 1 0 0 0 0 0.262745 0 0 0 0 0.00392157 0 0 0 0.15 0"/>
<feBlend mode="normal" in2="effect1_backgroundBlur_439_9129" result="effect2_dropShadow_439_9129"/>
<feBlend mode="normal" in="SourceGraphic" in2="effect2_dropShadow_439_9129" result="shape"/>
<feColorMatrix in="SourceAlpha" type="matrix" values="0 0 0 0 0 0 0 0 0 0 0 0 0 0 0 0 0 0 127 0" result="hardAlpha"/>
<feOffset/>
<feGaussianBlur stdDeviation="2"/>
<feComposite in2="hardAlpha" operator="arithmetic" k2="-1" k3="1"/>
<feColorMatrix type="matrix" values="0 0 0 0 1 0 0 0 0 1 0 0 0 0 1 0 0 0 0.3 0"/>
<feBlend mode="normal" in2="shape" result="effect3_innerShadow_439_9129"/>
</filter>
<filter id="filter1_i_439_9129" x="70" y="74" width="60" height="52.7168" filterUnits="userSpaceOnUse" color-interpolation-filters="sRGB">
<feFlood flood-opacity="0" result="BackgroundImageFix"/>
<feBlend mode="normal" in="SourceGraphic" in2="BackgroundImageFix" result="shape"/>
<feColorMatrix in="SourceAlpha" type="matrix" values="0 0 0 0 0 0 0 0 0 0 0 0 0 0 0 0 0 0 127 0" result="hardAlpha"/>
<feOffset/>
<feGaussianBlur stdDeviation="5"/>
<feComposite in2="hardAlpha" operator="arithmetic" k2="-1" k3="1"/>
<feColorMatrix type="matrix" values="0 0 0 0 1 0 0 0 0 1 0 0 0 0 1 0 0 0 0.4 0"/>
<feBlend mode="normal" in2="shape" result="effect1_innerShadow_439_9129"/>
</filter>
<linearGradient id="paint0_linear_439_9129" x1="50" y1="50" x2="50" y2="149.763" gradientUnits="userSpaceOnUse">
<stop stop-color="white" stop-opacity="0.3"/>
<stop offset="1" stop-color="white" stop-opacity="0.13"/>
</linearGradient>
<linearGradient id="paint1_linear_439_9129" x1="100" y1="74" x2="100" y2="126.716" gradientUnits="userSpaceOnUse">
<stop stop-color="white"/>
<stop offset="1" stop-color="white" stop-opacity="0"/>
</linearGradient>
</defs>
</svg>
