<svg width="200" height="200" viewBox="0 0 200 200" fill="none" xmlns="http://www.w3.org/2000/svg">
<g filter="url(#filter0_bdi_439_9111)">
<rect x="50" y="50" width="100" height="99.7625" rx="49.8813" fill="#0080FB" fill-opacity="0.2" shape-rendering="crispEdges"/>
<rect x="50.25" y="50.25" width="99.5" height="99.2625" rx="49.6313" stroke="url(#paint0_linear_439_9111)" stroke-width="0.5" shape-rendering="crispEdges"/>
</g>
<g filter="url(#filter1_i_439_9111)">
<path fill-rule="evenodd" clip-rule="evenodd" d="M87.6968 88.7181C84.17 88.7181 80.9891 90.8387 79.6326 94.0942C78.3949 97.0647 76.7244 104.429 75.9693 107.945C75.7601 108.919 75.6732 109.755 75.7403 110.506C75.9651 113.022 76.7449 114.223 77.4733 114.841C78.238 115.489 79.3997 115.879 81.0968 115.879C82.9651 115.879 84.7016 114.917 85.6919 113.332L90.3941 105.809L96.6458 95.3891L95.188 92.9595C95.188 92.9594 95.188 92.9594 95.188 92.9594C93.6091 90.3281 90.7655 88.7181 87.6968 88.7181ZM99.98 89.8352C97.3468 85.5896 92.7028 83 87.6968 83C81.8616 83 76.5987 86.5086 74.3544 91.895C72.8671 95.4644 71.0884 103.44 70.3787 106.744C70.105 108.018 69.9073 109.476 70.0449 111.015C70.3616 114.559 71.5861 117.346 73.7754 119.202C75.9284 121.028 78.598 121.597 81.0968 121.597C84.9366 121.597 88.5057 119.619 90.5408 116.363L95.2569 108.817L95.284 108.773L99.98 100.946L104.676 108.773L104.703 108.817L109.419 116.363C111.454 119.619 115.023 121.597 118.863 121.597C121.673 121.597 124.594 120.796 126.787 118.493C128.962 116.209 130 112.889 130 108.731C130 106.093 129 102.253 128.072 99.1779C127.105 95.9735 126.063 93.1172 125.742 92.2542C125.667 92.053 125.578 91.8231 125.47 91.5793C123.154 86.3718 117.983 83 112.263 83C107.257 83 102.613 85.5896 99.98 89.8352ZM103.314 95.3891L109.566 105.809L114.268 113.332C115.258 114.917 116.995 115.879 118.863 115.879C120.625 115.879 121.843 115.392 122.646 114.55C123.467 113.688 124.282 112.004 124.282 108.731C124.282 107.061 123.554 103.999 122.598 100.829C121.681 97.7893 120.684 95.0589 120.382 94.2455C120.329 94.1022 120.286 93.9949 120.245 93.9028C118.845 90.756 115.721 88.7181 112.263 88.7181C109.194 88.7181 106.351 90.3282 104.772 92.9595L103.314 95.3891Z" fill="#0080FB"/>
</g>
<path d="M90.6061 105.941L90.6061 105.941L90.6084 105.937L96.8602 95.5177L96.9374 95.3891L96.8602 95.2605L95.438 92.8902V92.8901L95.4024 92.8308C93.7783 90.1242 90.8533 88.4681 87.6968 88.4681C84.0691 88.4681 80.7971 90.6494 79.4018 93.9981C78.7748 95.5029 78.0439 98.1038 77.3775 100.754C76.7098 103.41 76.1027 106.133 75.7248 107.892L75.9693 107.945L75.7248 107.892C75.5129 108.879 75.4211 109.743 75.4913 110.528L75.7403 110.506L75.4913 110.528C75.7202 113.089 76.5196 114.36 77.3116 115.032C78.1368 115.731 79.3642 116.129 81.0968 116.129C83.0513 116.129 84.8679 115.122 85.9039 113.465L90.6061 105.941ZM99.7676 89.9669L99.98 90.3095L100.192 89.9669C102.78 85.7948 107.344 83.25 112.263 83.25C117.884 83.25 122.965 86.5634 125.241 91.6809C125.347 91.9182 125.434 92.1427 125.508 92.3411L125.508 92.3412C125.827 93.2021 126.868 96.0529 127.833 99.2501C128.761 102.329 129.75 106.136 129.75 108.731C129.75 112.851 128.721 116.099 126.606 118.321C124.473 120.559 121.628 121.347 118.863 121.347C115.109 121.347 111.621 119.413 109.631 116.23L104.916 108.687L104.915 108.685L104.89 108.644L104.889 108.642L100.194 100.818L99.98 100.46L99.7657 100.818L95.0709 108.642L95.0697 108.644L95.0449 108.685L95.0437 108.687L90.3288 116.23C88.3393 119.413 84.8504 121.347 81.0968 121.347C78.6328 121.347 76.0292 120.786 73.9371 119.012L73.7754 119.202L73.9371 119.012C71.8118 117.21 70.6066 114.492 70.2939 110.993C70.1594 109.488 70.3523 108.058 70.6231 106.797L70.3787 106.744L70.6231 106.797C71.3348 103.483 73.1088 95.5344 74.5851 91.9911C76.7906 86.6979 81.9625 83.25 87.6968 83.25C92.6162 83.25 97.1799 85.7948 99.7676 89.9669ZM103.1 95.2605L103.023 95.3891L103.1 95.5178L109.351 105.937L109.351 105.937L109.354 105.941L114.056 113.465C115.092 115.122 116.909 116.129 118.863 116.129C120.671 116.129 121.964 115.628 122.827 114.722C123.707 113.798 124.532 112.044 124.532 108.731C124.532 107.019 123.792 103.923 122.837 100.757C121.918 97.71 120.919 94.9743 120.616 94.1586C120.562 94.0126 120.517 93.8999 120.473 93.8013L120.473 93.8012C119.034 90.5643 115.819 88.4681 112.263 88.4681C109.107 88.4681 106.182 90.1242 104.558 92.8309L103.1 95.2605Z" stroke="url(#paint1_linear_439_9111)" stroke-width="0.5"/>
<defs>
<filter id="filter0_bdi_439_9111" x="0" y="0" width="200" height="199.763" filterUnits="userSpaceOnUse" color-interpolation-filters="sRGB">
<feFlood flood-opacity="0" result="BackgroundImageFix"/>
<feGaussianBlur in="BackgroundImage" stdDeviation="2.71828"/>
<feComposite in2="SourceAlpha" operator="in" result="effect1_backgroundBlur_439_9111"/>
<feColorMatrix in="SourceAlpha" type="matrix" values="0 0 0 0 0 0 0 0 0 0 0 0 0 0 0 0 0 0 127 0" result="hardAlpha"/>
<feOffset/>
<feGaussianBlur stdDeviation="25"/>
<feComposite in2="hardAlpha" operator="out"/>
<feColorMatrix type="matrix" values="0 0 0 0 0 0 0 0 0 0.501961 0 0 0 0 0.984314 0 0 0 0.15 0"/>
<feBlend mode="normal" in2="effect1_backgroundBlur_439_9111" result="effect2_dropShadow_439_9111"/>
<feBlend mode="normal" in="SourceGraphic" in2="effect2_dropShadow_439_9111" result="shape"/>
<feColorMatrix in="SourceAlpha" type="matrix" values="0 0 0 0 0 0 0 0 0 0 0 0 0 0 0 0 0 0 127 0" result="hardAlpha"/>
<feOffset/>
<feGaussianBlur stdDeviation="2"/>
<feComposite in2="hardAlpha" operator="arithmetic" k2="-1" k3="1"/>
<feColorMatrix type="matrix" values="0 0 0 0 1 0 0 0 0 1 0 0 0 0 1 0 0 0 0.3 0"/>
<feBlend mode="normal" in2="shape" result="effect3_innerShadow_439_9111"/>
</filter>
<filter id="filter1_i_439_9111" x="70" y="83" width="60" height="38.5967" filterUnits="userSpaceOnUse" color-interpolation-filters="sRGB">
<feFlood flood-opacity="0" result="BackgroundImageFix"/>
<feBlend mode="normal" in="SourceGraphic" in2="BackgroundImageFix" result="shape"/>
<feColorMatrix in="SourceAlpha" type="matrix" values="0 0 0 0 0 0 0 0 0 0 0 0 0 0 0 0 0 0 127 0" result="hardAlpha"/>
<feOffset/>
<feGaussianBlur stdDeviation="5"/>
<feComposite in2="hardAlpha" operator="arithmetic" k2="-1" k3="1"/>
<feColorMatrix type="matrix" values="0 0 0 0 1 0 0 0 0 1 0 0 0 0 1 0 0 0 0.4 0"/>
<feBlend mode="normal" in2="shape" result="effect1_innerShadow_439_9111"/>
</filter>
<linearGradient id="paint0_linear_439_9111" x1="50" y1="50" x2="50" y2="149.763" gradientUnits="userSpaceOnUse">
<stop stop-color="white" stop-opacity="0.3"/>
<stop offset="1" stop-color="white" stop-opacity="0.13"/>
</linearGradient>
<linearGradient id="paint1_linear_439_9111" x1="100" y1="83" x2="100" y2="121.597" gradientUnits="userSpaceOnUse">
<stop stop-color="white" stop-opacity="0.4"/>
<stop offset="1" stop-color="white" stop-opacity="0"/>
</linearGradient>
</defs>
</svg>
