<svg width="116" height="100" viewBox="0 0 116 100" fill="none" xmlns="http://www.w3.org/2000/svg">
<g filter="url(#filter0_i_665_1976)">
<path d="M74.8712 44.3423C74.8712 45.0656 74.2628 45.6574 73.5192 45.6574H71.2249V50.5518H67.0083V49.1135C67.0083 47.9505 66.0323 47.0049 64.8408 47.0049C63.6451 47.0049 62.6734 47.9505 62.6734 49.1135V50.5518H58.4609V46.4505H59.9308C59.9351 46.4505 59.9351 46.4505 59.9351 46.4505H59.9439C61.135 46.4505 62.1114 45.5012 62.1114 44.3423C62.1114 43.1793 61.135 42.2341 59.9439 42.2341H58.4609V38.1287H63.4846V35.9013C63.4846 35.1739 64.0926 34.5822 64.8408 34.5822C65.2126 34.5822 65.5506 34.7301 65.7957 34.9684C66.0408 35.2068 66.1929 35.5356 66.1929 35.9013V38.1287H71.2249V43.0231H73.5192C74.2628 43.0231 74.8712 43.6149 74.8712 44.3423Z" fill="url(#paint0_linear_665_1976)"/>
</g>
<path d="M71.2249 45.4074H70.9749V45.6574V50.3018H67.2583V49.1135C67.2583 47.8057 66.1635 46.7549 64.8408 46.7549C63.5136 46.7549 62.4234 47.806 62.4234 49.1135V50.3018H58.7109V46.7005H59.9308H59.9309H59.9309H59.9309H59.9309H59.931H59.931H59.931H59.931H59.9311H59.9311H59.9311H59.9311H59.9312H59.9312H59.9312H59.9312H59.9313H59.9313H59.9313H59.9313H59.9313H59.9314H59.9314H59.9314H59.9314H59.9315H59.9315H59.9315H59.9315H59.9315H59.9316H59.9316H59.9316H59.9316H59.9317H59.9317H59.9317H59.9317H59.9317H59.9318H59.9318H59.9318H59.9318H59.9318H59.9319H59.9319H59.9319H59.9319H59.9319H59.932H59.932H59.932H59.932H59.932H59.9321H59.9321H59.9321H59.9321H59.9321H59.9322H59.9322H59.9322H59.9322H59.9322H59.9323H59.9323H59.9323H59.9323H59.9323H59.9324H59.9324H59.9324H59.9324H59.9324H59.9324H59.9325H59.9325H59.9325H59.9325H59.9325H59.9326H59.9326H59.9326H59.9326H59.9326H59.9326H59.9327H59.9327H59.9327H59.9327H59.9327H59.9327H59.9328H59.9328H59.9328H59.9328H59.9328H59.9328H59.9329H59.9329H59.9329H59.9329H59.9329H59.9329H59.933H59.933H59.933H59.933H59.933H59.933H59.933H59.9331H59.9331H59.9331H59.9331H59.9331H59.9331H59.9331H59.9332H59.9332H59.9332H59.9332H59.9332H59.9332H59.9332H59.9333H59.9333H59.9333H59.9333H59.9333H59.9333H59.9333H59.9334H59.9334H59.9334H59.9334H59.9334H59.9334H59.9334H59.9335H59.9335H59.9335H59.9335H59.9335H59.9335H59.9335H59.9335H59.9336H59.9336H59.9336H59.9336H59.9336H59.9336H59.9336H59.9336H59.9337H59.9337H59.9337H59.9337H59.9337H59.9337H59.9337H59.9337H59.9337H59.9338H59.9338H59.9338H59.9338H59.9338H59.9338H59.9338H59.9338H59.9338H59.9339H59.9339H59.9339H59.9339H59.9339H59.9339H59.9339H59.9339H59.9339H59.934H59.934H59.934H59.934H59.934H59.934H59.934H59.934H59.934H59.934H59.9341H59.9341H59.9341H59.9341H59.9341H59.9341H59.9341H59.9341H59.9341H59.9341H59.9341H59.9342H59.9342H59.9342H59.9342H59.9342H59.9342H59.9342H59.9342H59.9342H59.9342H59.9342H59.9342H59.9343H59.9343H59.9343H59.9343H59.9343H59.9343H59.9343H59.9343H59.9343H59.9343H59.9343H59.9343H59.9344H59.9344H59.9344H59.9344H59.9344H59.9344H59.9344H59.9344H59.9344H59.9344H59.9344H59.9345H59.9345H59.9345H59.9345H59.9345H59.9345H59.9345H59.9345H59.9346H59.9346H59.9346H59.9346H59.9346H59.9346H59.9346H59.9346H59.9346H59.9347H59.9347H59.9347H59.9347H59.9347H59.9347H59.9347H59.9347H59.9347H59.9347H59.9348H59.9348H59.9348H59.9348H59.9348H59.9348H59.9348H59.9348H59.9348H59.9348H59.9348H59.9348H59.9349H59.9349H59.9349H59.9349H59.9349H59.9349H59.9349H59.9349H59.9349H59.9349H59.9349H59.935H59.935H59.935H59.935H59.935H59.935H59.935H59.935H59.935H59.935H59.935H59.935H59.9351H59.9351H59.9351H59.9351H59.9439C61.2665 46.7005 62.3614 45.6458 62.3614 44.3423C62.3614 43.0344 61.2661 41.9841 59.9439 41.9841H58.7109V38.3787H63.4846H63.7346V38.1287V35.9013C63.7346 35.3184 64.2241 34.8322 64.8408 34.8322C65.1454 34.8322 65.4214 34.9532 65.6214 35.1477C65.8209 35.3418 65.9429 35.607 65.9429 35.9013V38.1287V38.3787H66.1929H70.9749V43.0231V43.2731H71.2249H73.5192C74.1308 43.2731 74.6212 43.759 74.6212 44.3423C74.6212 44.921 74.1313 45.4074 73.5192 45.4074H71.2249Z" stroke="url(#paint1_linear_665_1976)" stroke-width="0.5"/>
<g filter="url(#filter1_i_665_1976)">
<path d="M61.0254 44.2628C61.0254 44.9802 60.4229 45.5671 59.6772 45.5671H57.3894V50.4217H52.3799V52.635C52.3799 53.3564 51.7732 53.9393 51.0317 53.9393C50.286 53.9393 49.6793 53.3524 49.6793 52.635V50.4217H44.6614V45.5671H42.3736C41.6321 45.5671 41.0254 44.9802 41.0254 44.2628C41.0254 43.5409 41.6321 42.9544 42.3736 42.9544H44.6614V38.0998H49.6793V35.8906C49.6793 35.1691 50.2818 34.5822 51.0275 34.5822C51.769 34.5822 52.3715 35.1691 52.3715 35.8906V38.0998H57.3894V42.9544H59.6772C60.4229 42.9544 61.0254 43.5413 61.0254 44.2628Z" fill="url(#paint2_linear_665_1976)"/>
</g>
<path d="M57.3894 45.3171H57.1394V45.5671V50.1717H52.3799H52.1299V50.4217V52.635C52.1299 53.2101 51.6435 53.6893 51.0317 53.6893C50.4157 53.6893 49.9293 53.2061 49.9293 52.635V50.4217V50.1717H49.6793H44.9114V45.5671V45.3171H44.6614H42.3736C41.7623 45.3171 41.2754 44.8344 41.2754 44.2628C41.2754 43.6863 41.7628 43.2044 42.3736 43.2044H44.6614H44.9114V42.9544V38.3498H49.6793H49.9293V38.0998V35.8906C49.9293 35.3139 50.413 34.8322 51.0275 34.8322C51.6373 34.8322 52.1215 35.3134 52.1215 35.8906V38.0998V38.3498H52.3715H57.1394V42.9544V43.2044H57.3894H59.6772C60.2917 43.2044 60.7754 43.6861 60.7754 44.2628C60.7754 44.8349 60.2922 45.3171 59.6772 45.3171H57.3894Z" stroke="url(#paint3_linear_665_1976)" stroke-width="0.5"/>
<g filter="url(#filter2_i_665_1976)">
<path d="M53.7913 31.4604C53.7913 32.5882 54.7625 33.5047 55.9576 33.5047H57.4356V37.4857H53.2296V36.091C53.2296 34.9632 52.2541 34.0467 51.0633 34.0467C51.059 34.0467 51.059 34.0467 51.059 34.0467C51.0548 34.0467 51.0548 34.0467 51.0548 34.0467C49.8597 34.0467 48.8885 34.9632 48.8885 36.091V37.4857H44.6698V32.7396H42.3767C41.6335 32.7396 41.0254 32.1658 41.0254 31.4644C41.0254 30.759 41.6335 30.1852 42.3767 30.1852H44.6698V25.4391H49.6993V23.2752C49.6993 22.5738 50.3074 22 51.0548 22C51.7981 22 52.4062 22.5738 52.4062 23.2752V25.4391H57.4356V29.4201H55.9576C54.7625 29.4201 53.7913 30.3366 53.7913 31.4604Z" fill="url(#paint4_linear_665_1976)"/>
</g>
<path d="M52.4062 25.6891H57.1856V29.1701H55.9576C54.6387 29.1701 53.5413 30.1848 53.5413 31.4604C53.5413 32.7397 54.6383 33.7547 55.9576 33.7547H57.1856V37.2357H53.4796V36.091C53.4796 34.8114 52.378 33.7967 51.0633 33.7967H51.0632H51.0632H51.0632H51.0632H51.0631H51.0631H51.0631H51.0631H51.063H51.063H51.063H51.063H51.063H51.0629H51.0629H51.0629H51.0629H51.0628H51.0628H51.0628H51.0628H51.0627H51.0627H51.0627H51.0627H51.0627H51.0626H51.0626H51.0626H51.0626H51.0625H51.0625H51.0625H51.0625H51.0625H51.0624H51.0624H51.0624H51.0624H51.0624H51.0623H51.0623H51.0623H51.0623H51.0622H51.0622H51.0622H51.0622H51.0622H51.0621H51.0621H51.0621H51.0621H51.0621H51.062H51.062H51.062H51.062H51.062H51.0619H51.0619H51.0619H51.0619H51.0619H51.0619H51.0618H51.0618H51.0618H51.0618H51.0618H51.0617H51.0617H51.0617H51.0617H51.0617H51.0616H51.0616H51.0616H51.0616H51.0616H51.0616H51.0615H51.0615H51.0615H51.0615H51.0615H51.0615H51.0614H51.0614H51.0614H51.0614H51.0614H51.0614H51.0613H51.0613H51.0613H51.0613H51.0613H51.0613H51.0612H51.0612H51.0612H51.0612H51.0612H51.0612H51.0611H51.0611H51.0611H51.0611H51.0611H51.0611H51.0611H51.061H51.061H51.061H51.061H51.061H51.061H51.061H51.0609H51.0609H51.0609H51.0609H51.0609H51.0609H51.0609H51.0608H51.0608H51.0608H51.0608H51.0608H51.0608H51.0608H51.0607H51.0607H51.0607H51.0607H51.0607H51.0607H51.0607H51.0606H51.0606H51.0606H51.0606H51.0606H51.0606H51.0606H51.0606H51.0605H51.0605H51.0605H51.0605H51.0605H51.0605H51.0605H51.0605H51.0604H51.0604H51.0604H51.0604H51.0604H51.0604H51.0604H51.0604H51.0604H51.0603H51.0603H51.0603H51.0603H51.0603H51.0603H51.0603H51.0603H51.0603H51.0602H51.0602H51.0602H51.0602H51.0602H51.0602H51.0602H51.0602H51.0602H51.0602H51.0601H51.0601H51.0601H51.0601H51.0601H51.0601H51.0601H51.0601H51.0601H51.0601H51.06H51.06H51.06H51.06H51.06H51.06H51.06H51.06H51.06H51.06H51.06H51.0599H51.0599H51.0599H51.0599H51.0599H51.0599H51.0599H51.0599H51.0599H51.0599H51.0599H51.0598H51.0598H51.0598H51.0598H51.0598H51.0598H51.0598H51.0598H51.0598H51.0598H51.0598H51.0598H51.0598H51.0597H51.0597H51.0597H51.0597H51.0597H51.0597H51.0597H51.0597H51.0596H51.0596H51.0596H51.0596H51.0596H51.0596H51.0596H51.0596H51.0596H51.0595H51.0595H51.0595H51.0595H51.0595H51.0595H51.0595H51.0595H51.0595H51.0594H51.0594H51.0594H51.0594H51.0594H51.0594H51.0594H51.0594H51.0594H51.0594H51.0593H51.0593H51.0593H51.0593H51.0593H51.0593H51.0593H51.0593H51.0593H51.0593H51.0593H51.0593H51.0592H51.0592H51.0592H51.0592H51.0592H51.0592H51.0592H51.0592H51.0592H51.0592H51.0592H51.0591H51.0591H51.0591H51.0591H51.0591H51.0591H51.0591H51.0591H51.0591H51.0591H51.0591H51.0591H51.0591H51.059H51.059H51.059H51.059H51.0589H51.0589H51.0589H51.0589H51.0588H51.0588H51.0588H51.0588H51.0588H51.0587H51.0587H51.0587H51.0587H51.0586H51.0586H51.0586H51.0586H51.0585H51.0585H51.0585H51.0585H51.0585H51.0584H51.0584H51.0584H51.0584H51.0583H51.0583H51.0583H51.0583H51.0583H51.0582H51.0582H51.0582H51.0582H51.0581H51.0581H51.0581H51.0581H51.0581H51.058H51.058H51.058H51.058H51.058H51.0579H51.0579H51.0579H51.0579H51.0579H51.0578H51.0578H51.0578H51.0578H51.0578H51.0577H51.0577H51.0577H51.0577H51.0577H51.0576H51.0576H51.0576H51.0576H51.0576H51.0576H51.0575H51.0575H51.0575H51.0575H51.0575H51.0574H51.0574H51.0574H51.0574H51.0574H51.0574H51.0573H51.0573H51.0573H51.0573H51.0573H51.0573H51.0572H51.0572H51.0572H51.0572H51.0572H51.0571H51.0571H51.0571H51.0571H51.0571H51.0571H51.0571H51.057H51.057H51.057H51.057H51.057H51.057H51.0569H51.0569H51.0569H51.0569H51.0569H51.0569H51.0568H51.0568H51.0568H51.0568H51.0568H51.0568H51.0568H51.0567H51.0567H51.0567H51.0567H51.0567H51.0567H51.0567H51.0566H51.0566H51.0566H51.0566H51.0566H51.0566H51.0566H51.0565H51.0565H51.0565H51.0565H51.0565H51.0565H51.0565H51.0565H51.0564H51.0564H51.0564H51.0564H51.0564H51.0564H51.0564H51.0563H51.0563H51.0563H51.0563H51.0563H51.0563H51.0563H51.0563H51.0562H51.0562H51.0562H51.0562H51.0562H51.0562H51.0562H51.0562H51.0562H51.0561H51.0561H51.0561H51.0561H51.0561H51.0561H51.0561H51.0561H51.0561H51.056H51.056H51.056H51.056H51.056H51.056H51.056H51.056H51.056H51.0559H51.0559H51.0559H51.0559H51.0559H51.0559H51.0559H51.0559H51.0559H51.0559H51.0558H51.0558H51.0558H51.0558H51.0558H51.0558H51.0558H51.0558H51.0558H51.0558H51.0558H51.0557H51.0557H51.0557H51.0557H51.0557H51.0557H51.0557H51.0557H51.0557H51.0557H51.0557H51.0557H51.0556H51.0556H51.0556H51.0556H51.0556H51.0556H51.0556H51.0556H51.0556H51.0556H51.0556H51.0556H51.0555H51.0555H51.0555H51.0555H51.0555H51.0555H51.0555H51.0555H51.0555H51.0555H51.0554H51.0554H51.0554H51.0554H51.0554H51.0554H51.0554H51.0554H51.0553H51.0553H51.0553H51.0553H51.0553H51.0553H51.0553H51.0553H51.0553H51.0552H51.0552H51.0552H51.0552H51.0552H51.0552H51.0552H51.0552H51.0552H51.0552H51.0551H51.0551H51.0551H51.0551H51.0551H51.0551H51.0551H51.0551H51.0551H51.0551H51.0551H51.0551H51.055H51.055H51.055H51.055H51.055H51.055H51.055H51.055H51.055H51.055H51.055H51.0549H51.0549H51.0549H51.0549H51.0549H51.0549H51.0549H51.0549H51.0549H51.0549H51.0549H51.0549H51.0549H51.0548H51.0548H51.0548H51.0548C49.7355 33.7967 48.6385 34.8117 48.6385 36.091V37.2357H44.9198V32.7396V32.4896H44.6698H42.3767C41.7577 32.4896 41.2754 32.0142 41.2754 31.4644C41.2754 30.9101 41.7582 30.4352 42.3767 30.4352H44.6698H44.9198V30.1852V25.6891H49.6993H49.9493V25.4391V23.2752C49.9493 22.7259 50.4311 22.25 51.0548 22.25C51.6738 22.25 52.1562 22.7254 52.1562 23.2752V25.4391V25.6891H52.4062Z" stroke="url(#paint5_linear_665_1976)" stroke-width="0.5"/>
<g filter="url(#filter3_bdi_665_1976)">
<path fill-rule="evenodd" clip-rule="evenodd" d="M40 50.3099C40 45.0982 44.2249 40.8733 49.4366 40.8733H66.4608C71.6725 40.8733 75.8974 45.0982 75.8974 50.3099C75.8974 55.5216 71.6725 59.7465 66.4608 59.7465H49.4366C44.2249 59.7465 40 55.5216 40 50.3099Z" fill="#FFD36D" fill-opacity="0.5" shape-rendering="crispEdges"/>
<path d="M40.25 50.3099C40.25 45.2363 44.363 41.1233 49.4366 41.1233H66.4608C71.5345 41.1233 75.6474 45.2363 75.6474 50.3099C75.6474 55.3835 71.5344 59.4965 66.4608 59.4965H49.4366C44.363 59.4965 40.25 55.3835 40.25 50.3099Z" stroke="url(#paint6_linear_665_1976)" stroke-width="0.5" shape-rendering="crispEdges"/>
</g>
<defs>
<filter id="filter0_i_665_1976" x="58.4609" y="34.5822" width="16.4102" height="15.9697" filterUnits="userSpaceOnUse" color-interpolation-filters="sRGB">
<feFlood flood-opacity="0" result="BackgroundImageFix"/>
<feBlend mode="normal" in="SourceGraphic" in2="BackgroundImageFix" result="shape"/>
<feColorMatrix in="SourceAlpha" type="matrix" values="0 0 0 0 0 0 0 0 0 0 0 0 0 0 0 0 0 0 127 0" result="hardAlpha"/>
<feOffset/>
<feGaussianBlur stdDeviation="5"/>
<feComposite in2="hardAlpha" operator="arithmetic" k2="-1" k3="1"/>
<feColorMatrix type="matrix" values="0 0 0 0 1 0 0 0 0 1 0 0 0 0 1 0 0 0 0.4 0"/>
<feBlend mode="normal" in2="shape" result="effect1_innerShadow_665_1976"/>
</filter>
<filter id="filter1_i_665_1976" x="41.0254" y="34.5822" width="20" height="19.3572" filterUnits="userSpaceOnUse" color-interpolation-filters="sRGB">
<feFlood flood-opacity="0" result="BackgroundImageFix"/>
<feBlend mode="normal" in="SourceGraphic" in2="BackgroundImageFix" result="shape"/>
<feColorMatrix in="SourceAlpha" type="matrix" values="0 0 0 0 0 0 0 0 0 0 0 0 0 0 0 0 0 0 127 0" result="hardAlpha"/>
<feOffset/>
<feGaussianBlur stdDeviation="5"/>
<feComposite in2="hardAlpha" operator="arithmetic" k2="-1" k3="1"/>
<feColorMatrix type="matrix" values="0 0 0 0 1 0 0 0 0 1 0 0 0 0 1 0 0 0 0.4 0"/>
<feBlend mode="normal" in2="shape" result="effect1_innerShadow_665_1976"/>
</filter>
<filter id="filter2_i_665_1976" x="41.0254" y="22" width="16.4102" height="15.4857" filterUnits="userSpaceOnUse" color-interpolation-filters="sRGB">
<feFlood flood-opacity="0" result="BackgroundImageFix"/>
<feBlend mode="normal" in="SourceGraphic" in2="BackgroundImageFix" result="shape"/>
<feColorMatrix in="SourceAlpha" type="matrix" values="0 0 0 0 0 0 0 0 0 0 0 0 0 0 0 0 0 0 127 0" result="hardAlpha"/>
<feOffset/>
<feGaussianBlur stdDeviation="5"/>
<feComposite in2="hardAlpha" operator="arithmetic" k2="-1" k3="1"/>
<feColorMatrix type="matrix" values="0 0 0 0 1 0 0 0 0 1 0 0 0 0 1 0 0 0 0.4 0"/>
<feBlend mode="normal" in2="shape" result="effect1_innerShadow_665_1976"/>
</filter>
<filter id="filter3_bdi_665_1976" x="0" y="0.873291" width="115.896" height="98.8733" filterUnits="userSpaceOnUse" color-interpolation-filters="sRGB">
<feFlood flood-opacity="0" result="BackgroundImageFix"/>
<feGaussianBlur in="BackgroundImage" stdDeviation="2.71828"/>
<feComposite in2="SourceAlpha" operator="in" result="effect1_backgroundBlur_665_1976"/>
<feColorMatrix in="SourceAlpha" type="matrix" values="0 0 0 0 0 0 0 0 0 0 0 0 0 0 0 0 0 0 127 0" result="hardAlpha"/>
<feOffset/>
<feGaussianBlur stdDeviation="20"/>
<feComposite in2="hardAlpha" operator="out"/>
<feColorMatrix type="matrix" values="0 0 0 0 1 0 0 0 0 0.827451 0 0 0 0 0.427451 0 0 0 0.5 0"/>
<feBlend mode="normal" in2="effect1_backgroundBlur_665_1976" result="effect2_dropShadow_665_1976"/>
<feBlend mode="normal" in="SourceGraphic" in2="effect2_dropShadow_665_1976" result="shape"/>
<feColorMatrix in="SourceAlpha" type="matrix" values="0 0 0 0 0 0 0 0 0 0 0 0 0 0 0 0 0 0 127 0" result="hardAlpha"/>
<feOffset/>
<feGaussianBlur stdDeviation="2"/>
<feComposite in2="hardAlpha" operator="arithmetic" k2="-1" k3="1"/>
<feColorMatrix type="matrix" values="0 0 0 0 1 0 0 0 0 1 0 0 0 0 1 0 0 0 0.3 0"/>
<feBlend mode="normal" in2="shape" result="effect3_innerShadow_665_1976"/>
</filter>
<linearGradient id="paint0_linear_665_1976" x1="58.4609" y1="34.5822" x2="58.4609" y2="50.5518" gradientUnits="userSpaceOnUse">
<stop stop-color="#FFCF00"/>
<stop offset="1" stop-color="#FF8800"/>
</linearGradient>
<linearGradient id="paint1_linear_665_1976" x1="58.4609" y1="34.5822" x2="58.4609" y2="50.5518" gradientUnits="userSpaceOnUse">
<stop stop-color="white" stop-opacity="0.4"/>
<stop offset="1" stop-color="white" stop-opacity="0.01"/>
</linearGradient>
<linearGradient id="paint2_linear_665_1976" x1="41.0254" y1="34.5822" x2="41.0254" y2="53.9393" gradientUnits="userSpaceOnUse">
<stop stop-color="#FFCF00"/>
<stop offset="1" stop-color="#FF8800"/>
</linearGradient>
<linearGradient id="paint3_linear_665_1976" x1="41.0254" y1="34.5822" x2="41.0254" y2="53.9393" gradientUnits="userSpaceOnUse">
<stop stop-color="white" stop-opacity="0.4"/>
<stop offset="1" stop-color="white" stop-opacity="0.01"/>
</linearGradient>
<linearGradient id="paint4_linear_665_1976" x1="41.0254" y1="22" x2="41.0254" y2="37.4857" gradientUnits="userSpaceOnUse">
<stop stop-color="#FFCF00"/>
<stop offset="1" stop-color="#FF8800"/>
</linearGradient>
<linearGradient id="paint5_linear_665_1976" x1="41.0254" y1="22" x2="41.0254" y2="37.4857" gradientUnits="userSpaceOnUse">
<stop stop-color="white" stop-opacity="0.4"/>
<stop offset="1" stop-color="white" stop-opacity="0.01"/>
</linearGradient>
<linearGradient id="paint6_linear_665_1976" x1="40" y1="40.8733" x2="40" y2="59.7465" gradientUnits="userSpaceOnUse">
<stop stop-color="white" stop-opacity="0.3"/>
<stop offset="1" stop-color="white" stop-opacity="0.13"/>
</linearGradient>
</defs>
</svg>
