<svg width="80" height="80" viewBox="0 0 80 80" fill="none" xmlns="http://www.w3.org/2000/svg">
<g filter="url(#filter0_bdi_491_4725)">
<rect x="20" y="20" width="40" height="40" rx="6" fill="#47F49A" fill-opacity="0.15" shape-rendering="crispEdges"/>
<rect x="20.25" y="20.25" width="39.5" height="39.5" rx="5.75" stroke="url(#paint0_linear_491_4725)" stroke-width="0.5" shape-rendering="crispEdges"/>
</g>
<g filter="url(#filter1_i_491_4725)">
<path d="M40.0641 44.326C40.0201 44.3553 40.0054 44.3847 40.0201 44.414C40.0348 44.4433 40.0641 44.458 40.1081 44.458H45.3441C45.4468 44.458 45.5274 44.4873 45.5861 44.546C45.6448 44.6047 45.6741 44.6853 45.6741 44.788V47.67C45.6741 47.7727 45.6448 47.8533 45.5861 47.912C45.5274 47.9707 45.4468 48 45.3441 48H34.7841C34.6814 48 34.6008 47.9707 34.5421 47.912C34.4834 47.8533 34.4541 47.7727 34.4541 47.67V44.964C34.4541 44.8027 34.5128 44.6707 34.6301 44.568C35.2901 43.996 35.9501 43.3727 36.6101 42.698C37.2848 42.0233 37.7101 41.598 37.8861 41.422C37.8861 41.422 38.3774 40.9307 39.3601 39.948C40.6801 38.6573 41.3401 37.7333 41.3401 37.176C41.3401 36.824 41.2081 36.538 40.9441 36.318C40.6801 36.0833 40.3428 35.966 39.9321 35.966C39.5068 35.966 39.1621 36.0833 38.8981 36.318C38.6341 36.538 38.5021 36.8387 38.5021 37.22V37.66C38.5021 37.7627 38.4728 37.8433 38.4141 37.902C38.3554 37.9607 38.2748 37.99 38.1721 37.99H34.6521C34.5494 37.99 34.4688 37.9607 34.4101 37.902C34.3514 37.8433 34.3221 37.7627 34.3221 37.66V36.56C34.3808 35.724 34.6594 34.998 35.1581 34.382C35.6714 33.7513 36.3388 33.2673 37.1601 32.93C37.9961 32.5927 38.9201 32.424 39.9321 32.424C41.0614 32.424 42.0514 32.6367 42.9021 33.062C43.7528 33.4727 44.3981 34.0373 44.8381 34.756C45.2928 35.46 45.5201 36.2373 45.5201 37.088C45.5201 37.6893 45.3734 38.2833 45.0801 38.87C44.8014 39.4567 44.3834 40.0727 43.8261 40.718C43.2394 41.378 42.3008 42.2873 41.0101 43.446L40.0641 44.326Z" fill="url(#paint1_linear_491_4725)"/>
</g>
<path d="M40.0641 44.326L40.3415 44.742L40.3751 44.7196L40.4047 44.6921L40.0641 44.326ZM40.0201 44.414L39.5729 44.6376L39.5729 44.6376L40.0201 44.414ZM45.5861 44.546L45.9397 44.1924L45.9397 44.1924L45.5861 44.546ZM45.5861 47.912L45.9397 48.2656L45.9397 48.2656L45.5861 47.912ZM34.6301 44.568L34.3026 44.1902L34.3009 44.1917L34.6301 44.568ZM36.6101 42.698L36.2565 42.3444L36.2527 42.3484L36.6101 42.698ZM37.8861 41.422L37.5326 41.0684L37.8861 41.422ZM39.3601 39.948L39.0105 39.5905L39.0066 39.5944L39.3601 39.948ZM40.9441 36.318L40.6119 36.6917L40.6179 36.697L40.624 36.7021L40.9441 36.318ZM38.8981 36.318L39.2182 36.7021L39.2243 36.697L39.2303 36.6917L38.8981 36.318ZM38.4141 37.902L38.0606 37.5484L38.0606 37.5484L38.4141 37.902ZM34.3221 36.56L33.8233 36.525L33.8221 36.5425V36.56H34.3221ZM35.1581 34.382L34.7703 34.0664L34.7695 34.0674L35.1581 34.382ZM37.1601 32.93L36.973 32.4663L36.9701 32.4675L37.1601 32.93ZM42.9021 33.062L42.6785 33.5093L42.6847 33.5123L42.9021 33.062ZM44.8381 34.756L44.4116 35.0172L44.4181 35.0273L44.8381 34.756ZM45.0801 38.87L44.6328 38.6463L44.6285 38.6555L45.0801 38.87ZM43.8261 40.718L44.1999 41.0502L44.2045 41.0448L43.8261 40.718ZM41.0101 43.446L40.676 43.0739L40.6696 43.0799L41.0101 43.446ZM39.7868 43.91C39.7322 43.9464 39.6361 44.0201 39.5729 44.1464C39.4952 44.3018 39.4952 44.4822 39.5729 44.6376L40.4673 44.1904C40.4942 44.2442 40.5146 44.313 40.5146 44.392C40.5146 44.4711 40.4942 44.5398 40.4673 44.5936C40.4188 44.6906 40.352 44.735 40.3415 44.742L39.7868 43.91ZM39.5729 44.6376C39.7014 44.8947 39.9502 44.958 40.1081 44.958V43.958C40.1384 43.958 40.2024 43.9626 40.2767 43.9998C40.3588 44.0408 40.4263 44.1083 40.4673 44.1904L39.5729 44.6376ZM40.1081 44.958H45.3441V43.958H40.1081V44.958ZM45.3441 44.958C45.3483 44.958 45.3347 44.9586 45.3107 44.9499C45.2848 44.9405 45.2567 44.9237 45.2326 44.8996L45.9397 44.1924C45.766 44.0188 45.546 43.958 45.3441 43.958V44.958ZM45.2326 44.8996C45.2084 44.8754 45.1916 44.8473 45.1822 44.8214C45.1735 44.7974 45.1741 44.7838 45.1741 44.788H46.1741C46.1741 44.5861 46.1133 44.3661 45.9397 44.1924L45.2326 44.8996ZM45.1741 44.788V47.67H46.1741V44.788H45.1741ZM45.1741 47.67C45.1741 47.6742 45.1735 47.6606 45.1822 47.6366C45.1916 47.6107 45.2084 47.5826 45.2326 47.5584L45.9397 48.2656C46.1133 48.0919 46.1741 47.8719 46.1741 47.67H45.1741ZM45.2326 47.5584C45.2567 47.5343 45.2848 47.5175 45.3107 47.5081C45.3347 47.4994 45.3483 47.5 45.3441 47.5V48.5C45.546 48.5 45.766 48.4392 45.9397 48.2656L45.2326 47.5584ZM45.3441 47.5H34.7841V48.5H45.3441V47.5ZM34.7841 47.5C34.7799 47.5 34.7935 47.4994 34.8175 47.5081C34.8434 47.5175 34.8715 47.5343 34.8957 47.5584L34.1886 48.2656C34.3622 48.4392 34.5822 48.5 34.7841 48.5V47.5ZM34.8957 47.5584C34.9198 47.5826 34.9366 47.6107 34.946 47.6366C34.9547 47.6606 34.9541 47.6742 34.9541 47.67H33.9541C33.9541 47.8719 34.0149 48.0919 34.1886 48.2656L34.8957 47.5584ZM34.9541 47.67V44.964H33.9541V47.67H34.9541ZM34.9541 44.964C34.9541 44.954 34.955 44.9485 34.9554 44.9466C34.9558 44.9447 34.9558 44.9452 34.955 44.9471C34.9547 44.9479 34.9542 44.9487 34.9538 44.9494C34.9536 44.9497 34.9535 44.95 34.9533 44.9502C34.9533 44.9503 34.9532 44.9504 34.9532 44.9504C34.9531 44.9504 34.9531 44.9505 34.9531 44.9505C34.9531 44.9505 34.9531 44.9505 34.9531 44.9505C34.9531 44.9505 34.9531 44.9505 34.9531 44.9505C34.9532 44.9504 34.9531 44.9506 34.9531 44.9505C34.9532 44.9504 34.9531 44.9506 34.9531 44.9505C34.9532 44.9504 34.9531 44.9506 34.9531 44.9505C34.9532 44.9504 34.9531 44.9506 34.9531 44.9505C34.9531 44.9505 34.9531 44.9505 34.9531 44.9505C34.9531 44.9505 34.9531 44.9505 34.9531 44.9505C34.9531 44.9505 34.9532 44.9504 34.9532 44.9504C34.9532 44.9504 34.9533 44.9503 34.9534 44.9501C34.9536 44.9499 34.9539 44.9495 34.9544 44.949C34.9553 44.948 34.9569 44.9464 34.9594 44.9443L34.3009 44.1917C34.0708 44.393 33.9541 44.6642 33.9541 44.964H34.9541ZM34.9576 44.9458C35.6287 44.3642 36.2987 43.7313 36.9675 43.0476L36.2527 42.3484C35.6015 43.014 34.9515 43.6278 34.3026 44.1902L34.9576 44.9458ZM36.9637 43.0516C37.6383 42.3769 38.0637 41.9516 38.2397 41.7756L37.5326 41.0684C37.3566 41.2444 36.9312 41.6698 36.2566 42.3444L36.9637 43.0516ZM37.8861 41.422C38.2397 41.7756 38.2397 41.7756 38.2397 41.7755C38.2397 41.7755 38.2397 41.7755 38.2397 41.7755C38.2397 41.7755 38.2397 41.7755 38.2397 41.7755C38.2397 41.7755 38.2397 41.7755 38.2398 41.7755C38.2398 41.7754 38.2398 41.7754 38.2398 41.7754C38.2398 41.7754 38.2398 41.7754 38.2399 41.7754C38.2399 41.7753 38.2399 41.7753 38.2399 41.7753C38.24 41.7753 38.24 41.7752 38.24 41.7752C38.2401 41.7752 38.2401 41.7751 38.2401 41.7751C38.2402 41.7751 38.2402 41.775 38.2402 41.775C38.2403 41.775 38.2403 41.7749 38.2403 41.7749C38.2404 41.7748 38.2404 41.7748 38.2405 41.7747C38.2411 41.7742 38.2405 41.7748 38.2411 41.7741C38.2417 41.7735 38.242 41.7732 38.2429 41.7723C38.2452 41.77 38.2429 41.7724 38.2454 41.7698C38.2505 41.7647 38.2465 41.7687 38.2526 41.7626C38.2569 41.7584 38.2528 41.7624 38.2573 41.7579C38.2575 41.7577 38.2577 41.7575 38.2579 41.7573C38.2581 41.7571 38.2584 41.7569 38.2586 41.7566C38.2588 41.7564 38.259 41.7562 38.2592 41.756C38.2595 41.7558 38.2597 41.7555 38.2599 41.7553C38.2624 41.7528 38.2601 41.7551 38.2627 41.7525C38.2832 41.732 38.2672 41.748 38.2915 41.7237C38.2918 41.7234 38.2922 41.723 38.2926 41.7226C38.2929 41.7223 38.2933 41.7219 38.2937 41.7216C38.294 41.7212 38.2944 41.7208 38.2948 41.7204C38.2951 41.7201 38.2955 41.7197 38.2959 41.7193C38.2979 41.7173 38.2961 41.7191 38.2982 41.7171C38.2985 41.7167 38.2989 41.7163 38.2993 41.7159C38.2997 41.7155 38.3001 41.7151 38.3005 41.7147C38.3009 41.7143 38.3013 41.714 38.3017 41.7136C38.302 41.7132 38.3024 41.7128 38.3028 41.7124C38.3032 41.712 38.3036 41.7116 38.304 41.7112C38.3044 41.7108 38.3048 41.7104 38.3052 41.71C38.3057 41.7096 38.3061 41.7092 38.3065 41.7087C38.3069 41.7083 38.3073 41.7079 38.3077 41.7075C38.3081 41.7071 38.3085 41.7067 38.3089 41.7063C38.3094 41.7059 38.3098 41.7054 38.3102 41.705C38.3106 41.7046 38.311 41.7042 38.3115 41.7038C38.3119 41.7033 38.3123 41.7029 38.3127 41.7025C38.3132 41.7021 38.3136 41.7016 38.314 41.7012C38.3145 41.7008 38.3149 41.7003 38.3153 41.6999C38.3158 41.6995 38.3162 41.699 38.3166 41.6986C38.3171 41.6981 38.3175 41.6977 38.318 41.6973C38.3203 41.6949 38.3183 41.697 38.3206 41.6946C38.3211 41.6941 38.3215 41.6937 38.322 41.6932C38.3224 41.6928 38.3229 41.6923 38.3234 41.6919C38.3238 41.6914 38.3243 41.6909 38.3247 41.6905C38.3252 41.69 38.3257 41.6896 38.3261 41.6891C38.3266 41.6886 38.3271 41.6882 38.3275 41.6877C38.328 41.6872 38.3285 41.6868 38.3289 41.6863C38.3315 41.6837 38.3292 41.686 38.3318 41.6834C38.3523 41.663 38.3348 41.6804 38.3563 41.659C38.3577 41.6575 38.3581 41.6572 38.3595 41.6557C38.3601 41.6551 38.3606 41.6546 38.3612 41.654C38.3617 41.6535 38.3623 41.6529 38.3628 41.6524C38.3643 41.6509 38.3647 41.6505 38.3662 41.649C38.3667 41.6485 38.3673 41.6479 38.3679 41.6473C38.3684 41.6468 38.369 41.6462 38.3696 41.6456C38.3701 41.6451 38.3707 41.6445 38.3713 41.6439C38.3719 41.6434 38.3724 41.6428 38.373 41.6422C38.3736 41.6416 38.3742 41.641 38.3748 41.6405C38.3753 41.6399 38.3759 41.6393 38.3765 41.6387C38.3796 41.6356 38.3804 41.6348 38.3836 41.6316C38.3836 41.6316 38.4431 41.5721 38.4469 41.5683C38.4792 41.536 38.4497 41.5655 38.4829 41.5323C38.4837 41.5315 38.4845 41.5307 38.4853 41.5299C38.4861 41.5292 38.4868 41.5284 38.4876 41.5276C38.4884 41.5268 38.4892 41.526 38.49 41.5252C38.4908 41.5244 38.4916 41.5236 38.4924 41.5228C38.4932 41.522 38.494 41.5212 38.4948 41.5204C38.4956 41.5197 38.4964 41.5189 38.4972 41.518C38.5014 41.5138 38.4977 41.5175 38.502 41.5132C38.5063 41.5089 38.5074 41.5078 38.5118 41.5034C38.5162 41.499 38.5124 41.5028 38.5168 41.4984C38.5212 41.494 38.5173 41.4979 38.5218 41.4934C38.5226 41.4926 38.5235 41.4917 38.5243 41.4909C38.5252 41.4901 38.526 41.4892 38.5269 41.4884C38.5277 41.4875 38.5286 41.4867 38.5294 41.4858C38.5303 41.485 38.5311 41.4841 38.532 41.4833C38.5328 41.4824 38.5337 41.4815 38.5345 41.4807C38.5354 41.4798 38.5363 41.479 38.5371 41.4781C38.538 41.4772 38.5388 41.4764 38.5397 41.4755C38.5406 41.4746 38.5414 41.4738 38.5423 41.4729C38.5516 41.4636 38.554 41.4612 38.5635 41.4517C38.5659 41.4493 38.5665 41.4487 38.569 41.4463C38.5699 41.4453 38.5708 41.4444 38.5717 41.4435C38.5726 41.4426 38.5735 41.4417 38.5744 41.4408C38.5753 41.4399 38.5763 41.439 38.5772 41.438C38.5781 41.4371 38.579 41.4362 38.5799 41.4353C38.5809 41.4344 38.5818 41.4334 38.5827 41.4325C38.5836 41.4316 38.5846 41.4307 38.5855 41.4297C38.5864 41.4288 38.5874 41.4279 38.5883 41.4269C38.5892 41.426 38.5902 41.4251 38.5911 41.4241C38.5936 41.4216 38.5942 41.421 38.5967 41.4185C38.6069 41.4083 38.5979 41.4173 38.6082 41.4071C38.6286 41.3866 38.6109 41.4044 38.6316 41.3837C38.6422 41.373 38.6448 41.3704 38.6557 41.3596C38.6991 41.3161 38.6617 41.3535 38.706 41.3092C38.7294 41.2858 38.735 41.2802 38.7593 41.2559C38.7604 41.2548 38.7616 41.2536 38.7627 41.2525C38.7639 41.2513 38.765 41.2502 38.7662 41.2491C38.7673 41.2479 38.7685 41.2468 38.7696 41.2456C38.7708 41.2445 38.7719 41.2433 38.7731 41.2421C38.7854 41.2298 38.7746 41.2406 38.787 41.2282C38.7996 41.2156 38.8027 41.2126 38.8154 41.1998C38.9179 41.0974 38.951 41.0642 39.0688 40.9464C39.0765 40.9387 39.0784 40.9368 39.0862 40.9291C39.0876 40.9276 39.0891 40.9262 39.0905 40.9247C39.092 40.9232 39.0934 40.9218 39.0949 40.9203C39.0964 40.9189 39.0978 40.9174 39.0993 40.9159C39.1008 40.9145 39.1022 40.913 39.1037 40.9115C39.1194 40.8959 39.1057 40.9095 39.1214 40.8938C39.1294 40.8859 39.1313 40.8839 39.1393 40.8759C39.1713 40.8439 39.1434 40.8718 39.1757 40.8395C39.2087 40.8065 39.1795 40.8358 39.2127 40.8025C39.2143 40.8009 39.2159 40.7994 39.2174 40.7978C39.219 40.7962 39.2205 40.7947 39.2221 40.7931C39.2237 40.7915 39.2252 40.79 39.2268 40.7884C39.2284 40.7868 39.23 40.7853 39.2315 40.7837C39.2331 40.7821 39.2347 40.7805 39.2363 40.779C39.2378 40.7774 39.2394 40.7758 39.241 40.7742C39.2426 40.7726 39.2442 40.771 39.2458 40.7695C39.2473 40.7679 39.2489 40.7663 39.2505 40.7647C39.2845 40.7307 39.2548 40.7604 39.289 40.7262C39.3239 40.6914 39.3324 40.6828 39.3682 40.647C39.3699 40.6453 39.3716 40.6437 39.3732 40.642C39.3749 40.6403 39.3766 40.6386 39.3783 40.6369C39.38 40.6352 39.3817 40.6335 39.3834 40.6319C39.385 40.6302 39.3867 40.6285 39.3884 40.6268C39.4065 40.6087 39.3907 40.6245 39.4089 40.6064C39.418 40.5972 39.4203 40.595 39.4295 40.5858C39.4312 40.584 39.4329 40.5823 39.4346 40.5806C39.4364 40.5788 39.4381 40.5771 39.4398 40.5754C39.4416 40.5737 39.4433 40.5719 39.445 40.5702C39.4468 40.5684 39.4485 40.5667 39.4502 40.565C39.4874 40.5278 39.4971 40.5182 39.5352 40.48C39.537 40.4782 39.5388 40.4764 39.5406 40.4746C39.5424 40.4728 39.5442 40.471 39.546 40.4692C39.5478 40.4674 39.5496 40.4656 39.5514 40.4638C39.5532 40.462 39.555 40.4602 39.5569 40.4584C39.5587 40.4565 39.5605 40.4547 39.5623 40.4529C39.5641 40.4511 39.5659 40.4493 39.5678 40.4475C39.5696 40.4456 39.5714 40.4438 39.5732 40.442C39.5751 40.4402 39.5769 40.4383 39.5787 40.4365C39.5805 40.4347 39.5824 40.4328 39.5842 40.431C39.586 40.4292 39.5879 40.4273 39.5897 40.4255C39.5915 40.4237 39.5934 40.4218 39.5952 40.42C39.5971 40.4181 39.5989 40.4163 39.6008 40.4145C39.6026 40.4126 39.6044 40.4108 39.6063 40.4089C39.6081 40.4071 39.61 40.4052 39.6118 40.4034C39.6137 40.4015 39.6155 40.3997 39.6174 40.3978C39.6193 40.396 39.6211 40.3941 39.623 40.3922C39.6248 40.3904 39.6267 40.3885 39.6286 40.3867C39.6304 40.3848 39.6323 40.3829 39.6342 40.3811C39.636 40.3792 39.6379 40.3773 39.6398 40.3755C39.6416 40.3736 39.6435 40.3717 39.6454 40.3698C39.6473 40.368 39.6491 40.3661 39.651 40.3642C39.6529 40.3623 39.6548 40.3605 39.6566 40.3586C39.6667 40.3485 39.6579 40.3573 39.668 40.3473C39.673 40.3422 39.6856 40.3296 39.6907 40.3245C39.6907 40.3245 39.7022 40.3131 39.7022 40.313C39.7041 40.3111 39.706 40.3092 39.7079 40.3073C39.7098 40.3054 39.7117 40.3035 39.7137 40.3016L39.0066 39.5944C38.9255 39.6755 38.9053 39.6957 38.8281 39.7729C38.7522 39.8488 38.7331 39.8679 38.6611 39.9399C38.6246 39.9764 38.5382 40.0628 38.5056 40.0954C38.4396 40.1614 38.4239 40.1771 38.3617 40.2393C38.3464 40.2546 38.3425 40.2585 38.3275 40.2735C38.3199 40.2811 38.3013 40.2997 38.294 40.307C38.2791 40.3219 38.2432 40.3578 38.2293 40.3718C38.2004 40.4006 38.1333 40.4677 38.1083 40.4927C38.0545 40.5465 37.9395 40.6615 37.9011 40.6999C37.7782 40.8228 37.6861 40.9149 37.6247 40.9763C37.6076 40.9934 37.5573 41.0437 37.5556 41.0454C37.553 41.048 37.5471 41.0539 37.5455 41.0555C37.5453 41.0557 37.5452 41.0558 37.545 41.056C37.5448 41.0562 37.5446 41.0564 37.5445 41.0565C37.5441 41.0569 37.5438 41.0572 37.5434 41.0576C37.5432 41.0578 37.5417 41.0593 37.5416 41.0594C37.5411 41.0599 37.5386 41.0624 37.5383 41.0627C37.5372 41.0638 37.5341 41.0669 37.534 41.067C37.5336 41.0674 37.533 41.068 37.5329 41.0681C37.5328 41.0682 37.5327 41.0683 37.5326 41.0684C37.5326 41.0684 37.5326 41.0684 37.5326 41.0684C37.5326 41.0684 37.5326 41.0684 37.5326 41.0684C37.5326 41.0684 37.5326 41.0684 37.8861 41.422ZM39.7097 40.3055C40.3794 39.6506 40.8977 39.0737 41.252 38.5776C41.5907 38.1034 41.8401 37.6221 41.8401 37.176H40.8401C40.8401 37.2873 40.7595 37.5466 40.4382 37.9964C40.1326 38.4243 39.6608 38.9547 39.0106 39.5905L39.7097 40.3055ZM41.8401 37.176C41.8401 36.6798 41.6454 36.2515 41.2642 35.9339L40.624 36.7021C40.7709 36.8245 40.8401 36.9682 40.8401 37.176H41.8401ZM41.2763 35.9443C40.9061 35.6152 40.4441 35.466 39.9321 35.466V36.466C40.2415 36.466 40.4541 36.5514 40.6119 36.6917L41.2763 35.9443ZM39.9321 35.466C39.4106 35.466 38.9393 35.6124 38.5659 35.9443L39.2303 36.6917C39.3849 36.5543 39.603 36.466 39.9321 36.466V35.466ZM38.578 35.9339C38.1866 36.2601 38.0021 36.7087 38.0021 37.22H39.0021C39.0021 36.9687 39.0816 36.8159 39.2182 36.7021L38.578 35.9339ZM38.0021 37.22V37.66H39.0021V37.22H38.0021ZM38.0021 37.66C38.0021 37.6642 38.0015 37.6506 38.0102 37.6266C38.0196 37.6007 38.0364 37.5726 38.0606 37.5484L38.7677 38.2556C38.9413 38.0819 39.0021 37.8619 39.0021 37.66H38.0021ZM38.0606 37.5484C38.0847 37.5243 38.1128 37.5075 38.1387 37.4981C38.1627 37.4894 38.1763 37.49 38.1721 37.49V38.49C38.374 38.49 38.594 38.4292 38.7677 38.2556L38.0606 37.5484ZM38.1721 37.49H34.6521V38.49H38.1721V37.49ZM34.6521 37.49C34.6479 37.49 34.6615 37.4894 34.6855 37.4981C34.7114 37.5075 34.7395 37.5243 34.7637 37.5484L34.0566 38.2556C34.2302 38.4292 34.4502 38.49 34.6521 38.49V37.49ZM34.7637 37.5484C34.7878 37.5726 34.8046 37.6007 34.814 37.6266C34.8227 37.6506 34.8221 37.6642 34.8221 37.66H33.8221C33.8221 37.8619 33.8829 38.0819 34.0566 38.2556L34.7637 37.5484ZM34.8221 37.66V36.56H33.8221V37.66H34.8221ZM34.8209 36.595C34.8728 35.8551 35.1164 35.2282 35.5467 34.6966L34.7695 34.0674C34.2025 34.7678 33.8887 35.5929 33.8233 36.525L34.8209 36.595ZM35.5459 34.6976C36.0018 34.1375 36.5986 33.7011 37.3501 33.3925L36.9701 32.4675C36.0789 32.8335 35.3411 33.3652 34.7703 34.0664L35.5459 34.6976ZM37.3472 33.3937C38.1169 33.0831 38.9764 32.924 39.9321 32.924V31.924C38.8638 31.924 37.8753 32.1022 36.973 32.4663L37.3472 33.3937ZM39.9321 32.924C40.9983 32.924 41.9091 33.1245 42.6785 33.5092L43.1257 32.6148C42.1938 32.1488 41.1246 31.924 39.9321 31.924V32.924ZM42.6847 33.5123C43.4598 33.8864 44.0277 34.3899 44.4117 35.0171L45.2645 34.4949C44.7685 33.6848 44.0458 33.0589 43.1195 32.6117L42.6847 33.5123ZM44.4181 35.0273C44.8197 35.6491 45.0201 36.332 45.0201 37.088H46.0201C46.0201 36.1426 45.7658 35.2709 45.2581 34.4847L44.4181 35.0273ZM45.0201 37.088C45.0201 37.6048 44.8947 38.1227 44.6329 38.6464L45.5273 39.0936C45.8522 38.4439 46.0201 37.7738 46.0201 37.088H45.0201ZM44.6285 38.6555C44.374 39.1912 43.9843 39.7699 43.4477 40.3912L44.2045 41.0448C44.7826 40.3755 45.2289 39.7221 45.5317 39.0845L44.6285 38.6555ZM43.4524 40.3858C42.885 41.0241 41.9634 41.9183 40.6761 43.0739L41.3441 43.8181C42.6382 42.6564 43.5939 41.7319 44.1998 41.0502L43.4524 40.3858ZM40.6696 43.0799L39.7236 43.9599L40.4047 44.6921L41.3507 43.8121L40.6696 43.0799Z" fill="url(#paint2_linear_491_4725)"/>
<defs>
<filter id="filter0_bdi_491_4725" x="0" y="0" width="80" height="80" filterUnits="userSpaceOnUse" color-interpolation-filters="sRGB">
<feFlood flood-opacity="0" result="BackgroundImageFix"/>
<feGaussianBlur in="BackgroundImage" stdDeviation="2.71828"/>
<feComposite in2="SourceAlpha" operator="in" result="effect1_backgroundBlur_491_4725"/>
<feColorMatrix in="SourceAlpha" type="matrix" values="0 0 0 0 0 0 0 0 0 0 0 0 0 0 0 0 0 0 127 0" result="hardAlpha"/>
<feOffset/>
<feGaussianBlur stdDeviation="10"/>
<feComposite in2="hardAlpha" operator="out"/>
<feColorMatrix type="matrix" values="0 0 0 0 0 0 0 0 0 1 0 0 0 0 0.815686 0 0 0 0.15 0"/>
<feBlend mode="normal" in2="effect1_backgroundBlur_491_4725" result="effect2_dropShadow_491_4725"/>
<feBlend mode="normal" in="SourceGraphic" in2="effect2_dropShadow_491_4725" result="shape"/>
<feColorMatrix in="SourceAlpha" type="matrix" values="0 0 0 0 0 0 0 0 0 0 0 0 0 0 0 0 0 0 127 0" result="hardAlpha"/>
<feOffset/>
<feGaussianBlur stdDeviation="2"/>
<feComposite in2="hardAlpha" operator="arithmetic" k2="-1" k3="1"/>
<feColorMatrix type="matrix" values="0 0 0 0 1 0 0 0 0 1 0 0 0 0 1 0 0 0 0.3 0"/>
<feBlend mode="normal" in2="shape" result="effect3_innerShadow_491_4725"/>
</filter>
<filter id="filter1_i_491_4725" x="34.3223" y="32.4241" width="11.3516" height="15.5759" filterUnits="userSpaceOnUse" color-interpolation-filters="sRGB">
<feFlood flood-opacity="0" result="BackgroundImageFix"/>
<feBlend mode="normal" in="SourceGraphic" in2="BackgroundImageFix" result="shape"/>
<feColorMatrix in="SourceAlpha" type="matrix" values="0 0 0 0 0 0 0 0 0 0 0 0 0 0 0 0 0 0 127 0" result="hardAlpha"/>
<feOffset/>
<feGaussianBlur stdDeviation="5"/>
<feComposite in2="hardAlpha" operator="arithmetic" k2="-1" k3="1"/>
<feColorMatrix type="matrix" values="0 0 0 0 1 0 0 0 0 1 0 0 0 0 1 0 0 0 0.4 0"/>
<feBlend mode="normal" in2="shape" result="effect1_innerShadow_491_4725"/>
</filter>
<linearGradient id="paint0_linear_491_4725" x1="20" y1="18.5714" x2="20" y2="58.5714" gradientUnits="userSpaceOnUse">
<stop stop-color="white" stop-opacity="0.3"/>
<stop offset="1" stop-color="white" stop-opacity="0.13"/>
</linearGradient>
<linearGradient id="paint1_linear_491_4725" x1="29.0965" y1="26" x2="29.0965" y2="53.7545" gradientUnits="userSpaceOnUse">
<stop stop-color="#00FFD0"/>
<stop offset="1" stop-color="#0B9D71"/>
</linearGradient>
<linearGradient id="paint2_linear_491_4725" x1="29" y1="26" x2="29" y2="54" gradientUnits="userSpaceOnUse">
<stop stop-color="white" stop-opacity="0.4"/>
<stop offset="1" stop-color="white" stop-opacity="0.01"/>
</linearGradient>
</defs>
</svg>
