<svg width="80" height="80" viewBox="0 0 80 80" fill="none" xmlns="http://www.w3.org/2000/svg">
<g filter="url(#filter0_d_491_4753)">
<g filter="url(#filter1_bdi_491_4753)">
<rect x="20" y="20" width="40" height="40" rx="6" fill="#47F49A" fill-opacity="0.15" shape-rendering="crispEdges"/>
<rect x="20.25" y="20.25" width="39.5" height="39.5" rx="5.75" stroke="url(#paint0_linear_491_4753)" stroke-width="0.5" shape-rendering="crispEdges"/>
</g>
<g filter="url(#filter2_i_491_4753)">
<path d="M45.1947 40.762C45.4733 41.334 45.6127 42.06 45.6127 42.94C45.6127 43.7613 45.4733 44.4873 45.1947 45.118C44.7987 46.0273 44.1387 46.7607 43.2147 47.318C42.2907 47.8607 41.2347 48.132 40.0467 48.132C38.888 48.132 37.854 47.868 36.9447 47.34C36.0353 46.7973 35.3753 46.0567 34.9647 45.118C34.6713 44.4727 34.5247 43.7467 34.5247 42.94V36.472C34.5247 35.68 34.7447 34.976 35.1847 34.36C35.6393 33.744 36.27 33.2673 37.0767 32.93C37.898 32.5927 38.844 32.424 39.9147 32.424C40.956 32.424 41.8727 32.5927 42.6647 32.93C43.4713 33.2673 44.0947 33.744 44.5347 34.36C44.9893 34.976 45.2167 35.68 45.2167 36.472V37.242C45.2167 37.3447 45.1873 37.4253 45.1287 37.484C45.07 37.5427 44.9893 37.572 44.8867 37.572H41.4107C41.308 37.572 41.2273 37.5427 41.1687 37.484C41.11 37.4253 41.0807 37.3447 41.0807 37.242V37.088C41.0807 36.78 40.9707 36.516 40.7507 36.296C40.5307 36.076 40.2447 35.966 39.8927 35.966C39.5407 35.966 39.2473 36.076 39.0127 36.296C38.778 36.516 38.6607 36.78 38.6607 37.088V38.518C38.6607 38.562 38.6753 38.5913 38.7047 38.606C38.734 38.6207 38.7633 38.6133 38.7927 38.584C39.3207 38.2173 40.0027 38.034 40.8387 38.034C41.748 38.034 42.5913 38.2687 43.3687 38.738C44.1607 39.2073 44.7693 39.882 45.1947 40.762ZM41.1467 44.062C41.3667 43.7687 41.4767 43.424 41.4767 43.028C41.4767 42.6173 41.3667 42.2653 41.1467 41.972C40.8973 41.6493 40.5453 41.488 40.0907 41.488C39.5773 41.488 39.2033 41.6493 38.9687 41.972C38.778 42.236 38.6827 42.5733 38.6827 42.984C38.6827 43.4093 38.778 43.7687 38.9687 44.062C39.2033 44.414 39.5627 44.59 40.0467 44.59C40.516 44.59 40.8827 44.414 41.1467 44.062Z" fill="url(#paint1_linear_491_4753)"/>
</g>
<path d="M45.1947 40.762L44.7445 40.9796L44.7452 40.981L45.1947 40.762ZM45.1947 45.118L44.7373 44.9159L44.7362 44.9184L45.1947 45.118ZM43.2147 47.318L43.4679 47.7492L43.4729 47.7461L43.2147 47.318ZM36.9447 47.34L36.6884 47.7694L36.6936 47.7724L36.9447 47.34ZM34.9647 45.118L35.4228 44.9176L35.4198 44.9111L34.9647 45.118ZM35.1847 34.36L34.7823 34.063L34.7778 34.0694L35.1847 34.36ZM37.0767 32.93L36.8867 32.4675L36.8838 32.4687L37.0767 32.93ZM42.6647 32.93L42.4687 33.39L42.4718 33.3913L42.6647 32.93ZM44.5347 34.36L44.1277 34.6507L44.1324 34.6569L44.5347 34.36ZM45.1287 37.484L45.4822 37.8376L45.4822 37.8376L45.1287 37.484ZM41.1687 37.484L41.5222 37.1304L41.1687 37.484ZM40.7507 36.296L40.3971 36.6496L40.3971 36.6496L40.7507 36.296ZM39.0127 36.296L39.3546 36.6608L39.3546 36.6608L39.0127 36.296ZM38.7047 38.606L38.4811 39.0532L38.4811 39.0532L38.7047 38.606ZM38.7927 38.584L38.5075 38.1733L38.4707 38.1988L38.4391 38.2304L38.7927 38.584ZM43.3687 38.738L43.1102 39.166L43.1138 39.1681L43.3687 38.738ZM41.1467 44.062L40.7467 43.762L41.1467 44.062ZM41.1467 41.972L41.5467 41.672L41.5423 41.6663L41.1467 41.972ZM38.9687 41.972L38.5643 41.6779L38.5633 41.6793L38.9687 41.972ZM38.9687 44.062L38.5494 44.3345L38.5526 44.3393L38.9687 44.062ZM44.7452 40.981C44.9804 41.4638 45.1127 42.1085 45.1127 42.94H46.1127C46.1127 42.0115 45.9663 41.2042 45.6442 40.543L44.7452 40.981ZM45.1127 42.94C45.1127 43.7048 44.983 44.3599 44.7373 44.9159L45.652 45.3201C45.9637 44.6148 46.1127 43.8178 46.1127 42.94H45.1127ZM44.7362 44.9184C44.3853 45.7242 43.7998 46.3811 42.9564 46.8899L43.4729 47.7461C44.4775 47.1402 45.212 46.3305 45.6531 45.3176L44.7362 44.9184ZM42.9615 46.8869C42.1224 47.3797 41.1556 47.632 40.0467 47.632V48.632C41.3138 48.632 42.459 48.3417 43.4679 47.7491L42.9615 46.8869ZM40.0467 47.632C38.967 47.632 38.0212 47.3869 37.1957 46.9076L36.6936 47.7724C37.6868 48.3491 38.809 48.632 40.0467 48.632V47.632ZM37.2009 46.9106C36.3779 46.4195 35.7902 45.7574 35.4227 44.9176L34.5066 45.3184C34.9605 46.3559 35.6928 47.1752 36.6884 47.7694L37.2009 46.9106ZM35.4198 44.9111C35.1599 44.3391 35.0247 43.6851 35.0247 42.94H34.0247C34.0247 43.8082 34.1828 44.6062 34.5095 45.3249L35.4198 44.9111ZM35.0247 42.94V36.472H34.0247V42.94H35.0247ZM35.0247 36.472C35.0247 35.7791 35.215 35.1777 35.5915 34.6506L34.7778 34.0694C34.2743 34.7743 34.0247 35.5809 34.0247 36.472H35.0247ZM35.587 34.6569C35.9807 34.1235 36.5342 33.6988 37.2696 33.3913L36.8838 32.4687C36.0058 32.8359 35.298 33.3645 34.7824 34.0631L35.587 34.6569ZM37.2666 33.3925C38.0167 33.0845 38.8961 32.924 39.9147 32.924V31.924C38.7919 31.924 37.7793 32.1009 36.8867 32.4675L37.2666 33.3925ZM39.9147 32.924C40.9025 32.924 41.7502 33.084 42.4687 33.39L42.8606 32.47C41.9951 32.1013 41.0095 31.924 39.9147 31.924V32.924ZM42.4718 33.3913C43.2062 33.6984 43.7498 34.1214 44.1278 34.6506L44.9415 34.0694C44.4395 33.3666 43.7365 32.8363 42.8576 32.4687L42.4718 33.3913ZM44.1324 34.6569C44.5213 35.1838 44.7167 35.7829 44.7167 36.472H45.7167C45.7167 35.5771 45.4574 34.7682 44.937 34.0631L44.1324 34.6569ZM44.7167 36.472V37.242H45.7167V36.472H44.7167ZM44.7167 37.242C44.7167 37.2462 44.716 37.2326 44.7248 37.2086C44.7342 37.1827 44.751 37.1546 44.7751 37.1304L45.4822 37.8376C45.6559 37.6639 45.7167 37.4439 45.7167 37.242H44.7167ZM44.7751 37.1304C44.7992 37.1063 44.8274 37.0895 44.8533 37.0801C44.8773 37.0714 44.8908 37.072 44.8867 37.072V38.072C45.0886 38.072 45.3086 38.0112 45.4822 37.8376L44.7751 37.1304ZM44.8867 37.072H41.4107V38.072H44.8867V37.072ZM41.4107 37.072C41.4065 37.072 41.42 37.0714 41.444 37.0801C41.4699 37.0895 41.4981 37.1063 41.5222 37.1304L40.8151 37.8376C40.9888 38.0112 41.2088 38.072 41.4107 38.072V37.072ZM41.5222 37.1304C41.5464 37.1546 41.5631 37.1827 41.5726 37.2086C41.5813 37.2326 41.5807 37.2462 41.5807 37.242H40.5807C40.5807 37.4439 40.6415 37.6639 40.8151 37.8376L41.5222 37.1304ZM41.5807 37.242V37.088H40.5807V37.242H41.5807ZM41.5807 37.088C41.5807 36.6459 41.4169 36.2551 41.1042 35.9424L40.3971 36.6496C40.5244 36.7769 40.5807 36.9141 40.5807 37.088H41.5807ZM41.1042 35.9424C40.7778 35.6161 40.3583 35.466 39.8927 35.466V36.466C40.131 36.466 40.2835 36.5359 40.3971 36.6496L41.1042 35.9424ZM39.8927 35.466C39.4267 35.466 39.0071 35.6158 38.6707 35.9312L39.3546 36.6608C39.4875 36.5362 39.6546 36.466 39.8927 36.466V35.466ZM38.6707 35.9312C38.3402 36.241 38.1607 36.635 38.1607 37.088H39.1607C39.1607 36.925 39.2158 36.791 39.3546 36.6608L38.6707 35.9312ZM38.1607 37.088V38.518H39.1607V37.088H38.1607ZM38.1607 38.518C38.1607 38.6759 38.224 38.9247 38.4811 39.0532L38.9283 38.1588C39.0104 38.1998 39.0778 38.2673 39.1189 38.3494C39.156 38.4237 39.1607 38.4877 39.1607 38.518H38.1607ZM38.4811 39.0532C38.5927 39.1091 38.7293 39.1317 38.8699 39.0966C38.9994 39.0642 39.0904 38.9934 39.1462 38.9376L38.4391 38.2304C38.4656 38.2039 38.5273 38.1515 38.6274 38.1264C38.7387 38.0986 38.8459 38.1176 38.9283 38.1588L38.4811 39.0532ZM39.0779 38.9947C39.5002 38.7014 40.0742 38.534 40.8387 38.534V37.534C39.9311 37.534 39.1411 37.7333 38.5075 38.1733L39.0779 38.9947ZM40.8387 38.534C41.657 38.534 42.411 38.7439 43.1102 39.166L43.6271 38.31C42.7717 37.7935 41.839 37.534 40.8387 37.534V38.534ZM43.1138 39.1681C43.8159 39.5842 44.3592 40.1824 44.7445 40.9796L45.6448 40.5444C45.1795 39.5816 44.5055 38.8305 43.6236 38.3079L43.1138 39.1681ZM41.5467 44.362C41.8369 43.975 41.9767 43.523 41.9767 43.028H40.9767C40.9767 43.325 40.8965 43.5623 40.7467 43.762L41.5467 44.362ZM41.9767 43.028C41.9767 42.5228 41.8393 42.0622 41.5467 41.672L40.7467 42.272C40.894 42.4685 40.9767 42.7119 40.9767 43.028H41.9767ZM41.5423 41.6663C41.1865 41.2058 40.6798 40.988 40.0907 40.988V41.988C40.4108 41.988 40.6082 42.0928 40.751 42.2777L41.5423 41.6663ZM40.0907 40.988C39.468 40.988 38.9193 41.1897 38.5643 41.6779L39.373 42.2661C39.4873 42.1089 39.6867 41.988 40.0907 41.988V40.988ZM38.5633 41.6793C38.2967 42.0484 38.1827 42.4959 38.1827 42.984H39.1827C39.1827 42.6508 39.2593 42.4236 39.374 42.2647L38.5633 41.6793ZM38.1827 42.984C38.1827 43.485 38.2957 43.9441 38.5494 44.3345L39.3879 43.7895C39.2603 43.5933 39.1827 43.3336 39.1827 42.984H38.1827ZM38.5526 44.3393C38.8946 44.8523 39.4236 45.09 40.0467 45.09V44.09C39.7018 44.09 39.5121 43.9757 39.3847 43.7847L38.5526 44.3393ZM40.0467 45.09C40.6612 45.09 41.1811 44.8494 41.5467 44.362L40.7467 43.762C40.5842 43.9786 40.3708 44.09 40.0467 44.09V45.09Z" fill="url(#paint2_linear_491_4753)"/>
</g>
<defs>
<filter id="filter0_d_491_4753" x="16" y="20" width="48" height="48" filterUnits="userSpaceOnUse" color-interpolation-filters="sRGB">
<feFlood flood-opacity="0" result="BackgroundImageFix"/>
<feColorMatrix in="SourceAlpha" type="matrix" values="0 0 0 0 0 0 0 0 0 0 0 0 0 0 0 0 0 0 127 0" result="hardAlpha"/>
<feOffset dy="4"/>
<feGaussianBlur stdDeviation="2"/>
<feComposite in2="hardAlpha" operator="out"/>
<feColorMatrix type="matrix" values="0 0 0 0 0 0 0 0 0 0 0 0 0 0 0 0 0 0 0.25 0"/>
<feBlend mode="normal" in2="BackgroundImageFix" result="effect1_dropShadow_491_4753"/>
<feBlend mode="normal" in="SourceGraphic" in2="effect1_dropShadow_491_4753" result="shape"/>
</filter>
<filter id="filter1_bdi_491_4753" x="0" y="0" width="80" height="80" filterUnits="userSpaceOnUse" color-interpolation-filters="sRGB">
<feFlood flood-opacity="0" result="BackgroundImageFix"/>
<feGaussianBlur in="BackgroundImage" stdDeviation="2.71828"/>
<feComposite in2="SourceAlpha" operator="in" result="effect1_backgroundBlur_491_4753"/>
<feColorMatrix in="SourceAlpha" type="matrix" values="0 0 0 0 0 0 0 0 0 0 0 0 0 0 0 0 0 0 127 0" result="hardAlpha"/>
<feOffset/>
<feGaussianBlur stdDeviation="10"/>
<feComposite in2="hardAlpha" operator="out"/>
<feColorMatrix type="matrix" values="0 0 0 0 0 0 0 0 0 1 0 0 0 0 0.815686 0 0 0 0.15 0"/>
<feBlend mode="normal" in2="effect1_backgroundBlur_491_4753" result="effect2_dropShadow_491_4753"/>
<feBlend mode="normal" in="SourceGraphic" in2="effect2_dropShadow_491_4753" result="shape"/>
<feColorMatrix in="SourceAlpha" type="matrix" values="0 0 0 0 0 0 0 0 0 0 0 0 0 0 0 0 0 0 127 0" result="hardAlpha"/>
<feOffset/>
<feGaussianBlur stdDeviation="2"/>
<feComposite in2="hardAlpha" operator="arithmetic" k2="-1" k3="1"/>
<feColorMatrix type="matrix" values="0 0 0 0 1 0 0 0 0 1 0 0 0 0 1 0 0 0 0.3 0"/>
<feBlend mode="normal" in2="shape" result="effect3_innerShadow_491_4753"/>
</filter>
<filter id="filter2_i_491_4753" x="34.5254" y="32.4238" width="11.0879" height="15.708" filterUnits="userSpaceOnUse" color-interpolation-filters="sRGB">
<feFlood flood-opacity="0" result="BackgroundImageFix"/>
<feBlend mode="normal" in="SourceGraphic" in2="BackgroundImageFix" result="shape"/>
<feColorMatrix in="SourceAlpha" type="matrix" values="0 0 0 0 0 0 0 0 0 0 0 0 0 0 0 0 0 0 127 0" result="hardAlpha"/>
<feOffset/>
<feGaussianBlur stdDeviation="5"/>
<feComposite in2="hardAlpha" operator="arithmetic" k2="-1" k3="1"/>
<feColorMatrix type="matrix" values="0 0 0 0 1 0 0 0 0 1 0 0 0 0 1 0 0 0 0.4 0"/>
<feBlend mode="normal" in2="shape" result="effect1_innerShadow_491_4753"/>
</filter>
<linearGradient id="paint0_linear_491_4753" x1="20" y1="18.5714" x2="20" y2="58.5714" gradientUnits="userSpaceOnUse">
<stop stop-color="white" stop-opacity="0.3"/>
<stop offset="1" stop-color="white" stop-opacity="0.13"/>
</linearGradient>
<linearGradient id="paint1_linear_491_4753" x1="29.0965" y1="26" x2="29.0965" y2="53.7545" gradientUnits="userSpaceOnUse">
<stop stop-color="#00FFD0"/>
<stop offset="1" stop-color="#0B9D71"/>
</linearGradient>
<linearGradient id="paint2_linear_491_4753" x1="29" y1="26" x2="29" y2="54" gradientUnits="userSpaceOnUse">
<stop stop-color="white" stop-opacity="0.4"/>
<stop offset="1" stop-color="white" stop-opacity="0.01"/>
</linearGradient>
</defs>
</svg>
