<svg width="61" height="60" viewBox="0 0 61 60" fill="none" xmlns="http://www.w3.org/2000/svg">
<g filter="url(#filter0_i_665_1925)">
<path d="M58.6534 41.443C58.6534 42.6854 57.6449 43.7019 56.4123 43.7019H52.6096V52.1096H45.6205V49.6389C45.6205 47.6411 44.0028 46.0167 42.0279 46.0167C40.046 46.0167 38.4353 47.6411 38.4353 49.6389V52.1096H31.4531V45.0644H33.8895C33.8965 45.0644 33.8965 45.0644 33.8965 45.0644H33.9112C35.8854 45.0644 37.5038 43.4337 37.5038 41.443C37.5038 39.4452 35.8854 37.8215 33.9112 37.8215H31.4531V30.7692H39.7799V26.9431C39.7799 25.6935 40.7876 24.677 42.0279 24.677C42.6442 24.677 43.2044 24.9311 43.6106 25.3406C44.0168 25.75 44.2689 26.3148 44.2689 26.9431V30.7692H52.6096V39.1769H56.4123C57.6449 39.1769 58.6534 40.1934 58.6534 41.443Z" fill="url(#paint0_linear_665_1925)"/>
</g>
<path d="M52.6096 43.4519H52.3596V43.7019V51.8596H45.8705V49.6389C45.8705 47.5046 44.1425 45.7667 42.0279 45.7667C39.906 45.7667 38.1853 47.5049 38.1853 49.6389V51.8596H31.7031V45.3144H33.8895H33.8896H33.8896H33.8896H33.8897H33.8897H33.8898H33.8898H33.8898H33.8899H33.8899H33.89H33.89H33.89H33.8901H33.8901H33.8902H33.8902H33.8902H33.8903H33.8903H33.8903H33.8904H33.8904H33.8905H33.8905H33.8905H33.8906H33.8906H33.8906H33.8907H33.8907H33.8908H33.8908H33.8908H33.8909H33.8909H33.8909H33.891H33.891H33.891H33.8911H33.8911H33.8911H33.8912H33.8912H33.8912H33.8913H33.8913H33.8913H33.8914H33.8914H33.8914H33.8915H33.8915H33.8915H33.8916H33.8916H33.8916H33.8917H33.8917H33.8917H33.8918H33.8918H33.8918H33.8919H33.8919H33.8919H33.892H33.892H33.892H33.892H33.8921H33.8921H33.8921H33.8922H33.8922H33.8922H33.8923H33.8923H33.8923H33.8923H33.8924H33.8924H33.8924H33.8925H33.8925H33.8925H33.8925H33.8926H33.8926H33.8926H33.8927H33.8927H33.8927H33.8927H33.8928H33.8928H33.8928H33.8928H33.8929H33.8929H33.8929H33.893H33.893H33.893H33.893H33.8931H33.8931H33.8931H33.8931H33.8932H33.8932H33.8932H33.8932H33.8933H33.8933H33.8933H33.8933H33.8934H33.8934H33.8934H33.8934H33.8935H33.8935H33.8935H33.8935H33.8935H33.8936H33.8936H33.8936H33.8936H33.8937H33.8937H33.8937H33.8937H33.8938H33.8938H33.8938H33.8938H33.8938H33.8939H33.8939H33.8939H33.8939H33.8939H33.894H33.894H33.894H33.894H33.894H33.8941H33.8941H33.8941H33.8941H33.8942H33.8942H33.8942H33.8942H33.8942H33.8942H33.8943H33.8943H33.8943H33.8943H33.8943H33.8944H33.8944H33.8944H33.8944H33.8944H33.8945H33.8945H33.8945H33.8945H33.8945H33.8945H33.8946H33.8946H33.8946H33.8946H33.8946H33.8946H33.8947H33.8947H33.8947H33.8947H33.8947H33.8947H33.8948H33.8948H33.8948H33.8948H33.8948H33.8948H33.8949H33.8949H33.8949H33.8949H33.8949H33.8949H33.895H33.895H33.895H33.895H33.895H33.895H33.895H33.8951H33.8951H33.8951H33.8951H33.8952H33.8952H33.8952H33.8953H33.8953H33.8953H33.8953H33.8954H33.8954H33.8954H33.8954H33.8955H33.8955H33.8955H33.8955H33.8955H33.8956H33.8956H33.8956H33.8956H33.8956H33.8957H33.8957H33.8957H33.8957H33.8957H33.8958H33.8958H33.8958H33.8958H33.8958H33.8959H33.8959H33.8959H33.8959H33.8959H33.8959H33.896H33.896H33.896H33.896H33.896H33.896H33.8961H33.8961H33.8961H33.8961H33.8961H33.8961H33.8962H33.8962H33.8962H33.8962H33.8962H33.8962H33.8963H33.8963H33.8963H33.8963H33.8963H33.8963H33.8964H33.8964H33.8964H33.8964H33.8964H33.8964H33.8965H33.8965H33.8965H33.8965H33.8965H33.9112C36.0253 45.3144 37.7538 43.5699 37.7538 41.443C37.7538 39.3086 36.025 37.5715 33.9112 37.5715H31.7031V31.0192H39.7799H40.0299V30.7692V26.9431C40.0299 25.8297 40.9276 24.927 42.0279 24.927C42.574 24.927 43.0713 25.152 43.4331 25.5166C43.7946 25.8811 44.0189 26.3832 44.0189 26.9431V30.7692V31.0192H44.2689H52.3596V39.1769V39.4269H52.6096H56.4123C57.5044 39.4269 58.4034 40.3291 58.4034 41.443C58.4034 42.5492 57.505 43.4519 56.4123 43.4519H52.6096Z" stroke="url(#paint1_linear_665_1925)" stroke-width="0.5"/>
<g filter="url(#filter1_i_665_1925)">
<path d="M35.703 41.3063C35.703 42.5387 34.7044 43.5469 33.4683 43.5469H29.6763V51.8861H21.373V55.6881C21.373 56.9274 20.3674 57.9287 19.1383 57.9287C17.9023 57.9287 16.8967 56.9204 16.8967 55.6881V51.8861H8.57942V43.5469H4.78743C3.55835 43.5469 2.55273 42.5387 2.55273 41.3063C2.55273 40.0663 3.55835 39.0588 4.78743 39.0588H8.57942V30.7196H16.8967V26.9246C16.8967 25.6853 17.8953 24.677 19.1314 24.677C20.3604 24.677 21.3591 25.6853 21.3591 26.9246V30.7196H29.6763V39.0588H33.4683C34.7044 39.0588 35.703 40.067 35.703 41.3063Z" fill="url(#paint2_linear_665_1925)"/>
</g>
<path d="M29.6763 43.2969H29.4263V43.5469V51.6361H21.373H21.123V51.8861V55.6881C21.123 56.7895 20.2292 57.6787 19.1383 57.6787C18.0405 57.6787 17.1467 56.7825 17.1467 55.6881V51.8861V51.6361H16.8967H8.82942V43.5469V43.2969H8.57942H4.78743C3.69704 43.2969 2.80273 42.4012 2.80273 41.3063C2.80273 40.2033 3.69749 39.3088 4.78743 39.3088H8.57942H8.82942V39.0588V30.9696H16.8967H17.1467V30.7196V26.9246C17.1467 25.8217 18.035 24.927 19.1314 24.927C20.2202 24.927 21.1091 25.8212 21.1091 26.9246V30.7196V30.9696H21.3591H29.4263V39.0588V39.3088H29.6763H33.4683C34.5647 39.3088 35.453 40.2034 35.453 41.3063C35.453 42.4017 34.5652 43.2969 33.4683 43.2969H29.6763Z" stroke="url(#paint3_linear_665_1925)" stroke-width="0.5"/>
<g filter="url(#filter2_i_665_1925)">
<path d="M23.7124 19.3145C23.7124 21.2517 25.3223 22.8262 27.3031 22.8262H29.753V29.6648H22.7814V27.2689C22.7814 25.3316 21.1645 23.7571 19.1907 23.7571C19.1837 23.7571 19.1836 23.7571 19.1836 23.7571C19.1766 23.7571 19.1767 23.7571 19.1767 23.7571C17.1958 23.7571 15.5859 25.3316 15.5859 27.2689V29.6648H8.59334V21.5118H4.79259C3.56067 21.5118 2.55273 20.5261 2.55273 19.3213C2.55273 18.1097 3.56067 17.1239 4.79259 17.1239H8.59334V8.97102H16.9298V5.25395C16.9298 4.04916 17.9377 3.06342 19.1767 3.06342C20.4086 3.06342 21.4165 4.04916 21.4165 5.25395V8.97102H29.753V15.8096H27.3031C25.3223 15.8096 23.7124 17.3841 23.7124 19.3145Z" fill="url(#paint4_linear_665_1925)"/>
</g>
<path d="M21.4165 9.22102H29.503V15.5596H27.3031C25.1898 15.5596 23.4624 17.2404 23.4624 19.3145C23.4624 21.395 25.1895 23.0762 27.3031 23.0762H29.503V29.4148H23.0314V27.2689C23.0314 25.188 21.297 23.5071 19.1907 23.5071H19.1906H19.1906H19.1905H19.1905H19.1904H19.1904H19.1904H19.1903H19.1903H19.1902H19.1902H19.1902H19.1901H19.1901H19.1901H19.19H19.19H19.1899H19.1899H19.1899H19.1898H19.1898H19.1897H19.1897H19.1897H19.1896H19.1896H19.1896H19.1895H19.1895H19.1895H19.1894H19.1894H19.1893H19.1893H19.1893H19.1892H19.1892H19.1892H19.1891H19.1891H19.1891H19.189H19.189H19.189H19.1889H19.1889H19.1889H19.1888H19.1888H19.1888H19.1887H19.1887H19.1887H19.1886H19.1886H19.1886H19.1885H19.1885H19.1885H19.1884H19.1884H19.1884H19.1883H19.1883H19.1883H19.1882H19.1882H19.1882H19.1882H19.1881H19.1881H19.1881H19.188H19.188H19.188H19.1879H19.1879H19.1879H19.1879H19.1878H19.1878H19.1878H19.1877H19.1877H19.1877H19.1877H19.1876H19.1876H19.1876H19.1875H19.1875H19.1875H19.1875H19.1874H19.1874H19.1874H19.1874H19.1873H19.1873H19.1873H19.1872H19.1872H19.1872H19.1872H19.1871H19.1871H19.1871H19.1871H19.187H19.187H19.187H19.187H19.1869H19.1869H19.1869H19.1869H19.1868H19.1868H19.1868H19.1868H19.1867H19.1867H19.1867H19.1867H19.1866H19.1866H19.1866H19.1866H19.1866H19.1865H19.1865H19.1865H19.1865H19.1864H19.1864H19.1864H19.1864H19.1864H19.1863H19.1863H19.1863H19.1863H19.1863H19.1862H19.1862H19.1862H19.1862H19.1861H19.1861H19.1861H19.1861H19.1861H19.186H19.186H19.186H19.186H19.186H19.1859H19.1859H19.1859H19.1859H19.1859H19.1858H19.1858H19.1858H19.1858H19.1858H19.1858H19.1857H19.1857H19.1857H19.1857H19.1857H19.1856H19.1856H19.1856H19.1856H19.1856H19.1856H19.1855H19.1855H19.1855H19.1855H19.1855H19.1855H19.1854H19.1854H19.1854H19.1854H19.1854H19.1854H19.1853H19.1853H19.1853H19.1853H19.1853H19.1853H19.1852H19.1852H19.1852H19.1852H19.1852H19.1852H19.1851H19.1851H19.1851H19.1851H19.185H19.185H19.185H19.185H19.1849H19.1849H19.1849H19.1849H19.1848H19.1848H19.1848H19.1848H19.1847H19.1847H19.1847H19.1847H19.1847H19.1846H19.1846H19.1846H19.1846H19.1845H19.1845H19.1845H19.1845H19.1845H19.1844H19.1844H19.1844H19.1844H19.1844H19.1844H19.1843H19.1843H19.1843H19.1843H19.1843H19.1843H19.1842H19.1842H19.1842H19.1842H19.1842H19.1842H19.1841H19.1841H19.1841H19.1841H19.1841H19.184H19.184H19.184H19.184H19.184H19.184H19.1839H19.1839H19.1839H19.1839H19.1839H19.1839H19.1838H19.1838H19.1838H19.1838H19.1838H19.1838H19.1837H19.1837H19.1837H19.1837H19.1837H19.1837H19.1837H19.1836H19.1836H19.1835H19.1835H19.1834H19.1834H19.1834H19.1833H19.1833H19.1832H19.1832H19.1832H19.1831H19.1831H19.1831H19.183H19.183H19.1829H19.1829H19.1829H19.1828H19.1828H19.1827H19.1827H19.1827H19.1826H19.1826H19.1826H19.1825H19.1825H19.1825H19.1824H19.1824H19.1823H19.1823H19.1823H19.1822H19.1822H19.1822H19.1821H19.1821H19.1821H19.182H19.182H19.182H19.1819H19.1819H19.1819H19.1818H19.1818H19.1818H19.1817H19.1817H19.1817H19.1816H19.1816H19.1816H19.1815H19.1815H19.1815H19.1814H19.1814H19.1814H19.1813H19.1813H19.1813H19.1812H19.1812H19.1812H19.1812H19.1811H19.1811H19.1811H19.181H19.181H19.181H19.1809H19.1809H19.1809H19.1809H19.1808H19.1808H19.1808H19.1807H19.1807H19.1807H19.1807H19.1806H19.1806H19.1806H19.1805H19.1805H19.1805H19.1805H19.1804H19.1804H19.1804H19.1803H19.1803H19.1803H19.1803H19.1802H19.1802H19.1802H19.1802H19.1801H19.1801H19.1801H19.1801H19.18H19.18H19.18H19.18H19.1799H19.1799H19.1799H19.1799H19.1798H19.1798H19.1798H19.1798H19.1797H19.1797H19.1797H19.1797H19.1796H19.1796H19.1796H19.1796H19.1796H19.1795H19.1795H19.1795H19.1795H19.1794H19.1794H19.1794H19.1794H19.1794H19.1793H19.1793H19.1793H19.1793H19.1792H19.1792H19.1792H19.1792H19.1792H19.1791H19.1791H19.1791H19.1791H19.1791H19.179H19.179H19.179H19.179H19.179H19.1789H19.1789H19.1789H19.1789H19.1789H19.1788H19.1788H19.1788H19.1788H19.1788H19.1788H19.1787H19.1787H19.1787H19.1787H19.1787H19.1786H19.1786H19.1786H19.1786H19.1786H19.1786H19.1785H19.1785H19.1785H19.1785H19.1785H19.1785H19.1784H19.1784H19.1784H19.1784H19.1784H19.1784H19.1783H19.1783H19.1783H19.1783H19.1783H19.1783H19.1782H19.1782H19.1782H19.1782H19.1782H19.1782H19.1781H19.1781H19.1781H19.1781H19.178H19.178H19.178H19.178H19.1779H19.1779H19.1779H19.1779H19.1778H19.1778H19.1778H19.1778H19.1777H19.1777H19.1777H19.1777H19.1776H19.1776H19.1776H19.1776H19.1776H19.1775H19.1775H19.1775H19.1775H19.1775H19.1774H19.1774H19.1774H19.1774H19.1774H19.1773H19.1773H19.1773H19.1773H19.1773H19.1773H19.1772H19.1772H19.1772H19.1772H19.1772H19.1772H19.1771H19.1771H19.1771H19.1771H19.1771H19.177H19.177H19.177H19.177H19.177H19.177H19.177H19.1769H19.1769H19.1769H19.1769H19.1769H19.1769H19.1768H19.1768H19.1768H19.1768H19.1768H19.1768H19.1767H19.1767H19.1767H19.1767H19.1767H19.1767H19.1767C17.063 23.5071 15.3359 25.1883 15.3359 27.2689V29.4148H8.84334V21.5118V21.2618H8.59334H4.79259C3.69346 21.2618 2.80273 20.3828 2.80273 19.3213C2.80273 18.2525 3.69398 17.3739 4.79259 17.3739H8.59334H8.84334V17.1239V9.22102H16.9298H17.1798V8.97102V5.25395C17.1798 4.19295 18.07 3.31342 19.1767 3.31342C20.2758 3.31342 21.1665 4.19245 21.1665 5.25395V8.97102V9.22102H21.4165Z" stroke="url(#paint5_linear_665_1925)" stroke-width="0.5"/>
<defs>
<filter id="filter0_i_665_1925" x="31.4531" y="24.677" width="27.2012" height="27.4326" filterUnits="userSpaceOnUse" color-interpolation-filters="sRGB">
<feFlood flood-opacity="0" result="BackgroundImageFix"/>
<feBlend mode="normal" in="SourceGraphic" in2="BackgroundImageFix" result="shape"/>
<feColorMatrix in="SourceAlpha" type="matrix" values="0 0 0 0 0 0 0 0 0 0 0 0 0 0 0 0 0 0 127 0" result="hardAlpha"/>
<feOffset/>
<feGaussianBlur stdDeviation="5"/>
<feComposite in2="hardAlpha" operator="arithmetic" k2="-1" k3="1"/>
<feColorMatrix type="matrix" values="0 0 0 0 1 0 0 0 0 1 0 0 0 0 1 0 0 0 0.4 0"/>
<feBlend mode="normal" in2="shape" result="effect1_innerShadow_665_1925"/>
</filter>
<filter id="filter1_i_665_1925" x="2.55273" y="24.677" width="33.1504" height="33.2516" filterUnits="userSpaceOnUse" color-interpolation-filters="sRGB">
<feFlood flood-opacity="0" result="BackgroundImageFix"/>
<feBlend mode="normal" in="SourceGraphic" in2="BackgroundImageFix" result="shape"/>
<feColorMatrix in="SourceAlpha" type="matrix" values="0 0 0 0 0 0 0 0 0 0 0 0 0 0 0 0 0 0 127 0" result="hardAlpha"/>
<feOffset/>
<feGaussianBlur stdDeviation="5"/>
<feComposite in2="hardAlpha" operator="arithmetic" k2="-1" k3="1"/>
<feColorMatrix type="matrix" values="0 0 0 0 1 0 0 0 0 1 0 0 0 0 1 0 0 0 0.4 0"/>
<feBlend mode="normal" in2="shape" result="effect1_innerShadow_665_1925"/>
</filter>
<filter id="filter2_i_665_1925" x="2.55273" y="3.06342" width="27.2012" height="26.6013" filterUnits="userSpaceOnUse" color-interpolation-filters="sRGB">
<feFlood flood-opacity="0" result="BackgroundImageFix"/>
<feBlend mode="normal" in="SourceGraphic" in2="BackgroundImageFix" result="shape"/>
<feColorMatrix in="SourceAlpha" type="matrix" values="0 0 0 0 0 0 0 0 0 0 0 0 0 0 0 0 0 0 127 0" result="hardAlpha"/>
<feOffset/>
<feGaussianBlur stdDeviation="5"/>
<feComposite in2="hardAlpha" operator="arithmetic" k2="-1" k3="1"/>
<feColorMatrix type="matrix" values="0 0 0 0 1 0 0 0 0 1 0 0 0 0 1 0 0 0 0.4 0"/>
<feBlend mode="normal" in2="shape" result="effect1_innerShadow_665_1925"/>
</filter>
<linearGradient id="paint0_linear_665_1925" x1="31.4531" y1="24.677" x2="31.4531" y2="52.1096" gradientUnits="userSpaceOnUse">
<stop stop-color="#8D4FFA"/>
<stop offset="1" stop-color="#F14CCA"/>
</linearGradient>
<linearGradient id="paint1_linear_665_1925" x1="31.4531" y1="24.677" x2="31.4531" y2="52.1096" gradientUnits="userSpaceOnUse">
<stop stop-color="white" stop-opacity="0.4"/>
<stop offset="1" stop-color="white" stop-opacity="0.01"/>
</linearGradient>
<linearGradient id="paint2_linear_665_1925" x1="2.55273" y1="24.677" x2="2.55273" y2="57.9287" gradientUnits="userSpaceOnUse">
<stop stop-color="#8D4FFA"/>
<stop offset="1" stop-color="#5B00FC"/>
</linearGradient>
<linearGradient id="paint3_linear_665_1925" x1="2.55273" y1="24.677" x2="2.55273" y2="57.9287" gradientUnits="userSpaceOnUse">
<stop stop-color="white" stop-opacity="0.4"/>
<stop offset="1" stop-color="white" stop-opacity="0.01"/>
</linearGradient>
<linearGradient id="paint4_linear_665_1925" x1="2.55273" y1="3.06342" x2="2.55273" y2="29.6648" gradientUnits="userSpaceOnUse">
<stop stop-color="#F14CCA"/>
<stop offset="1" stop-color="#8D4FFA"/>
</linearGradient>
<linearGradient id="paint5_linear_665_1925" x1="2.55273" y1="3.06342" x2="2.55273" y2="29.6648" gradientUnits="userSpaceOnUse">
<stop stop-color="white" stop-opacity="0.4"/>
<stop offset="1" stop-color="white" stop-opacity="0.01"/>
</linearGradient>
</defs>
</svg>
