<svg width="200" height="200" viewBox="0 0 200 200" fill="none" xmlns="http://www.w3.org/2000/svg">
<g filter="url(#filter0_bdi_439_9076)">
<rect x="50" y="50" width="100" height="99.7625" rx="49.8813" fill="#6665D2" fill-opacity="0.2" shape-rendering="crispEdges"/>
<rect x="50.25" y="50.25" width="99.5" height="99.2625" rx="49.6313" stroke="url(#paint0_linear_439_9076)" stroke-width="0.5" shape-rendering="crispEdges"/>
</g>
<g filter="url(#filter1_i_439_9076)">
<path d="M122.596 83.348C115.244 77.8465 108.2 78.0011 108.2 78.0011L107.481 78.8236C116.221 81.4457 120.283 85.3016 120.283 85.3016C107.778 78.4168 91.8497 78.4662 78.8429 85.3016C78.8429 85.3016 83.0587 81.2398 92.3135 78.6176L91.7996 78.0004C91.7996 78.0004 84.807 77.8465 77.4038 83.3474C77.4038 83.3474 70 96.6634 70 113.065C70 113.065 74.3191 120.469 85.6815 120.829C85.6815 120.829 87.5838 118.566 89.1262 116.613C82.5968 114.659 80.1286 110.597 80.1286 110.597C84.2309 113.164 88.3787 114.771 93.5479 115.79C101.958 117.521 112.419 115.741 120.232 110.597C120.232 110.597 117.661 114.762 110.926 116.664C112.468 118.566 114.319 120.777 114.319 120.777C125.682 120.417 130 113.013 130 113.065C129.999 96.664 122.596 83.348 122.596 83.348ZM90.4113 108.284C87.5318 108.284 85.167 105.764 85.167 102.628C85.3774 95.1172 95.4977 95.1403 95.6555 102.628C95.6555 105.764 93.3414 108.284 90.4113 108.284ZM109.177 108.284C106.297 108.284 103.933 105.764 103.933 102.628C104.164 95.1319 114.157 95.1287 114.421 102.628C114.421 105.764 112.108 108.284 109.177 108.284Z" fill="#6665D2"/>
</g>
<path d="M120.041 85.7396L120.627 84.939L120.283 85.3016C120.627 84.939 120.627 84.9389 120.627 84.9387L120.626 84.9383L120.625 84.9373L120.622 84.9342L120.611 84.9239C120.601 84.9152 120.588 84.9029 120.571 84.8871C120.536 84.8556 120.485 84.8102 120.418 84.7522C120.283 84.6363 120.084 84.4701 119.818 84.2635C119.287 83.8503 118.491 83.2757 117.42 82.6196C115.4 81.3816 112.403 79.8539 108.364 78.573L108.426 78.5028C108.449 78.5034 108.474 78.5041 108.502 78.5049C108.699 78.5111 108.993 78.526 109.37 78.5608C110.124 78.6303 111.21 78.7793 112.524 79.0974C115.13 79.7285 118.628 81.0244 122.209 83.6834C122.218 83.6993 122.228 83.7172 122.238 83.7371C122.291 83.8361 122.369 83.9844 122.469 84.1797C122.669 84.5703 122.955 85.1485 123.299 85.8943C123.987 87.3861 124.906 89.5475 125.825 92.2189C127.653 97.5306 129.476 104.844 129.5 112.911C129.47 112.956 129.431 113.012 129.384 113.078C129.251 113.267 129.046 113.542 128.765 113.876C128.203 114.545 127.334 115.449 126.119 116.368C123.728 118.175 119.981 120.046 114.546 120.269L114.39 120.082C114.192 119.845 113.913 119.51 113.586 119.115C113.062 118.484 112.416 117.701 111.785 116.928C114.845 115.951 117.007 114.522 118.431 113.296C119.197 112.636 119.748 112.035 120.111 111.596C120.292 111.376 120.426 111.196 120.516 111.069C120.561 111.006 120.595 110.956 120.618 110.92C120.63 110.903 120.639 110.888 120.646 110.878L120.653 110.866L120.656 110.862L120.657 110.861L120.657 110.86C120.657 110.86 120.657 110.86 120.232 110.597L120.657 110.86L119.957 110.18C112.257 115.249 101.932 117.005 93.6487 115.3L93.6447 115.3C88.53 114.291 84.4402 112.705 80.3939 110.173L79.7013 110.857L80.1286 110.597C79.7013 110.857 79.7015 110.857 79.7016 110.857L79.7019 110.858L79.7028 110.859L79.7051 110.863L79.7126 110.875C79.7189 110.885 79.7276 110.899 79.7389 110.916C79.7614 110.951 79.7942 111 79.8375 111.062C79.9242 111.186 80.0533 111.362 80.2279 111.577C80.5771 112.008 81.1089 112.598 81.8488 113.248C83.2239 114.457 85.3157 115.873 88.2832 116.87C87.6431 117.67 86.9791 118.482 86.4398 119.135C86.1063 119.539 85.8209 119.882 85.6189 120.124C85.5559 120.2 85.501 120.265 85.4554 120.32C80.0196 120.097 76.2731 118.227 73.882 116.413C72.6666 115.492 71.7986 114.582 71.2367 113.907C70.9558 113.57 70.7517 113.291 70.6192 113.099C70.5695 113.028 70.53 112.968 70.5002 112.922C70.5215 104.85 72.3461 97.5325 74.1747 92.2182C75.0939 89.5469 76.0128 87.3855 76.701 85.8937C77.0451 85.1479 77.3313 84.5697 77.5309 84.1791C77.6307 83.9838 77.7089 83.8354 77.7617 83.7365C77.7722 83.7169 77.7817 83.6992 77.7901 83.6835C81.3975 81.024 84.8963 79.7281 87.4959 79.0969C88.8063 78.7788 89.8875 78.6297 90.6375 78.5602C90.6971 78.5547 90.7545 78.5496 90.8099 78.5451C86.8317 79.7963 83.8693 81.2876 81.848 82.5156C80.725 83.198 79.8927 83.7989 79.3384 84.232C79.0612 84.4485 78.8535 84.6231 78.7137 84.745C78.6437 84.8059 78.5908 84.8537 78.5546 84.8869C78.5365 84.9035 78.5225 84.9164 78.5128 84.9256L78.5013 84.9365L78.4979 84.9398L78.4967 84.9408L78.4963 84.9412C78.4961 84.9414 78.496 84.9416 78.8429 85.3016L78.496 84.9416L79.0755 85.7442C91.9408 78.9832 107.69 78.9396 120.041 85.7396ZM129.5 113.065L129.999 113.065C129.997 113.068 129.985 113.086 129.963 113.118C129.922 113.18 129.845 113.295 129.73 113.454C129.677 113.426 129.631 113.395 129.597 113.362C129.545 113.273 129.503 113.121 129.5 113.065ZM130 113.065H130.5H130ZM84.6672 102.614L84.667 102.614V102.628C84.667 106.006 87.2225 108.784 90.4113 108.784C93.6537 108.784 96.1555 106.003 96.1555 102.628H96.1556L96.1554 102.618C96.1135 100.627 95.4054 99.0913 94.3265 98.0527C93.2526 97.019 91.8392 96.5052 90.4315 96.5036C89.0238 96.502 87.6074 97.0127 86.527 98.0449C85.4415 99.082 84.7231 100.618 84.6672 102.614ZM103.433 102.613L103.433 102.62V102.628C103.433 106.006 105.988 108.784 109.177 108.784C112.42 108.784 114.921 106.003 114.921 102.628V102.619L114.921 102.611C114.851 100.619 114.131 99.0856 113.05 98.0492C111.973 97.0173 110.565 96.5046 109.165 96.5048C107.764 96.505 106.358 97.0182 105.285 98.0509C104.208 99.088 103.494 100.622 103.433 102.613Z" stroke="url(#paint1_linear_439_9076)" stroke-opacity="0.4"/>
<defs>
<filter id="filter0_bdi_439_9076" x="0" y="0" width="200" height="199.763" filterUnits="userSpaceOnUse" color-interpolation-filters="sRGB">
<feFlood flood-opacity="0" result="BackgroundImageFix"/>
<feGaussianBlur in="BackgroundImage" stdDeviation="2.71828"/>
<feComposite in2="SourceAlpha" operator="in" result="effect1_backgroundBlur_439_9076"/>
<feColorMatrix in="SourceAlpha" type="matrix" values="0 0 0 0 0 0 0 0 0 0 0 0 0 0 0 0 0 0 127 0" result="hardAlpha"/>
<feOffset/>
<feGaussianBlur stdDeviation="25"/>
<feComposite in2="hardAlpha" operator="out"/>
<feColorMatrix type="matrix" values="0 0 0 0 0.4 0 0 0 0 0.396078 0 0 0 0 0.823529 0 0 0 0.15 0"/>
<feBlend mode="normal" in2="effect1_backgroundBlur_439_9076" result="effect2_dropShadow_439_9076"/>
<feBlend mode="normal" in="SourceGraphic" in2="effect2_dropShadow_439_9076" result="shape"/>
<feColorMatrix in="SourceAlpha" type="matrix" values="0 0 0 0 0 0 0 0 0 0 0 0 0 0 0 0 0 0 127 0" result="hardAlpha"/>
<feOffset/>
<feGaussianBlur stdDeviation="2"/>
<feComposite in2="hardAlpha" operator="arithmetic" k2="-1" k3="1"/>
<feColorMatrix type="matrix" values="0 0 0 0 1 0 0 0 0 1 0 0 0 0 1 0 0 0 0.3 0"/>
<feBlend mode="normal" in2="shape" result="effect3_innerShadow_439_9076"/>
</filter>
<filter id="filter1_i_439_9076" x="70" y="78" width="60" height="42.8281" filterUnits="userSpaceOnUse" color-interpolation-filters="sRGB">
<feFlood flood-opacity="0" result="BackgroundImageFix"/>
<feBlend mode="normal" in="SourceGraphic" in2="BackgroundImageFix" result="shape"/>
<feColorMatrix in="SourceAlpha" type="matrix" values="0 0 0 0 0 0 0 0 0 0 0 0 0 0 0 0 0 0 127 0" result="hardAlpha"/>
<feOffset/>
<feGaussianBlur stdDeviation="5"/>
<feComposite in2="hardAlpha" operator="arithmetic" k2="-1" k3="1"/>
<feColorMatrix type="matrix" values="0 0 0 0 1 0 0 0 0 1 0 0 0 0 1 0 0 0 0.4 0"/>
<feBlend mode="normal" in2="shape" result="effect1_innerShadow_439_9076"/>
</filter>
<linearGradient id="paint0_linear_439_9076" x1="50" y1="50" x2="50" y2="149.763" gradientUnits="userSpaceOnUse">
<stop stop-color="white" stop-opacity="0.3"/>
<stop offset="1" stop-color="white" stop-opacity="0.13"/>
</linearGradient>
<linearGradient id="paint1_linear_439_9076" x1="100" y1="78" x2="100" y2="120.829" gradientUnits="userSpaceOnUse">
<stop stop-color="white" stop-opacity="0.4"/>
<stop offset="1" stop-color="white" stop-opacity="0"/>
</linearGradient>
</defs>
</svg>
