<svg width="80" height="80" viewBox="0 0 80 80" fill="none" xmlns="http://www.w3.org/2000/svg">
<g filter="url(#filter0_bdi_491_4732)">
<rect x="20" y="20" width="40" height="40" rx="6" fill="#47F49A" fill-opacity="0.15" shape-rendering="crispEdges"/>
<rect x="20.25" y="20.25" width="39.5" height="39.5" rx="5.75" stroke="url(#paint0_linear_491_4732)" stroke-width="0.5" shape-rendering="crispEdges"/>
</g>
<g filter="url(#filter1_i_491_4732)">
<path d="M45.0857 40.586C45.379 41.2607 45.5257 41.994 45.5257 42.786C45.5257 43.534 45.3717 44.282 45.0637 45.03C44.6677 45.998 44.015 46.768 43.1057 47.34C42.1964 47.8973 41.1404 48.176 39.9377 48.176C38.7644 48.176 37.7157 47.89 36.7917 47.318C35.8824 46.746 35.215 45.9687 34.7897 44.986C34.5404 44.4433 34.3937 43.798 34.3497 43.05C34.3497 42.83 34.4597 42.72 34.6797 42.72H38.1997C38.405 42.72 38.5224 42.8227 38.5517 43.028C38.6104 43.4533 38.7057 43.7833 38.8377 44.018C39.0724 44.4287 39.4317 44.634 39.9157 44.634C40.3997 44.634 40.7664 44.4287 41.0157 44.018C41.2357 43.6367 41.3457 43.182 41.3457 42.654C41.3457 42.1113 41.243 41.6493 41.0377 41.268C40.7737 40.828 40.3924 40.608 39.8937 40.608C39.7177 40.608 39.527 40.6667 39.3217 40.784C39.131 40.9013 38.8597 41.092 38.5077 41.356C38.449 41.4147 38.3757 41.444 38.2877 41.444C38.185 41.444 38.1044 41.3927 38.0457 41.29L36.3077 38.826C36.2637 38.7527 36.2417 38.6793 36.2417 38.606C36.2417 38.5033 36.293 38.4227 36.3957 38.364L39.6077 36.274C39.6517 36.2593 39.6664 36.2373 39.6517 36.208C39.637 36.164 39.6077 36.142 39.5637 36.142H35.1197C35.017 36.142 34.9364 36.1127 34.8777 36.054C34.819 35.9953 34.7897 35.9147 34.7897 35.812V32.93C34.7897 32.8273 34.819 32.7467 34.8777 32.688C34.9364 32.6293 35.017 32.6 35.1197 32.6H44.9317C45.0344 32.6 45.115 32.6293 45.1737 32.688C45.2324 32.7467 45.2617 32.8273 45.2617 32.93V36.164C45.2617 36.3547 45.1957 36.494 45.0637 36.582L42.6877 38.232C42.6144 38.2907 42.629 38.342 42.7317 38.386C43.817 38.7233 44.6017 39.4567 45.0857 40.586Z" fill="url(#paint1_linear_491_4732)"/>
</g>
<path d="M45.0857 40.586L44.6261 40.783L44.6272 40.7854L45.0857 40.586ZM45.0637 45.03L44.6014 44.8396L44.6009 44.8407L45.0637 45.03ZM43.1057 47.34L43.367 47.7663L43.3719 47.7632L43.1057 47.34ZM36.7917 47.318L36.5255 47.7412L36.5285 47.7431L36.7917 47.318ZM34.7897 44.986L35.2487 44.7873L35.244 44.7773L34.7897 44.986ZM34.3497 43.05H33.8497V43.0647L33.8506 43.0794L34.3497 43.05ZM38.5517 43.028L39.047 42.9597L39.0467 42.9573L38.5517 43.028ZM38.8377 44.018L38.4019 44.2631L38.4036 44.2661L38.8377 44.018ZM41.0157 44.018L41.4432 44.2776L41.4488 44.2679L41.0157 44.018ZM41.0377 41.268L41.4779 41.0309L41.4724 41.0207L41.4664 41.0108L41.0377 41.268ZM39.3217 40.784L39.0736 40.3499L39.0666 40.3539L39.0596 40.3582L39.3217 40.784ZM38.5077 41.356L38.2077 40.956L38.1793 40.9773L38.1541 41.0024L38.5077 41.356ZM38.0457 41.29L38.4798 41.0419L38.468 41.0213L38.4543 41.0018L38.0457 41.29ZM36.3077 38.826L35.8789 39.0832L35.8885 39.0991L35.8991 39.1142L36.3077 38.826ZM36.3957 38.364L36.6438 38.7981L36.6563 38.791L36.6684 38.7831L36.3957 38.364ZM39.6077 36.274L39.4496 35.7997L39.3887 35.8199L39.335 35.8549L39.6077 36.274ZM39.6517 36.208L39.1774 36.3661L39.1886 36.3998L39.2045 36.4316L39.6517 36.208ZM45.0637 36.582L44.7863 36.1659L44.7785 36.1713L45.0637 36.582ZM42.6877 38.232L42.4025 37.8213L42.3886 37.831L42.3753 37.8416L42.6877 38.232ZM42.7317 38.386L42.5347 38.8456L42.5585 38.8558L42.5833 38.8635L42.7317 38.386ZM44.6272 40.7854C44.8911 41.3924 45.0257 42.0573 45.0257 42.786H46.0257C46.0257 41.9307 45.867 41.1289 45.5442 40.3866L44.6272 40.7854ZM45.0257 42.786C45.0257 43.4635 44.8865 44.1471 44.6014 44.8396L45.526 45.2204C45.8569 44.4169 46.0257 43.6045 46.0257 42.786H45.0257ZM44.6009 44.8407C44.2456 45.7093 43.6631 46.3987 42.8395 46.9168L43.3719 47.7632C44.367 47.1373 45.0898 46.2867 45.5265 45.2193L44.6009 44.8407ZM42.8444 46.9137C42.0234 47.4169 41.0602 47.676 39.9377 47.676V48.676C41.2205 48.676 42.3693 48.3778 43.367 47.7663L42.8444 46.9137ZM39.9377 47.676C38.8496 47.676 37.8935 47.412 37.0549 46.8929L36.5285 47.7431C37.5379 48.368 38.6791 48.676 39.9377 48.676V47.676ZM37.0579 46.8948C36.2337 46.3763 35.6337 45.6771 35.2486 44.7874L34.3308 45.1846C34.7964 46.2602 35.531 47.1157 36.5255 47.7412L37.0579 46.8948ZM35.244 44.7773C35.0263 44.3034 34.8901 43.7218 34.8488 43.0206L33.8506 43.0794C33.8973 43.8742 34.0544 44.5832 34.3354 45.1947L35.244 44.7773ZM34.8497 43.05C34.8497 43.0171 34.8576 43.0842 34.7857 43.1561C34.7139 43.2279 34.6468 43.22 34.6797 43.22V42.22C34.4926 42.22 34.2605 42.2671 34.0786 42.4489C33.8968 42.6308 33.8497 42.8629 33.8497 43.05H34.8497ZM34.6797 43.22H38.1997V42.22H34.6797V43.22ZM38.1997 43.22C38.2203 43.22 38.1706 43.2241 38.1124 43.1733C38.055 43.123 38.0533 43.0749 38.0567 43.0987L39.0467 42.9573C39.0207 42.7758 38.9457 42.5736 38.7709 42.4207C38.5955 42.2672 38.3844 42.22 38.1997 42.22V43.22ZM38.0564 43.0963C38.1191 43.5512 38.2263 43.951 38.4019 44.2631L39.2735 43.7729C39.1851 43.6157 39.1016 43.3554 39.047 42.9597L38.0564 43.0963ZM38.4036 44.2661C38.7298 44.837 39.2574 45.134 39.9157 45.134V44.134C39.6059 44.134 39.4149 44.0204 39.2718 43.7699L38.4036 44.2661ZM39.9157 45.134C40.5728 45.134 41.1023 44.8388 41.4431 44.2775L40.5883 43.7585C40.4305 44.0185 40.2266 44.134 39.9157 44.134V45.134ZM41.4488 44.2679C41.7206 43.7967 41.8457 43.2522 41.8457 42.654H40.8457C40.8457 43.1118 40.7508 43.4766 40.5826 43.7681L41.4488 44.2679ZM41.8457 42.654C41.8457 42.0491 41.7312 41.5013 41.4779 41.0309L40.5975 41.505C40.7549 41.7974 40.8457 42.1735 40.8457 42.654H41.8457ZM41.4664 41.0108C41.1153 40.4255 40.5741 40.108 39.8937 40.108V41.108C40.2106 41.108 40.4321 41.2305 40.6089 41.5252L41.4664 41.0108ZM39.8937 40.108C39.6058 40.108 39.3295 40.2037 39.0736 40.3499L39.5698 41.2181C39.7246 41.1297 39.8296 41.108 39.8937 41.108V40.108ZM39.0596 40.3582C38.8488 40.4879 38.5627 40.6898 38.2077 40.956L38.8077 41.756C39.1567 41.4942 39.4132 41.3148 39.5837 41.2098L39.0596 40.3582ZM38.1541 41.0024C38.1702 40.9864 38.1936 40.9695 38.223 40.9578C38.2518 40.9463 38.2753 40.944 38.2877 40.944V41.944C38.4994 41.944 38.7027 41.8681 38.8612 41.7096L38.1541 41.0024ZM38.2877 40.944C38.3241 40.944 38.3728 40.9545 38.4186 40.9837C38.4612 41.0107 38.4782 41.0392 38.4798 41.0419L37.6116 41.5381C37.7431 41.7682 37.9752 41.944 38.2877 41.944V40.944ZM38.4543 41.0018L36.7163 38.5378L35.8991 39.1142L37.6371 41.5782L38.4543 41.0018ZM36.7364 38.5688C36.7334 38.5636 36.7349 38.5649 36.7371 38.5723C36.7395 38.5802 36.7417 38.5919 36.7417 38.606H35.7417C35.7417 38.7841 35.7962 38.9453 35.8789 39.0832L36.7364 38.5688ZM36.7417 38.606C36.7417 38.6424 36.7312 38.6911 36.702 38.7369C36.675 38.7795 36.6465 38.7965 36.6438 38.7981L36.1476 37.9299C35.9175 38.0614 35.7417 38.2935 35.7417 38.606H36.7417ZM36.6684 38.7831L39.8804 36.6931L39.335 35.8549L36.123 37.9449L36.6684 38.7831ZM39.7658 36.7483C39.8222 36.7295 39.9671 36.6747 40.0677 36.5239C40.1997 36.3258 40.1639 36.1144 40.0989 35.9844L39.2045 36.4316C39.1828 36.3882 39.1572 36.3183 39.1572 36.2286C39.1572 36.1332 39.1863 36.0432 39.2357 35.9691C39.3216 35.8403 39.4372 35.8038 39.4496 35.7997L39.7658 36.7483ZM40.126 36.0499C40.0951 35.957 40.0339 35.8449 39.9187 35.7585C39.8012 35.6704 39.6716 35.642 39.5637 35.642V36.642C39.4998 36.642 39.4068 36.6246 39.3187 36.5585C39.2328 36.4941 39.1936 36.415 39.1774 36.3661L40.126 36.0499ZM39.5637 35.642H35.1197V36.642H39.5637V35.642ZM35.1197 35.642C35.1155 35.642 35.1291 35.6414 35.1531 35.6501C35.179 35.6595 35.2071 35.6763 35.2312 35.7004L34.5241 36.4076C34.6978 36.5812 34.9178 36.642 35.1197 36.642V35.642ZM35.2312 35.7004C35.2554 35.7246 35.2722 35.7527 35.2816 35.7786C35.2903 35.8026 35.2897 35.8162 35.2897 35.812H34.2897C34.2897 36.0139 34.3505 36.2339 34.5241 36.4076L35.2312 35.7004ZM35.2897 35.812V32.93H34.2897V35.812H35.2897ZM35.2897 32.93C35.2897 32.9258 35.2903 32.9394 35.2816 32.9634C35.2722 32.9893 35.2554 33.0174 35.2312 33.0416L34.5241 32.3344C34.3505 32.5081 34.2897 32.7281 34.2897 32.93H35.2897ZM35.2312 33.0416C35.2071 33.0657 35.179 33.0825 35.1531 33.0919C35.1291 33.1006 35.1155 33.1 35.1197 33.1V32.1C34.9178 32.1 34.6978 32.1608 34.5241 32.3344L35.2312 33.0416ZM35.1197 33.1H44.9317V32.1H35.1197V33.1ZM44.9317 33.1C44.9359 33.1 44.9223 33.1006 44.8983 33.0919C44.8724 33.0825 44.8443 33.0657 44.8201 33.0416L45.5272 32.3344C45.3536 32.1608 45.1336 32.1 44.9317 32.1V33.1ZM44.8201 33.0416C44.796 33.0174 44.7792 32.9893 44.7698 32.9634C44.7611 32.9394 44.7617 32.9258 44.7617 32.93H45.7617C45.7617 32.7281 45.7009 32.5081 45.5272 32.3344L44.8201 33.0416ZM44.7617 32.93V36.164H45.7617V32.93H44.7617ZM44.7617 36.164C44.7617 36.2024 44.755 36.2086 44.7603 36.1975C44.763 36.1919 44.7673 36.1849 44.7733 36.178C44.7792 36.1712 44.7843 36.1673 44.7863 36.166L45.341 36.998C45.6416 36.7977 45.7617 36.4831 45.7617 36.164H44.7617ZM44.7785 36.1713L42.4025 37.8213L42.9729 38.6427L45.3489 36.9927L44.7785 36.1713ZM42.3753 37.8416C42.3093 37.8944 42.066 38.1126 42.1629 38.4519C42.2043 38.5965 42.2936 38.689 42.3559 38.7397C42.4192 38.7911 42.4848 38.8242 42.5347 38.8456L42.9287 37.9264C42.9296 37.9268 42.9353 37.9293 42.9443 37.9344C42.9531 37.9394 42.9682 37.9487 42.9865 37.9636C43.0195 37.9904 43.0905 38.0582 43.1245 38.1771C43.1623 38.3097 43.1331 38.4299 43.0904 38.5099C43.0538 38.5785 43.0104 38.6141 43 38.6224L42.3753 37.8416ZM42.5833 38.8635C43.5165 39.1535 44.1945 39.7758 44.6261 40.783L45.5453 40.389C45.0089 39.1375 44.1176 38.2931 42.8801 37.9085L42.5833 38.8635Z" fill="url(#paint2_linear_491_4732)"/>
<defs>
<filter id="filter0_bdi_491_4732" x="0" y="0" width="80" height="80" filterUnits="userSpaceOnUse" color-interpolation-filters="sRGB">
<feFlood flood-opacity="0" result="BackgroundImageFix"/>
<feGaussianBlur in="BackgroundImage" stdDeviation="2.71828"/>
<feComposite in2="SourceAlpha" operator="in" result="effect1_backgroundBlur_491_4732"/>
<feColorMatrix in="SourceAlpha" type="matrix" values="0 0 0 0 0 0 0 0 0 0 0 0 0 0 0 0 0 0 127 0" result="hardAlpha"/>
<feOffset/>
<feGaussianBlur stdDeviation="10"/>
<feComposite in2="hardAlpha" operator="out"/>
<feColorMatrix type="matrix" values="0 0 0 0 0 0 0 0 0 1 0 0 0 0 0.815686 0 0 0 0.15 0"/>
<feBlend mode="normal" in2="effect1_backgroundBlur_491_4732" result="effect2_dropShadow_491_4732"/>
<feBlend mode="normal" in="SourceGraphic" in2="effect2_dropShadow_491_4732" result="shape"/>
<feColorMatrix in="SourceAlpha" type="matrix" values="0 0 0 0 0 0 0 0 0 0 0 0 0 0 0 0 0 0 127 0" result="hardAlpha"/>
<feOffset/>
<feGaussianBlur stdDeviation="2"/>
<feComposite in2="hardAlpha" operator="arithmetic" k2="-1" k3="1"/>
<feColorMatrix type="matrix" values="0 0 0 0 1 0 0 0 0 1 0 0 0 0 1 0 0 0 0.3 0"/>
<feBlend mode="normal" in2="shape" result="effect3_innerShadow_491_4732"/>
</filter>
<filter id="filter1_i_491_4732" x="34.3496" y="32.6001" width="11.1758" height="15.5757" filterUnits="userSpaceOnUse" color-interpolation-filters="sRGB">
<feFlood flood-opacity="0" result="BackgroundImageFix"/>
<feBlend mode="normal" in="SourceGraphic" in2="BackgroundImageFix" result="shape"/>
<feColorMatrix in="SourceAlpha" type="matrix" values="0 0 0 0 0 0 0 0 0 0 0 0 0 0 0 0 0 0 127 0" result="hardAlpha"/>
<feOffset/>
<feGaussianBlur stdDeviation="5"/>
<feComposite in2="hardAlpha" operator="arithmetic" k2="-1" k3="1"/>
<feColorMatrix type="matrix" values="0 0 0 0 1 0 0 0 0 1 0 0 0 0 1 0 0 0 0.4 0"/>
<feBlend mode="normal" in2="shape" result="effect1_innerShadow_491_4732"/>
</filter>
<linearGradient id="paint0_linear_491_4732" x1="20" y1="18.5714" x2="20" y2="58.5714" gradientUnits="userSpaceOnUse">
<stop stop-color="white" stop-opacity="0.3"/>
<stop offset="1" stop-color="white" stop-opacity="0.13"/>
</linearGradient>
<linearGradient id="paint1_linear_491_4732" x1="29.0965" y1="26" x2="29.0965" y2="53.7545" gradientUnits="userSpaceOnUse">
<stop stop-color="#00FFD0"/>
<stop offset="1" stop-color="#0B9D71"/>
</linearGradient>
<linearGradient id="paint2_linear_491_4732" x1="29" y1="26" x2="29" y2="54" gradientUnits="userSpaceOnUse">
<stop stop-color="white" stop-opacity="0.4"/>
<stop offset="1" stop-color="white" stop-opacity="0.01"/>
</linearGradient>
</defs>
</svg>
