<svg width="66" height="66" viewBox="0 0 66 66" fill="none" xmlns="http://www.w3.org/2000/svg">
<mask id="path-1-inside-1_834_1102" fill="white">
<path fill-rule="evenodd" clip-rule="evenodd" d="M43.8316 0.5C36.8513 0.5 31.1927 6.15863 31.1927 13.1389V14.9444C31.1927 18.1533 32.3885 21.0828 34.3588 23.3118C26.144 25.6063 20.3594 31.1007 20.3594 37.5139C20.3594 45.9899 30.4641 52.8611 42.9288 52.8611C55.3936 52.8611 65.4983 45.9899 65.4983 37.5139C65.4983 31.4732 60.3659 26.2475 52.9046 23.7434C55.1118 21.468 56.4705 18.3649 56.4705 14.9444V13.1389C56.4705 6.15862 50.8119 0.5 43.8316 0.5Z"/>
</mask>
<g filter="url(#filter0_i_834_1102)">
<path fill-rule="evenodd" clip-rule="evenodd" d="M43.8316 0.5C36.8513 0.5 31.1927 6.15863 31.1927 13.1389V14.9444C31.1927 18.1533 32.3885 21.0828 34.3588 23.3118C26.144 25.6063 20.3594 31.1007 20.3594 37.5139C20.3594 45.9899 30.4641 52.8611 42.9288 52.8611C55.3936 52.8611 65.4983 45.9899 65.4983 37.5139C65.4983 31.4732 60.3659 26.2475 52.9046 23.7434C55.1118 21.468 56.4705 18.3649 56.4705 14.9444V13.1389C56.4705 6.15862 50.8119 0.5 43.8316 0.5Z" fill="url(#paint0_linear_834_1102)"/>
</g>
<path d="M34.3588 23.3118L34.4933 23.7933L35.2621 23.5786L34.7335 22.9806L34.3588 23.3118ZM52.9046 23.7434L52.5457 23.3953L51.9932 23.9649L52.7455 24.2174L52.9046 23.7434ZM31.6927 13.1389C31.6927 6.43477 37.1275 1 43.8316 1V0C36.5752 0 30.6927 5.88249 30.6927 13.1389H31.6927ZM31.6927 14.9444V13.1389H30.6927V14.9444H31.6927ZM34.7335 22.9806C32.8408 20.8396 31.6927 18.0267 31.6927 14.9444H30.6927C30.6927 18.2799 31.9362 21.3261 33.9842 23.6429L34.7335 22.9806ZM20.8594 37.5139C20.8594 31.43 26.3733 26.0615 34.4933 23.7933L34.2243 22.8302C25.9148 25.1512 19.8594 30.7715 19.8594 37.5139H20.8594ZM42.9288 52.3611C36.7834 52.3611 31.2419 50.6664 27.251 47.9525C23.2573 45.2369 20.8594 41.5373 20.8594 37.5139H19.8594C19.8594 41.9665 22.5137 45.9405 26.6887 48.7795C30.8662 51.6202 36.6095 53.3611 42.9288 53.3611V52.3611ZM64.9983 37.5139C64.9983 41.5373 62.6003 45.2369 58.6067 47.9525C54.6157 50.6664 49.0742 52.3611 42.9288 52.3611V53.3611C49.2482 53.3611 54.9914 51.6202 59.169 48.7795C63.3439 45.9405 65.9983 41.9665 65.9983 37.5139H64.9983ZM52.7455 24.2174C60.1108 26.6893 64.9983 31.783 64.9983 37.5139H65.9983C65.9983 31.1633 60.621 25.8058 53.0637 23.2694L52.7455 24.2174ZM55.9705 14.9444C55.9705 18.2297 54.666 21.2094 52.5457 23.3953L53.2635 24.0915C55.5575 21.7266 56.9705 18.5 56.9705 14.9444H55.9705ZM55.9705 13.1389V14.9444H56.9705V13.1389H55.9705ZM43.8316 1C50.5357 1 55.9705 6.43476 55.9705 13.1389H56.9705C56.9705 5.88248 51.088 0 43.8316 0V1Z" fill="url(#paint1_linear_834_1102)" mask="url(#path-1-inside-1_834_1102)"/>
<g filter="url(#filter1_bi_834_1102)">
<mask id="path-3-inside-2_834_1102" fill="white">
<path fill-rule="evenodd" clip-rule="evenodd" d="M25.7778 7.72266C17.8003 7.72266 11.3333 14.1897 11.3333 22.1671C11.3333 26.2632 13.0383 29.961 15.7772 32.5897C6.79058 35.2193 0.5 41.2851 0.5 48.3478C0.5 57.821 11.8172 65.5006 25.7778 65.5006C39.7383 65.5006 51.0556 57.821 51.0556 48.3478C51.0556 41.2851 44.765 35.2193 35.7784 32.5897C38.5173 29.961 40.2222 26.2632 40.2222 22.1671C40.2222 14.1897 33.7552 7.72266 25.7778 7.72266Z"/>
</mask>
<path fill-rule="evenodd" clip-rule="evenodd" d="M25.7778 7.72266C17.8003 7.72266 11.3333 14.1897 11.3333 22.1671C11.3333 26.2632 13.0383 29.961 15.7772 32.5897C6.79058 35.2193 0.5 41.2851 0.5 48.3478C0.5 57.821 11.8172 65.5006 25.7778 65.5006C39.7383 65.5006 51.0556 57.821 51.0556 48.3478C51.0556 41.2851 44.765 35.2193 35.7784 32.5897C38.5173 29.961 40.2222 26.2632 40.2222 22.1671C40.2222 14.1897 33.7552 7.72266 25.7778 7.72266Z" fill="#47F49A" fill-opacity="0.3"/>
<path d="M15.7772 32.5897L15.9176 33.0696L16.7466 32.827L16.1234 32.229L15.7772 32.5897ZM35.7784 32.5897L35.4321 32.229L34.809 32.827L35.6379 33.0696L35.7784 32.5897ZM11.8333 22.1671C11.8333 14.4658 18.0765 8.22266 25.7778 8.22266V7.22266C17.5242 7.22266 10.8333 13.9135 10.8333 22.1671H11.8333ZM16.1234 32.229C13.4787 29.6907 11.8333 26.1215 11.8333 22.1671H10.8333C10.8333 26.4049 12.5979 30.2314 15.431 32.9505L16.1234 32.229ZM1 48.3478C1 41.6101 7.02546 35.6716 15.9176 33.0696L15.6368 32.1098C6.55569 34.7671 0 40.96 0 48.3478H1ZM25.7778 65.0006C18.8843 65.0006 12.6656 63.1037 8.18444 60.0629C3.70058 57.0203 1 52.8693 1 48.3478H0C0 53.2995 2.95804 57.7249 7.62294 60.8904C12.2906 64.0577 18.7108 66.0006 25.7778 66.0006V65.0006ZM50.5556 48.3478C50.5556 52.8693 47.855 57.0203 43.3711 60.0629C38.89 63.1037 32.6713 65.0006 25.7778 65.0006V66.0006C32.8448 66.0006 39.265 64.0577 43.9326 60.8904C48.5975 57.7249 51.5556 53.2995 51.5556 48.3478H50.5556ZM35.6379 33.0696C44.5301 35.6716 50.5556 41.6101 50.5556 48.3478H51.5556C51.5556 40.96 44.9999 34.7671 35.9188 32.1098L35.6379 33.0696ZM39.7222 22.1671C39.7222 26.1215 38.0769 29.6907 35.4321 32.229L36.1246 32.9505C38.9577 30.2314 40.7222 26.4049 40.7222 22.1671H39.7222ZM25.7778 8.22266C33.4791 8.22266 39.7222 14.4658 39.7222 22.1671H40.7222C40.7222 13.9135 34.0314 7.22266 25.7778 7.22266V8.22266Z" fill="url(#paint2_linear_834_1102)" mask="url(#path-3-inside-2_834_1102)"/>
</g>
<defs>
<filter id="filter0_i_834_1102" x="20.3594" y="0.5" width="45.1387" height="52.3613" filterUnits="userSpaceOnUse" color-interpolation-filters="sRGB">
<feFlood flood-opacity="0" result="BackgroundImageFix"/>
<feBlend mode="normal" in="SourceGraphic" in2="BackgroundImageFix" result="shape"/>
<feColorMatrix in="SourceAlpha" type="matrix" values="0 0 0 0 0 0 0 0 0 0 0 0 0 0 0 0 0 0 127 0" result="hardAlpha"/>
<feOffset/>
<feGaussianBlur stdDeviation="5"/>
<feComposite in2="hardAlpha" operator="arithmetic" k2="-1" k3="1"/>
<feColorMatrix type="matrix" values="0 0 0 0 1 0 0 0 0 1 0 0 0 0 1 0 0 0 0.4 0"/>
<feBlend mode="normal" in2="shape" result="effect1_innerShadow_834_1102"/>
</filter>
<filter id="filter1_bi_834_1102" x="-4.93656" y="2.28609" width="61.4278" height="68.6514" filterUnits="userSpaceOnUse" color-interpolation-filters="sRGB">
<feFlood flood-opacity="0" result="BackgroundImageFix"/>
<feGaussianBlur in="BackgroundImage" stdDeviation="2.71828"/>
<feComposite in2="SourceAlpha" operator="in" result="effect1_backgroundBlur_834_1102"/>
<feBlend mode="normal" in="SourceGraphic" in2="effect1_backgroundBlur_834_1102" result="shape"/>
<feColorMatrix in="SourceAlpha" type="matrix" values="0 0 0 0 0 0 0 0 0 0 0 0 0 0 0 0 0 0 127 0" result="hardAlpha"/>
<feOffset/>
<feGaussianBlur stdDeviation="2"/>
<feComposite in2="hardAlpha" operator="arithmetic" k2="-1" k3="1"/>
<feColorMatrix type="matrix" values="0 0 0 0 1 0 0 0 0 1 0 0 0 0 1 0 0 0 0.3 0"/>
<feBlend mode="normal" in2="shape" result="effect2_innerShadow_834_1102"/>
</filter>
<linearGradient id="paint0_linear_834_1102" x1="20.5573" y1="0.5" x2="20.5573" y2="52.402" gradientUnits="userSpaceOnUse">
<stop stop-color="#00FFD0"/>
<stop offset="1" stop-color="#0B9D71"/>
</linearGradient>
<linearGradient id="paint1_linear_834_1102" x1="20.3594" y1="0.5" x2="20.3594" y2="52.8611" gradientUnits="userSpaceOnUse">
<stop stop-color="white" stop-opacity="0.4"/>
<stop offset="1" stop-color="white" stop-opacity="0.01"/>
</linearGradient>
<linearGradient id="paint2_linear_834_1102" x1="0.5" y1="7.72266" x2="0.5" y2="65.5006" gradientUnits="userSpaceOnUse">
<stop stop-color="white" stop-opacity="0.3"/>
<stop offset="1" stop-color="white" stop-opacity="0.13"/>
</linearGradient>
</defs>
</svg>
