<svg width="64" height="945" viewBox="0 0 64 945" fill="none" xmlns="http://www.w3.org/2000/svg">
<g filter="url(#filter0_d_439_9463)">
<path d="M30.5 42.0136C30.5 42.842 31.1716 43.5136 32 43.5136C32.8284 43.5136 33.5 42.842 33.5 42.0136L30.5 42.0136ZM33.5 52.0249C33.5 51.1965 32.8284 50.5249 32 50.5249C31.1716 50.5249 30.5 51.1965 30.5 52.0249L33.5 52.0249ZM30.5 76.052C30.5 76.8805 31.1716 77.552 32 77.552C32.8284 77.552 33.5 76.8805 33.5 76.052L30.5 76.052ZM33.5 86.0633C33.5 85.2349 32.8284 84.5633 32 84.5633C31.1716 84.5633 30.5 85.2349 30.5 86.0633L33.5 86.0633ZM30.5 110.09C30.5 110.919 31.1716 111.59 32 111.59C32.8284 111.59 33.5 110.919 33.5 110.09L30.5 110.09ZM33.5 120.102C33.5 119.273 32.8284 118.602 32 118.602C31.1716 118.602 30.5 119.273 30.5 120.102L33.5 120.102ZM30.5 144.129C30.5 144.957 31.1716 145.629 32 145.629C32.8284 145.629 33.5 144.957 33.5 144.129L30.5 144.129ZM33.5 154.14C33.5 153.312 32.8284 152.64 32 152.64C31.1716 152.64 30.5 153.312 30.5 154.14L33.5 154.14ZM30.5 178.167C30.5 178.996 31.1716 179.667 32 179.667C32.8284 179.667 33.5 178.996 33.5 178.167L30.5 178.167ZM33.5 188.179C33.5 187.35 32.8284 186.679 32 186.679C31.1716 186.679 30.5 187.35 30.5 188.179L33.5 188.179ZM30.5 212.206C30.5 213.034 31.1716 213.706 32 213.706C32.8284 213.706 33.5 213.034 33.5 212.206L30.5 212.206ZM33.5 222.217C33.5 221.389 32.8284 220.717 32 220.717C31.1716 220.717 30.5 221.389 30.5 222.217L33.5 222.217ZM30.5 246.244C30.5 247.073 31.1716 247.744 32 247.744C32.8284 247.744 33.5 247.073 33.5 246.244L30.5 246.244ZM33.5 256.256C33.5 255.427 32.8284 254.756 32 254.756C31.1716 254.756 30.5 255.427 30.5 256.256L33.5 256.256ZM30.5 280.283C30.5 281.111 31.1716 281.783 32 281.783C32.8284 281.783 33.5 281.111 33.5 280.283L30.5 280.283ZM33.5 290.294C33.5 289.466 32.8284 288.794 32 288.794C31.1716 288.794 30.5 289.466 30.5 290.294L33.5 290.294ZM30.5 314.321C30.5 315.15 31.1716 315.821 32 315.821C32.8284 315.821 33.5 315.15 33.5 314.321L30.5 314.321ZM33.5 324.333C33.5 323.504 32.8284 322.833 32 322.833C31.1716 322.833 30.5 323.504 30.5 324.333L33.5 324.333ZM30.5 348.36C30.5 349.188 31.1716 349.86 32 349.86C32.8284 349.86 33.5 349.188 33.5 348.36L30.5 348.36ZM33.5 358.371C33.5 357.543 32.8284 356.871 32 356.871C31.1716 356.871 30.5 357.543 30.5 358.371L33.5 358.371ZM30.5 382.398C30.5 383.227 31.1716 383.898 32 383.898C32.8284 383.898 33.5 383.227 33.5 382.398L30.5 382.398ZM33.5 392.41C33.5 391.581 32.8284 390.91 32 390.91C31.1716 390.91 30.5 391.581 30.5 392.41L33.5 392.41ZM30.5 416.437C30.5 417.265 31.1716 417.937 32 417.937C32.8284 417.937 33.5 417.265 33.5 416.437L30.5 416.437ZM33.5 426.448C33.5 425.62 32.8284 424.948 32 424.948C31.1716 424.948 30.5 425.62 30.5 426.448L33.5 426.448ZM30.5 450.475C30.5 451.304 31.1716 451.975 32 451.975C32.8284 451.975 33.5 451.304 33.5 450.475L30.5 450.475ZM33.5 460.487C33.5 459.658 32.8284 458.987 32 458.987C31.1716 458.987 30.5 459.658 30.5 460.487L33.5 460.487ZM30.5 484.514C30.5 485.342 31.1716 486.014 32 486.014C32.8284 486.014 33.5 485.342 33.5 484.514L30.5 484.514ZM33.5 494.525C33.5 493.697 32.8284 493.025 32 493.025C31.1716 493.025 30.5 493.697 30.5 494.525L33.5 494.525ZM30.5 518.552C30.5 519.381 31.1716 520.052 32 520.052C32.8284 520.052 33.5 519.381 33.5 518.552L30.5 518.552ZM33.5 528.563C33.5 527.735 32.8284 527.063 32 527.063C31.1716 527.063 30.5 527.735 30.5 528.563L33.5 528.563ZM30.5 552.591C30.5 553.419 31.1716 554.091 32 554.091C32.8285 554.091 33.5 553.419 33.5 552.591L30.5 552.591ZM33.5 562.602C33.5 561.774 32.8285 561.102 32 561.102C31.1716 561.102 30.5 561.774 30.5 562.602L33.5 562.602ZM30.5 586.629C30.5 587.458 31.1716 588.129 32 588.129C32.8285 588.129 33.5 587.458 33.5 586.629L30.5 586.629ZM33.5 596.64C33.5 595.812 32.8285 595.14 32 595.14C31.1716 595.14 30.5 595.812 30.5 596.64L33.5 596.64ZM30.5 620.668C30.5 621.496 31.1716 622.168 32 622.168C32.8285 622.168 33.5 621.496 33.5 620.668L30.5 620.668ZM33.5 630.679C33.5 629.85 32.8285 629.179 32 629.179C31.1716 629.179 30.5 629.85 30.5 630.679L33.5 630.679ZM30.5 654.706C30.5 655.534 31.1716 656.206 32 656.206C32.8285 656.206 33.5 655.534 33.5 654.706L30.5 654.706ZM33.5 664.717C33.5 663.889 32.8285 663.217 32 663.217C31.1716 663.217 30.5 663.889 30.5 664.717L33.5 664.717ZM30.5 688.744C30.5 689.573 31.1716 690.244 32 690.244C32.8285 690.244 33.5 689.573 33.5 688.744L30.5 688.744ZM33.5 698.756C33.5 697.927 32.8285 697.256 32 697.256C31.1716 697.256 30.5 697.927 30.5 698.756L33.5 698.756ZM30.5 722.783C30.5 723.611 31.1716 724.283 32 724.283C32.8285 724.283 33.5 723.611 33.5 722.783L30.5 722.783ZM33.5 732.794C33.5 731.966 32.8285 731.294 32 731.294C31.1716 731.294 30.5 731.966 30.5 732.794L33.5 732.794ZM30.5 756.821C30.5 757.65 31.1716 758.321 32 758.321C32.8285 758.321 33.5 757.65 33.5 756.821L30.5 756.821ZM33.5 766.833C33.5 766.004 32.8285 765.333 32 765.333C31.1716 765.333 30.5 766.004 30.5 766.833L33.5 766.833ZM30.5 790.86C30.5 791.688 31.1716 792.36 32 792.36C32.8285 792.36 33.5 791.688 33.5 790.86L30.5 790.86ZM33.5 800.871C33.5 800.043 32.8285 799.371 32 799.371C31.1716 799.371 30.5 800.043 30.5 800.871L33.5 800.871ZM30.5 824.898C30.5 825.727 31.1716 826.398 32 826.398C32.8285 826.398 33.5 825.727 33.5 824.898L30.5 824.898ZM33.5 834.91C33.5 834.081 32.8285 833.41 32 833.41C31.1716 833.41 30.5 834.081 30.5 834.91L33.5 834.91ZM30.5 858.937C30.5 859.765 31.1716 860.437 32 860.437C32.8285 860.437 33.5 859.765 33.5 858.937L30.5 858.937ZM33.5 868.948C33.5 868.12 32.8285 867.448 32 867.448C31.1716 867.448 30.5 868.12 30.5 868.948L33.5 868.948ZM30.5 892.975C30.5 893.804 31.1716 894.475 32 894.475C32.8285 894.475 33.5 893.804 33.5 892.975L30.5 892.975ZM33.5 902.986C33.5 902.158 32.8285 901.486 32 901.486C31.1716 901.486 30.5 902.158 30.5 902.986L33.5 902.986ZM30.5 30L30.5 42.0136L33.5 42.0136L33.5 30L30.5 30ZM30.5 52.0249L30.5 76.052L33.5 76.052L33.5 52.0249L30.5 52.0249ZM30.5 86.0633L30.5 110.09L33.5 110.09L33.5 86.0633L30.5 86.0633ZM30.5 120.102L30.5 144.129L33.5 144.129L33.5 120.102L30.5 120.102ZM30.5 154.14L30.5 178.167L33.5 178.167L33.5 154.14L30.5 154.14ZM30.5 188.179L30.5 212.206L33.5 212.206L33.5 188.179L30.5 188.179ZM30.5 222.217L30.5 246.244L33.5 246.244L33.5 222.217L30.5 222.217ZM30.5 256.256L30.5 280.283L33.5 280.283L33.5 256.256L30.5 256.256ZM30.5 290.294L30.5 314.321L33.5 314.321L33.5 290.294L30.5 290.294ZM30.5 324.333L30.5 348.36L33.5 348.36L33.5 324.333L30.5 324.333ZM30.5 358.371L30.5 382.398L33.5 382.398L33.5 358.371L30.5 358.371ZM30.5 392.41L30.5 416.437L33.5 416.437L33.5 392.41L30.5 392.41ZM30.5 426.448L30.5 450.475L33.5 450.475L33.5 426.448L30.5 426.448ZM30.5 460.487L30.5 484.514L33.5 484.514L33.5 460.487L30.5 460.487ZM30.5 494.525L30.5 518.552L33.5 518.552L33.5 494.525L30.5 494.525ZM30.5 528.563L30.5 552.591L33.5 552.591L33.5 528.563L30.5 528.563ZM30.5 562.602L30.5 586.629L33.5 586.629L33.5 562.602L30.5 562.602ZM30.5 596.64L30.5 620.668L33.5 620.668L33.5 596.64L30.5 596.64ZM30.5 630.679L30.5 654.706L33.5 654.706L33.5 630.679L30.5 630.679ZM30.5 664.717L30.5 688.744L33.5 688.744L33.5 664.717L30.5 664.717ZM30.5 698.756L30.5 722.783L33.5 722.783L33.5 698.756L30.5 698.756ZM30.5 732.794L30.5 756.821L33.5 756.821L33.5 732.794L30.5 732.794ZM30.5 766.833L30.5 790.86L33.5 790.86L33.5 766.833L30.5 766.833ZM30.5 800.871L30.5 824.898L33.5 824.898L33.5 800.871L30.5 800.871ZM30.5 834.91L30.5 858.937L33.5 858.937L33.5 834.91L30.5 834.91ZM30.5 868.948L30.5 892.975L33.5 892.975L33.5 868.948L30.5 868.948ZM30.5 902.986L30.5 915L33.5 915L33.5 902.986L30.5 902.986Z" fill="white"/>
</g>
<defs>
<filter id="filter0_d_439_9463" x="0.5" y="0" width="63" height="945" filterUnits="userSpaceOnUse" color-interpolation-filters="sRGB">
<feFlood flood-opacity="0" result="BackgroundImageFix"/>
<feColorMatrix in="SourceAlpha" type="matrix" values="0 0 0 0 0 0 0 0 0 0 0 0 0 0 0 0 0 0 127 0" result="hardAlpha"/>
<feOffset/>
<feGaussianBlur stdDeviation="15"/>
<feComposite in2="hardAlpha" operator="out"/>
<feColorMatrix type="matrix" values="0 0 0 0 1 0 0 0 0 1 0 0 0 0 1 0 0 0 0.25 0"/>
<feBlend mode="normal" in2="BackgroundImageFix" result="effect1_dropShadow_439_9463"/>
<feBlend mode="normal" in="SourceGraphic" in2="effect1_dropShadow_439_9463" result="shape"/>
</filter>
</defs>
</svg>
