<svg width="66" height="54" viewBox="0 0 66 54" fill="none" xmlns="http://www.w3.org/2000/svg">
<g filter="url(#filter0_i_521_4732)">
<rect x="24.4473" y="0.567383" width="41.0526" height="41.0526" rx="5" fill="url(#paint0_linear_521_4732)"/>
</g>
<rect x="24.6973" y="0.817383" width="40.5526" height="40.5526" rx="4.75" stroke="url(#paint1_linear_521_4732)" stroke-width="0.5"/>
<g filter="url(#filter1_bi_521_4732)">
<path fill-rule="evenodd" clip-rule="evenodd" d="M12.4737 53.5939C5.8608 53.5939 0.5 48.2331 0.5 41.6202C0.5 35.5875 4.96142 30.5968 10.7649 29.7675L10.7632 29.6465C10.7632 23.0337 16.124 17.6729 22.7368 17.6729C27.2489 17.6729 31.1781 20.1686 33.2192 23.855C34.7182 23.1801 36.381 22.8044 38.1316 22.8044C43.2062 22.8044 47.5434 25.9612 49.2867 30.4182C50.6043 29.9198 52.0334 29.6465 53.5263 29.6465C60.1392 29.6465 65.5 35.0073 65.5 41.6202C65.5 48.2331 60.1392 53.5939 53.5263 53.5939H12.4737Z" fill="#47F49A" fill-opacity="0.3"/>
<path d="M10.8002 30.015L11.0179 29.9839L11.0148 29.764L11.0132 29.6448C11.0141 23.1708 16.2626 17.9229 22.7368 17.9229C27.1544 17.9229 31.0017 20.366 33.0005 23.9761L33.112 24.1774L33.3218 24.0829C34.7892 23.4223 36.4171 23.0544 38.1316 23.0544C43.0998 23.0544 47.3468 26.1449 49.0539 30.5092L49.1439 30.7395L49.3752 30.652C50.6649 30.1641 52.0641 29.8965 53.5263 29.8965C60.0011 29.8965 65.25 35.1454 65.25 41.6202C65.25 48.095 60.0011 53.3439 53.5263 53.3439H12.4737C5.99887 53.3439 0.75 48.095 0.75 41.6202C0.75 35.7137 5.11819 30.827 10.8002 30.015Z" stroke="url(#paint2_linear_521_4732)" stroke-width="0.5"/>
</g>
<defs>
<filter id="filter0_i_521_4732" x="24.4473" y="0.567383" width="41.0527" height="41.0527" filterUnits="userSpaceOnUse" color-interpolation-filters="sRGB">
<feFlood flood-opacity="0" result="BackgroundImageFix"/>
<feBlend mode="normal" in="SourceGraphic" in2="BackgroundImageFix" result="shape"/>
<feColorMatrix in="SourceAlpha" type="matrix" values="0 0 0 0 0 0 0 0 0 0 0 0 0 0 0 0 0 0 127 0" result="hardAlpha"/>
<feOffset/>
<feGaussianBlur stdDeviation="5"/>
<feComposite in2="hardAlpha" operator="arithmetic" k2="-1" k3="1"/>
<feColorMatrix type="matrix" values="0 0 0 0 1 0 0 0 0 1 0 0 0 0 1 0 0 0 0.4 0"/>
<feBlend mode="normal" in2="shape" result="effect1_innerShadow_521_4732"/>
</filter>
<filter id="filter1_bi_521_4732" x="-4.93656" y="12.2363" width="75.8731" height="46.794" filterUnits="userSpaceOnUse" color-interpolation-filters="sRGB">
<feFlood flood-opacity="0" result="BackgroundImageFix"/>
<feGaussianBlur in="BackgroundImage" stdDeviation="2.71828"/>
<feComposite in2="SourceAlpha" operator="in" result="effect1_backgroundBlur_521_4732"/>
<feBlend mode="normal" in="SourceGraphic" in2="effect1_backgroundBlur_521_4732" result="shape"/>
<feColorMatrix in="SourceAlpha" type="matrix" values="0 0 0 0 0 0 0 0 0 0 0 0 0 0 0 0 0 0 127 0" result="hardAlpha"/>
<feOffset/>
<feGaussianBlur stdDeviation="2"/>
<feComposite in2="hardAlpha" operator="arithmetic" k2="-1" k3="1"/>
<feColorMatrix type="matrix" values="0 0 0 0 1 0 0 0 0 1 0 0 0 0 1 0 0 0 0.3 0"/>
<feBlend mode="normal" in2="shape" result="effect2_innerShadow_521_4732"/>
</filter>
<linearGradient id="paint0_linear_521_4732" x1="24.6273" y1="0.567383" x2="24.6273" y2="41.26" gradientUnits="userSpaceOnUse">
<stop stop-color="#00FFD0"/>
<stop offset="1" stop-color="#0B9D71"/>
</linearGradient>
<linearGradient id="paint1_linear_521_4732" x1="24.4473" y1="0.567383" x2="24.4473" y2="41.62" gradientUnits="userSpaceOnUse">
<stop stop-color="white" stop-opacity="0.4"/>
<stop offset="1" stop-color="white" stop-opacity="0.01"/>
</linearGradient>
<linearGradient id="paint2_linear_521_4732" x1="0.5" y1="17.6729" x2="0.5" y2="53.5939" gradientUnits="userSpaceOnUse">
<stop stop-color="white" stop-opacity="0.3"/>
<stop offset="1" stop-color="white" stop-opacity="0.13"/>
</linearGradient>
</defs>
</svg>
